<svg id="svg" version="1.1" xmlns="http://www.w3.org/2000/svg" xmlns:xlink="http://www.w3.org/1999/xlink" width="400" height="164" viewBox="0, 0, 400,164"><g id="svgg"><path id="path0" d="M387.447 75.442 C 387.385 75.504,387.333 75.806,387.333 76.111 L 387.333 76.667 386.200 76.667 C 384.952 76.667,384.667 76.825,384.667 77.520 C 384.667 77.890,384.573 77.994,384.157 78.086 C 383.548 78.219,383.333 78.678,383.333 79.844 C 383.333 80.639,383.317 80.667,382.854 80.667 C 382.020 80.667,381.990 80.823,382.038 84.854 L 382.083 88.583 382.701 88.635 L 383.320 88.686 383.368 89.968 L 383.417 91.250 384.032 91.301 C 384.610 91.349,384.651 91.390,384.699 91.968 C 384.747 92.548,384.786 92.586,385.375 92.635 C 385.933 92.681,386.000 92.736,386.000 93.143 C 386.000 93.904,386.248 94.000,388.200 94.000 L 390.000 94.000 390.000 94.467 C 390.000 95.223,390.254 95.333,392.000 95.333 C 393.746 95.333,394.000 95.223,394.000 94.467 L 394.000 94.000 395.255 94.000 C 396.772 94.000,397.611 93.697,397.762 93.094 C 397.849 92.747,397.969 92.667,398.401 92.667 C 399.079 92.667,399.333 92.408,399.333 91.717 C 399.333 91.278,399.401 91.167,399.667 91.167 C 399.994 91.167,400.000 91.056,400.000 85.250 C 400.000 79.444,399.994 79.333,399.667 79.333 C 399.400 79.333,399.333 79.222,399.333 78.775 C 399.333 77.376,398.637 76.667,397.265 76.667 C 396.717 76.667,396.684 76.634,396.635 76.042 L 396.583 75.417 392.072 75.372 C 389.591 75.348,387.510 75.379,387.447 75.442 M107.445 76.777 C 107.384 76.838,107.333 77.434,107.333 78.101 L 107.333 79.313 106.708 79.365 L 106.083 79.417 106.035 80.699 L 105.986 81.981 105.368 82.032 L 104.750 82.083 104.701 83.365 L 104.653 84.647 104.035 84.699 L 103.417 84.750 103.368 86.032 L 103.320 87.314 102.701 87.365 L 102.083 87.417 102.035 88.699 L 101.986 89.981 101.368 90.032 L 100.750 90.083 100.701 91.365 L 100.653 92.647 100.035 92.699 L 99.417 92.750 99.365 93.667 C 99.309 94.653,98.876 95.333,98.304 95.333 C 98.045 95.333,98.000 95.475,98.000 96.304 C 98.000 97.326,97.586 98.000,96.957 98.000 C 96.757 98.000,96.672 98.186,96.635 98.708 C 96.588 99.348,96.536 99.423,96.085 99.501 C 95.538 99.594,95.390 99.956,95.353 101.287 C 95.335 101.933,95.290 102.002,94.797 102.129 C 94.195 102.286,94.043 102.622,94.017 103.862 C 94.001 104.589,93.967 104.647,93.490 104.752 C 92.881 104.886,92.667 105.344,92.667 106.511 C 92.667 107.271,92.636 107.333,92.262 107.333 C 91.575 107.333,91.333 107.744,91.333 108.910 L 91.333 109.963 90.768 110.069 C 90.121 110.190,90.006 110.450,90.002 111.792 C 90.000 112.606,89.972 112.667,89.595 112.667 C 88.905 112.667,88.667 113.077,88.667 114.262 C 88.667 115.324,88.663 115.333,88.200 115.333 C 87.491 115.333,87.333 115.613,87.333 116.867 C 87.333 117.997,87.332 118.000,86.867 118.000 C 86.158 118.000,86.000 118.280,86.000 119.533 C 86.000 120.663,85.999 120.667,85.533 120.667 C 84.826 120.667,84.667 120.947,84.667 122.190 L 84.667 123.313 84.042 123.365 L 83.417 123.417 83.368 124.699 L 83.320 125.981 82.701 126.032 L 82.083 126.083 82.035 127.365 L 81.986 128.647 81.368 128.699 L 80.750 128.750 80.701 130.032 L 80.653 131.314 80.035 131.365 L 79.417 131.417 79.368 132.699 L 79.320 133.981 78.701 134.032 L 78.083 134.083 78.035 135.365 L 77.986 136.647 77.368 136.699 L 76.750 136.750 76.701 138.032 L 76.653 139.314 76.035 139.365 C 75.436 139.415,75.415 139.439,75.365 140.125 C 75.326 140.675,75.248 140.833,75.016 140.833 C 74.303 140.833,74.087 141.419,74.024 143.521 C 73.941 146.301,72.730 146.000,83.987 146.000 C 94.293 146.000,94.000 146.025,94.000 145.143 C 94.000 144.736,94.067 144.681,94.625 144.635 L 95.250 144.583 95.299 143.301 L 95.347 142.019 95.965 141.968 L 96.583 141.917 96.632 140.635 L 96.680 139.353 97.299 139.301 L 97.917 139.250 97.965 137.968 L 98.014 136.686 98.632 136.635 L 99.250 136.583 99.299 135.292 L 99.347 134.000 110.674 134.000 L 122.000 134.000 122.008 139.208 C 122.017 145.179,122.054 145.373,123.245 145.781 C 124.187 146.104,142.705 146.028,143.033 145.700 C 143.291 145.443,143.437 138.673,143.208 137.584 C 143.090 137.019,142.993 136.904,142.576 136.832 L 142.083 136.747 142.000 130.399 C 141.911 123.595,141.898 123.500,141.063 123.500 L 140.667 123.500 140.667 116.411 C 140.667 108.760,140.647 108.569,139.779 107.886 L 139.351 107.549 139.300 100.649 C 139.247 93.272,139.227 93.105,138.412 92.901 L 138.000 92.797 138.000 86.974 C 138.000 80.687,137.985 80.573,137.094 79.871 C 136.722 79.579,136.676 79.408,136.632 78.148 L 136.583 76.750 122.070 76.707 C 114.088 76.684,107.507 76.715,107.445 76.777 M158.111 76.778 C 158.050 76.839,158.000 77.737,158.000 78.773 L 158.000 80.657 157.464 80.796 C 156.750 80.981,156.703 81.205,156.683 84.542 L 156.667 87.333 156.262 87.333 C 155.429 87.333,155.333 87.644,155.333 90.349 L 155.333 92.842 154.921 92.998 C 154.193 93.275,154.000 94.093,154.000 96.900 L 154.000 99.427 153.513 99.611 C 152.823 99.871,152.669 100.605,152.668 103.625 L 152.667 106.167 152.270 106.167 C 151.508 106.167,151.421 106.503,151.359 109.692 L 151.301 112.667 150.850 112.667 C 150.040 112.667,150.000 112.834,150.000 116.200 L 150.000 119.333 149.533 119.333 C 148.705 119.333,148.667 119.490,148.667 122.857 L 148.667 125.980 148.042 126.032 L 147.417 126.083 147.371 128.708 L 147.325 131.333 146.924 131.333 C 146.069 131.333,146.000 131.601,146.000 134.910 L 146.000 137.963 145.435 138.069 C 144.686 138.209,144.672 138.288,144.669 142.271 C 144.667 144.953,144.714 145.665,144.901 145.820 C 145.242 146.103,161.399 146.002,161.686 145.715 C 161.807 145.593,161.919 144.809,161.966 143.756 L 162.044 142.000 162.489 142.000 C 163.292 142.000,163.333 141.829,163.333 138.467 L 163.333 135.333 163.800 135.333 C 164.608 135.333,164.667 135.136,164.667 132.410 L 164.667 129.888 165.333 129.187 C 165.847 128.646,166.000 128.354,166.000 127.910 C 166.000 127.211,166.414 127.127,166.964 127.712 C 167.267 128.034,167.327 128.327,167.368 129.670 L 167.417 131.250 168.042 131.302 L 168.667 131.353 168.669 132.885 C 168.672 134.921,168.741 135.134,169.435 135.264 L 170.000 135.370 170.001 136.560 C 170.002 138.284,170.233 138.988,170.836 139.109 C 171.318 139.205,171.321 139.213,171.369 140.561 L 171.417 141.917 172.035 141.968 L 172.653 142.019 172.701 143.301 L 172.750 144.583 173.375 144.635 C 173.933 144.681,174.000 144.736,174.000 145.143 C 174.000 146.022,173.760 146.000,183.270 146.000 C 192.141 146.000,192.667 145.977,192.667 145.591 C 192.667 145.478,192.817 145.249,193.000 145.083 C 193.462 144.665,193.467 143.339,193.008 142.924 C 192.773 142.712,192.668 142.366,192.633 141.690 L 192.583 140.750 191.958 140.698 L 191.333 140.647 191.317 139.198 C 191.295 137.269,191.197 136.967,190.536 136.796 L 190.000 136.657 190.000 135.529 C 190.000 134.280,189.841 134.000,189.133 134.000 C 188.668 134.000,188.667 133.997,188.667 132.867 C 188.667 131.616,188.508 131.333,187.807 131.333 C 187.349 131.333,187.347 131.329,187.299 130.042 L 187.250 128.750 186.625 128.698 L 186.000 128.647 186.000 127.401 C 186.000 125.894,185.696 125.055,185.094 124.905 C 184.702 124.806,184.667 124.723,184.667 123.909 C 184.667 122.678,184.461 122.221,183.843 122.086 L 183.333 121.974 183.333 120.653 L 183.333 119.333 183.800 119.333 C 184.457 119.333,184.667 119.050,184.667 118.162 C 184.667 117.341,185.141 116.667,185.719 116.667 C 185.936 116.667,186.000 116.514,186.000 116.000 L 186.000 115.333 186.667 115.333 C 187.332 115.333,187.333 115.332,187.333 114.677 C 187.333 114.038,187.351 114.019,187.958 113.968 C 188.549 113.919,188.586 113.883,188.635 113.292 C 188.681 112.734,188.736 112.667,189.143 112.667 C 189.841 112.667,190.000 112.383,190.000 111.133 L 190.000 110.000 190.667 110.000 C 191.332 110.000,191.333 109.998,191.333 109.343 C 191.333 108.705,191.351 108.685,191.958 108.635 C 192.547 108.586,192.586 108.548,192.634 107.968 C 192.683 107.390,192.723 107.349,193.301 107.301 C 193.881 107.253,193.920 107.214,193.968 106.625 C 194.012 106.093,194.079 106.000,194.415 106.000 C 195.095 106.000,195.333 105.585,195.333 104.405 L 195.333 103.333 196.000 103.333 C 196.665 103.333,196.667 103.332,196.667 102.677 C 196.667 102.038,196.684 102.019,197.292 101.968 C 197.881 101.920,197.920 101.881,197.968 101.301 C 198.016 100.723,198.056 100.683,198.634 100.634 C 199.230 100.585,199.252 100.560,199.301 99.875 C 199.346 99.260,199.403 99.167,199.739 99.167 C 200.369 99.167,200.546 98.784,200.470 97.590 C 200.359 95.846,199.459 95.157,198.610 96.165 L 198.191 96.664 189.470 96.707 L 180.750 96.750 180.699 97.366 C 180.651 97.944,180.610 97.984,180.032 98.032 C 179.435 98.082,179.415 98.105,179.365 98.800 C 179.324 99.371,179.235 99.546,178.924 99.664 C 178.446 99.846,178.000 100.698,178.000 101.432 C 178.000 101.945,177.960 101.983,177.375 102.032 C 176.784 102.081,176.747 102.117,176.698 102.708 C 176.652 103.266,176.597 103.333,176.190 103.333 C 175.492 103.333,175.333 103.617,175.333 104.867 L 175.333 106.000 174.667 106.000 C 174.002 106.000,174.000 106.002,174.000 106.657 C 174.000 107.295,173.983 107.315,173.375 107.365 C 172.786 107.414,172.747 107.452,172.699 108.030 C 172.655 108.561,172.580 108.659,172.147 108.754 C 171.550 108.885,171.333 109.350,171.333 110.501 L 171.333 111.313 170.708 111.365 C 170.121 111.414,170.080 111.453,170.033 112.025 C 169.985 112.601,169.947 112.637,169.324 112.696 L 168.667 112.759 168.667 111.379 L 168.667 110.000 169.133 110.000 C 169.943 110.000,170.000 109.805,170.000 107.050 L 170.000 104.500 170.396 104.500 C 171.155 104.500,171.244 104.160,171.333 100.934 L 171.417 97.919 171.915 97.833 C 172.568 97.721,172.622 97.440,172.647 94.055 L 172.667 91.360 173.177 91.248 C 173.900 91.089,174.000 90.675,174.000 87.852 C 174.000 85.218,174.086 84.951,175.042 84.613 C 175.303 84.521,175.333 84.232,175.333 81.828 L 175.333 79.145 175.833 78.724 C 176.482 78.179,176.464 77.839,175.754 77.193 L 175.176 76.667 166.699 76.667 C 162.037 76.667,158.172 76.717,158.111 76.778 M221.618 95.489 C 219.762 95.586,219.509 95.693,219.503 96.375 C 219.500 96.645,219.181 96.668,215.292 96.683 C 210.459 96.702,210.321 96.723,210.129 97.464 L 209.990 98.000 208.862 98.000 C 207.617 98.000,207.333 98.159,207.333 98.857 C 207.333 99.264,207.266 99.319,206.708 99.365 C 206.117 99.414,206.081 99.451,206.032 100.042 C 205.981 100.649,205.962 100.667,205.323 100.667 C 204.670 100.667,204.667 100.670,204.667 101.323 C 204.667 101.962,204.649 101.981,204.042 102.032 C 203.451 102.081,203.414 102.117,203.365 102.708 C 203.319 103.266,203.264 103.333,202.857 103.333 C 202.159 103.333,202.000 103.617,202.000 104.867 C 202.000 105.997,201.999 106.000,201.533 106.000 C 200.756 106.000,200.667 106.237,200.667 108.294 L 200.667 110.188 200.167 110.609 C 199.518 111.155,199.536 111.494,200.247 112.141 L 200.828 112.670 209.372 112.627 L 217.917 112.583 217.965 111.301 L 218.014 110.019 218.632 109.968 C 219.215 109.920,219.253 109.881,219.302 109.292 L 219.353 108.667 220.468 108.654 C 221.876 108.638,222.686 108.354,222.967 107.779 C 223.314 107.070,224.593 107.116,224.752 107.843 C 224.885 108.449,225.344 108.667,226.487 108.667 C 227.243 108.667,227.293 108.695,227.439 109.203 C 227.555 109.608,227.726 109.778,228.130 109.894 C 228.853 110.102,228.966 111.333,228.262 111.333 C 227.423 111.333,227.333 111.635,227.333 114.462 C 227.333 116.488,227.289 117.022,227.133 116.867 C 227.023 116.757,226.723 116.667,226.467 116.667 C 226.095 116.667,225.999 116.591,225.997 116.292 C 225.992 115.509,225.791 115.422,223.799 115.333 L 221.919 115.250 221.833 114.751 C 221.714 114.061,221.557 114.042,215.833 114.022 C 210.186 114.002,210.213 113.999,210.070 114.764 L 209.964 115.325 207.357 115.371 L 204.750 115.417 204.699 116.035 L 204.647 116.653 203.365 116.701 L 202.083 116.750 202.032 117.375 C 201.982 117.971,201.952 118.000,201.385 118.000 C 200.901 118.000,200.648 118.141,200.039 118.750 C 199.596 119.194,199.137 119.500,198.915 119.500 C 198.370 119.500,198.180 119.826,198.061 120.967 L 197.954 121.983 197.352 122.033 C 196.775 122.081,196.748 122.112,196.700 122.774 C 196.660 123.312,196.504 123.617,195.991 124.156 C 195.348 124.832,195.333 124.874,195.333 126.072 L 195.333 127.296 194.756 127.404 C 193.974 127.551,193.979 127.506,194.035 134.583 L 194.083 140.583 194.708 140.635 C 195.293 140.683,195.333 140.722,195.333 141.235 C 195.333 142.623,196.033 143.333,197.401 143.333 C 197.950 143.333,197.983 143.366,198.032 143.958 L 198.083 144.583 199.375 144.632 C 200.612 144.679,200.667 144.698,200.667 145.078 C 200.667 146.016,200.530 146.000,208.729 146.000 C 216.823 146.000,216.667 146.017,216.667 145.133 L 216.667 144.667 218.375 144.664 C 220.309 144.661,220.481 144.597,220.666 143.813 C 220.789 143.294,220.801 143.320,220.816 144.136 C 220.853 146.043,220.645 146.001,230.000 145.986 C 239.782 145.971,239.299 146.145,239.321 142.638 L 239.333 140.693 239.843 140.581 C 240.578 140.420,240.667 140.016,240.667 136.822 L 240.667 134.000 241.071 134.000 C 241.902 134.000,242.000 133.686,242.000 131.025 L 242.000 128.573 242.487 128.389 C 243.177 128.129,243.331 127.395,243.332 124.375 C 243.333 122.016,243.355 121.833,243.641 121.833 C 244.443 121.833,244.579 121.333,244.641 118.149 C 244.694 115.443,244.726 115.167,244.990 115.167 C 245.868 115.167,245.913 114.883,245.967 108.997 C 246.022 102.989,245.953 102.453,245.103 102.240 C 244.752 102.152,244.676 102.023,244.634 101.442 C 244.585 100.773,244.562 100.748,243.958 100.698 C 243.351 100.648,243.333 100.628,243.333 99.990 C 243.333 99.337,243.330 99.333,242.677 99.333 C 242.038 99.333,242.019 99.316,241.968 98.708 L 241.917 98.083 240.635 98.035 L 239.353 97.986 239.301 97.368 L 239.250 96.750 235.005 96.705 L 230.760 96.661 230.213 96.131 C 229.417 95.359,227.214 95.195,221.618 95.489 M278.676 95.480 C 278.400 95.557,278.224 95.767,278.129 96.130 L 277.990 96.667 275.529 96.667 C 272.868 96.667,272.667 96.728,272.667 97.533 C 272.667 97.996,272.658 98.000,271.595 98.000 C 270.843 98.000,270.446 98.078,270.262 98.262 C 270.024 98.500,270.000 98.458,270.000 97.795 C 270.000 96.604,270.493 96.667,261.133 96.667 L 252.667 96.667 252.667 97.315 C 252.667 97.920,252.629 97.970,252.102 98.069 C 251.377 98.205,251.338 98.362,251.336 101.212 C 251.333 103.500,251.332 103.509,250.921 103.665 C 250.193 103.942,250.000 104.760,250.000 107.567 L 250.000 110.094 249.513 110.277 C 248.823 110.538,248.669 111.271,248.668 114.292 L 248.667 116.833 248.270 116.833 C 247.508 116.833,247.421 117.170,247.359 120.359 L 247.301 123.333 246.850 123.333 C 246.051 123.333,246.000 123.524,246.000 126.504 C 246.000 129.384,245.832 130.000,245.049 130.000 C 244.720 130.000,244.667 130.503,244.667 133.587 L 244.667 136.647 244.042 136.698 L 243.417 136.750 243.371 139.375 L 243.325 142.000 242.850 142.000 C 242.081 142.000,241.951 142.320,242.031 144.001 C 242.131 146.103,241.277 145.909,250.692 145.964 C 259.469 146.016,259.333 146.028,259.333 145.156 C 259.333 144.734,259.396 144.682,259.958 144.635 L 260.583 144.583 260.629 141.958 L 260.675 139.333 261.138 139.333 C 261.938 139.333,262.000 139.129,262.000 136.480 L 262.000 134.026 262.510 133.914 C 263.245 133.753,263.333 133.349,263.333 130.169 L 263.333 127.360 263.843 127.248 C 264.578 127.086,264.667 126.683,264.667 123.489 L 264.667 120.667 265.133 120.667 C 265.939 120.667,266.000 120.466,266.000 117.800 L 266.000 115.333 266.467 115.333 C 267.174 115.333,267.333 115.053,267.333 113.810 L 267.333 112.687 267.958 112.635 C 268.549 112.586,268.586 112.549,268.635 111.958 L 268.687 111.333 269.810 111.333 C 271.053 111.333,271.333 111.174,271.333 110.467 L 271.333 110.000 273.309 110.000 L 275.285 110.000 275.439 110.537 C 275.555 110.941,275.726 111.112,276.130 111.228 L 276.667 111.382 276.667 114.774 L 276.667 118.167 276.270 118.167 C 275.508 118.167,275.421 118.503,275.359 121.692 L 275.301 124.667 274.850 124.667 C 274.040 124.667,274.000 124.834,274.000 128.200 L 274.000 131.333 273.533 131.333 C 272.705 131.333,272.667 131.490,272.667 134.857 L 272.667 137.980 272.042 138.032 L 271.417 138.083 271.370 140.353 C 271.329 142.367,271.287 142.657,270.995 142.921 C 270.533 143.339,270.536 144.663,271.000 145.083 C 271.183 145.249,271.333 145.484,271.333 145.606 C 271.333 145.992,271.922 146.016,280.036 145.966 C 289.573 145.907,288.551 146.259,288.640 143.006 L 288.704 140.685 289.310 140.634 L 289.917 140.583 289.962 137.976 L 290.008 135.369 290.569 135.264 C 291.304 135.126,291.328 135.007,291.331 131.560 L 291.333 128.704 291.898 128.598 C 292.638 128.459,292.662 128.345,292.664 124.875 L 292.667 122.000 293.133 122.000 C 293.939 122.000,294.000 121.799,294.000 119.147 L 294.000 116.693 294.510 116.581 C 295.184 116.433,295.333 115.993,295.333 114.156 L 295.333 112.667 296.000 112.667 C 296.665 112.667,296.667 112.665,296.667 112.007 L 296.667 111.347 297.958 111.299 L 299.250 111.250 299.302 110.625 L 299.353 110.000 301.343 110.000 L 303.333 110.000 303.333 110.405 C 303.333 110.923,303.744 111.333,304.262 111.333 L 304.667 111.333 304.667 115.333 L 304.667 119.333 304.200 119.333 C 303.391 119.333,303.333 119.529,303.333 122.283 L 303.333 124.833 302.937 124.833 C 302.171 124.833,302.087 125.164,302.026 128.442 C 301.968 131.498,301.968 131.500,301.588 131.500 C 300.843 131.500,300.754 131.851,300.692 135.010 L 300.635 137.969 300.086 138.072 C 299.355 138.209,299.338 138.302,299.336 142.271 C 299.334 144.941,299.381 145.665,299.566 145.819 C 299.916 146.110,316.068 145.999,316.363 145.704 C 316.498 145.568,316.599 144.859,316.640 143.746 C 316.703 142.051,316.716 142.000,317.090 142.000 C 317.903 142.000,318.000 141.677,318.000 138.984 L 318.000 136.492 318.412 136.335 C 319.143 136.057,319.333 135.242,319.333 132.396 L 319.333 129.833 319.730 129.833 C 320.488 129.833,320.578 129.493,320.667 126.267 L 320.750 123.252 321.249 123.167 C 321.901 123.054,321.956 122.774,321.980 119.375 L 322.000 116.667 322.480 116.667 C 323.270 116.667,323.322 116.455,323.371 113.072 L 323.417 109.920 323.909 109.834 C 325.097 109.629,324.925 104.833,323.730 104.833 C 323.337 104.833,323.333 104.819,323.333 103.012 C 323.333 101.035,323.189 100.667,322.415 100.667 C 322.079 100.667,322.012 100.573,321.968 100.042 C 321.920 99.453,321.881 99.414,321.301 99.366 C 320.723 99.317,320.683 99.277,320.634 98.699 L 320.583 98.083 319.301 98.035 L 318.019 97.986 317.968 97.368 L 317.917 96.750 315.869 96.667 C 313.895 96.586,313.814 96.568,313.616 96.171 C 313.303 95.541,312.397 95.360,309.500 95.348 C 306.349 95.336,306.207 95.367,306.069 96.102 L 305.963 96.667 303.515 96.667 C 300.868 96.667,300.667 96.728,300.667 97.533 C 300.667 97.999,300.663 98.000,299.533 98.000 C 298.284 98.000,298.000 98.159,298.000 98.857 C 298.000 99.264,297.933 99.319,297.375 99.365 C 296.784 99.414,296.747 99.451,296.698 100.042 C 296.650 100.625,296.610 100.667,296.107 100.667 C 295.810 100.667,295.485 100.748,295.385 100.848 C 295.255 100.978,295.173 100.978,295.092 100.848 C 295.031 100.748,294.760 100.667,294.490 100.667 C 294.029 100.667,294.000 100.627,294.000 100.000 L 294.000 99.333 293.333 99.333 L 292.667 99.333 292.667 98.667 L 292.667 98.000 292.000 98.000 C 291.381 98.000,291.333 97.967,291.333 97.533 C 291.333 96.728,291.132 96.667,288.480 96.667 L 286.026 96.667 285.914 96.157 C 285.842 95.827,285.657 95.591,285.390 95.490 C 284.925 95.313,279.304 95.305,278.676 95.480 M348.901 95.444 C 347.812 95.508,347.675 95.559,347.160 96.090 L 346.601 96.667 342.563 96.667 C 338.184 96.667,338.000 96.704,338.000 97.588 C 338.000 97.969,337.945 97.988,336.708 98.035 L 335.417 98.083 335.365 98.708 C 335.315 99.316,335.295 99.333,334.657 99.333 C 334.002 99.333,334.000 99.335,334.000 100.000 L 334.000 100.667 333.333 100.667 L 332.667 100.667 332.667 101.333 L 332.667 102.000 332.000 102.000 C 331.335 102.000,331.333 102.002,331.333 102.657 C 331.333 103.295,331.316 103.315,330.708 103.365 L 330.083 103.417 330.035 104.699 L 329.986 105.981 329.368 106.032 L 328.750 106.083 328.701 107.375 C 328.655 108.612,328.636 108.667,328.255 108.667 C 327.468 108.667,327.318 109.044,327.369 110.893 L 327.417 112.583 336.528 112.583 C 341.539 112.583,345.699 112.523,345.773 112.449 C 345.847 112.376,345.936 111.803,345.971 111.177 C 346.034 110.066,346.048 110.034,346.555 109.889 C 346.940 109.779,347.113 109.602,347.228 109.203 C 347.380 108.672,347.392 108.667,348.429 108.667 C 349.589 108.667,350.000 108.424,350.000 107.738 C 350.000 107.343,350.033 107.333,351.333 107.333 C 352.634 107.333,352.667 107.343,352.667 107.738 C 352.667 108.428,353.077 108.667,354.262 108.667 L 355.333 108.667 355.333 111.981 L 355.333 115.296 354.756 115.404 C 354.261 115.497,354.164 115.594,354.071 116.090 C 353.898 117.013,352.712 116.973,352.635 116.042 L 352.583 115.417 351.208 115.368 C 350.012 115.326,349.833 115.281,349.833 115.019 C 349.833 114.135,349.541 114.087,343.858 114.034 C 338.046 113.979,337.442 114.054,337.033 114.890 L 336.815 115.333 334.616 115.350 C 331.902 115.370,331.643 115.434,331.463 116.130 C 331.340 116.606,331.258 116.667,330.740 116.667 C 329.861 116.667,329.030 117.073,328.907 117.564 C 328.819 117.915,328.690 117.991,328.109 118.033 C 327.442 118.081,327.415 118.106,327.366 118.699 C 327.317 119.277,327.277 119.317,326.699 119.366 C 326.119 119.414,326.080 119.453,326.032 120.039 C 325.987 120.581,325.912 120.680,325.454 120.799 C 324.862 120.952,324.710 121.295,324.683 122.532 C 324.667 123.311,324.665 123.313,324.042 123.365 L 323.417 123.417 323.368 124.705 L 323.319 125.994 322.790 126.131 C 322.082 126.315,322.036 126.540,322.017 129.958 L 322.000 132.833 321.604 132.833 C 320.403 132.833,320.309 137.537,321.504 137.776 L 322.000 137.875 322.017 139.396 C 322.039 141.401,322.132 141.698,322.797 141.871 C 323.239 141.985,323.333 142.091,323.333 142.471 C 323.333 143.080,323.612 143.333,324.283 143.333 C 324.751 143.333,324.833 143.392,324.833 143.730 C 324.833 144.382,325.229 144.546,327.006 144.631 L 328.667 144.711 328.667 145.156 C 328.667 146.014,328.538 146.000,336.605 146.000 C 344.811 146.000,344.667 146.017,344.667 145.071 C 344.667 144.679,344.705 144.667,345.910 144.667 C 347.132 144.667,347.164 144.656,347.853 144.000 C 348.728 143.168,348.667 143.138,348.667 144.405 C 348.667 146.130,347.960 146.000,357.333 146.000 C 366.202 146.000,366.000 146.022,366.000 145.071 C 366.000 144.739,366.084 144.667,366.467 144.667 C 367.295 144.667,367.333 144.510,367.333 141.133 L 367.333 138.000 367.800 138.000 C 368.608 138.000,368.667 137.803,368.667 135.077 L 368.667 132.554 369.333 131.853 L 370.000 131.153 370.000 128.576 L 370.000 126.000 370.467 126.000 C 371.295 126.000,371.333 125.844,371.333 122.467 L 371.333 119.333 371.800 119.333 C 372.628 119.333,372.667 119.177,372.667 115.800 L 372.667 112.667 373.071 112.667 C 373.995 112.667,374.030 112.485,373.971 108.084 C 373.913 103.768,373.860 103.500,373.070 103.500 C 372.697 103.500,372.678 103.441,372.632 102.125 L 372.583 100.750 371.968 100.699 C 371.390 100.651,371.349 100.610,371.301 100.032 C 371.253 99.454,371.213 99.414,370.634 99.366 C 370.056 99.317,370.016 99.277,369.968 98.699 L 369.917 98.083 368.625 98.035 C 367.338 97.986,367.333 97.984,367.333 97.526 C 367.333 96.678,367.270 96.667,362.383 96.667 C 358.072 96.667,357.833 96.651,357.833 96.359 C 357.833 95.506,354.204 95.134,348.901 95.444 M119.544 112.279 C 119.613 112.386,119.895 112.524,120.169 112.584 L 120.667 112.693 120.667 115.347 L 120.667 118.000 114.625 118.000 L 108.583 118.001 108.637 116.676 L 108.691 115.352 109.304 115.301 L 109.917 115.250 109.965 113.968 L 110.014 112.686 110.632 112.635 L 111.250 112.583 111.299 111.301 L 111.347 110.019 111.965 109.968 L 112.583 109.917 112.632 108.635 L 112.680 107.353 113.299 107.301 L 113.917 107.250 113.965 105.968 L 114.014 104.686 114.632 104.635 L 115.250 104.583 115.299 103.301 L 115.347 102.019 115.965 101.968 L 116.583 101.917 116.632 100.635 L 116.680 99.353 117.299 99.301 L 117.917 99.250 117.965 97.958 C 118.012 96.717,118.030 96.667,118.417 96.667 C 118.639 96.667,118.917 96.563,119.035 96.436 C 119.211 96.248,119.265 97.654,119.333 104.145 C 119.379 108.511,119.474 112.171,119.544 112.279 M380.667 97.999 L 380.667 99.333 380.200 99.333 C 379.394 99.333,379.333 99.534,379.333 102.204 L 379.333 104.675 378.830 104.776 C 378.100 104.922,378.091 104.959,378.000 108.332 L 377.917 111.414 377.418 111.500 C 376.766 111.613,376.711 111.894,376.686 115.273 L 376.667 117.963 376.102 118.069 C 375.371 118.206,375.338 118.347,375.336 121.429 C 375.333 124.028,375.145 124.667,374.382 124.667 C 374.058 124.667,374.000 125.159,374.000 127.901 C 374.000 130.712,373.828 131.333,373.049 131.333 C 372.720 131.333,372.667 131.836,372.667 134.920 L 372.667 137.980 372.042 138.032 L 371.417 138.083 371.372 141.812 C 371.340 144.489,371.382 145.608,371.523 145.778 C 371.855 146.178,387.876 146.029,388.282 145.622 C 388.528 145.377,388.587 144.947,388.640 143.006 L 388.704 140.685 389.310 140.634 L 389.917 140.583 389.963 137.958 L 390.008 135.333 390.409 135.333 C 391.265 135.333,391.333 135.067,391.333 131.738 L 391.333 128.667 391.738 128.667 C 392.599 128.667,392.667 128.404,392.667 125.071 L 392.667 122.000 393.133 122.000 C 393.939 122.000,394.000 121.799,394.000 119.147 L 394.000 116.693 394.510 116.581 C 395.245 116.420,395.333 116.016,395.333 112.836 L 395.333 110.026 395.843 109.914 C 396.578 109.753,396.667 109.350,396.667 106.156 L 396.667 103.333 397.071 103.333 C 397.945 103.333,398.011 103.070,397.962 99.776 L 397.917 96.750 389.292 96.707 L 380.667 96.664 380.667 97.999 M222.086 126.510 C 222.219 127.119,222.678 127.333,223.844 127.333 L 224.667 127.333 224.667 128.657 L 224.667 129.980 224.042 130.032 L 223.417 130.083 223.368 131.375 L 223.319 132.667 221.837 132.667 C 220.008 132.667,219.567 132.817,219.419 133.490 L 219.307 134.000 216.663 134.000 L 214.020 134.000 213.968 133.375 C 213.920 132.788,213.880 132.747,213.313 132.700 C 212.798 132.657,212.688 132.573,212.561 132.129 C 212.456 131.763,212.265 131.562,211.914 131.449 C 211.641 131.360,211.398 131.273,211.375 131.255 C 211.352 131.236,211.633 130.906,212.000 130.520 C 212.655 129.832,212.667 129.797,212.667 128.583 L 212.667 127.347 213.958 127.299 L 215.250 127.250 215.302 126.625 L 215.353 126.000 218.663 126.000 L 221.974 126.000 222.086 126.510 M350.000 126.467 C 350.000 127.175,350.280 127.333,351.533 127.333 L 352.667 127.333 352.667 128.000 C 352.667 128.619,352.633 128.667,352.200 128.667 C 351.491 128.667,351.333 128.946,351.333 130.200 C 351.333 131.330,351.332 131.333,350.867 131.333 C 350.274 131.333,350.000 131.608,350.000 132.200 C 350.000 132.665,349.997 132.667,348.867 132.667 C 347.613 132.667,347.333 132.825,347.333 133.533 L 347.333 134.000 344.667 134.000 L 342.000 134.000 342.000 133.533 C 342.000 132.825,341.720 132.667,340.467 132.667 L 339.333 132.667 339.333 131.250 C 339.333 129.984,339.366 129.833,339.641 129.833 C 340.156 129.833,340.515 129.257,340.617 128.267 L 340.713 127.333 341.761 127.333 C 342.922 127.333,343.333 127.090,343.333 126.405 L 343.333 126.000 346.667 126.000 L 350.000 126.000 350.000 126.467 " stroke="none" fill="#fc9b33" fill-rule="evenodd"></path><path id="path1" d="M67.333 0.333 C 67.333 0.655,67.222 0.667,64.200 0.667 C 60.826 0.667,60.667 0.706,60.667 1.528 L 60.667 1.989 58.708 2.036 L 56.750 2.083 56.699 2.703 L 56.647 3.323 54.699 3.370 L 52.750 3.417 52.698 4.042 L 52.647 4.667 51.115 4.669 C 49.079 4.672,48.866 4.741,48.736 5.435 L 48.630 6.000 47.515 6.000 C 46.281 6.000,46.000 6.161,46.000 6.867 C 46.000 7.332,45.997 7.333,44.867 7.333 C 43.613 7.333,43.333 7.491,43.333 8.200 C 43.333 8.665,43.330 8.667,42.200 8.667 C 40.951 8.667,40.667 8.825,40.667 9.523 C 40.667 9.931,40.599 9.985,40.042 10.032 C 39.452 10.080,39.414 10.118,39.365 10.701 L 39.314 11.320 38.032 11.368 L 36.750 11.417 36.700 12.019 L 36.649 12.621 35.633 12.727 C 34.486 12.847,34.167 13.036,34.167 13.594 C 34.167 13.930,34.073 13.988,33.458 14.032 C 32.773 14.082,32.748 14.103,32.699 14.699 C 32.651 15.277,32.610 15.317,32.032 15.366 C 31.452 15.414,31.414 15.453,31.365 16.042 C 31.315 16.649,31.295 16.667,30.657 16.667 C 30.002 16.667,30.000 16.668,30.000 17.333 L 30.000 18.000 28.867 18.000 C 27.617 18.000,27.333 18.159,27.333 18.857 C 27.333 19.264,27.266 19.319,26.708 19.365 C 26.119 19.414,26.080 19.452,26.032 20.032 C 25.984 20.610,25.944 20.651,25.366 20.699 C 24.787 20.747,24.747 20.787,24.699 21.366 C 24.651 21.944,24.610 21.984,24.032 22.032 C 23.454 22.080,23.414 22.121,23.366 22.699 C 23.317 23.277,23.277 23.317,22.699 23.366 C 22.121 23.414,22.080 23.454,22.032 24.032 C 21.984 24.610,21.944 24.651,21.366 24.699 C 20.787 24.747,20.747 24.787,20.699 25.366 C 20.651 25.944,20.610 25.984,20.032 26.032 C 19.452 26.080,19.414 26.119,19.365 26.708 C 19.319 27.266,19.264 27.333,18.857 27.333 C 18.256 27.333,18.000 27.613,18.000 28.271 C 18.000 28.677,17.838 28.966,17.333 29.461 C 16.796 29.988,16.667 30.233,16.667 30.724 C 16.667 31.324,16.656 31.333,16.000 31.333 C 15.335 31.333,15.333 31.335,15.333 31.990 C 15.333 32.628,15.316 32.648,14.708 32.698 C 14.105 32.748,14.082 32.774,14.033 33.439 C 13.988 34.050,13.928 34.139,13.501 34.225 C 12.980 34.329,12.669 35.033,12.668 36.115 C 12.667 36.609,12.622 36.650,12.042 36.698 L 11.417 36.750 11.368 38.042 L 11.319 39.333 10.660 39.333 C 10.001 39.333,10.000 39.335,10.000 40.000 C 10.000 40.595,9.956 40.667,9.595 40.667 C 8.905 40.667,8.667 41.077,8.667 42.262 C 8.667 43.324,8.663 43.333,8.200 43.333 C 7.491 43.333,7.333 43.613,7.333 44.867 C 7.333 45.997,7.332 46.000,6.867 46.000 C 6.160 46.000,6.000 46.280,6.000 47.520 C 6.000 48.634,5.997 48.641,5.490 48.752 C 4.817 48.900,4.667 49.341,4.667 51.167 L 4.667 52.647 4.042 52.698 L 3.417 52.750 3.369 54.105 C 3.321 55.454,3.318 55.461,2.836 55.558 C 2.184 55.688,2.002 56.391,2.001 58.792 C 2.000 60.666,2.000 60.667,1.595 60.667 C 0.735 60.667,0.667 60.930,0.667 64.262 C 0.667 67.222,0.655 67.333,0.333 67.333 C 0.003 67.333,0.000 67.444,0.000 82.000 C 0.000 96.556,0.003 96.667,0.333 96.667 C 0.654 96.667,0.667 96.779,0.669 99.542 C 0.672 103.012,0.695 103.126,1.435 103.264 L 2.000 103.370 2.001 105.144 C 2.002 107.392,2.197 108.144,2.840 108.387 C 3.309 108.564,3.322 108.602,3.369 109.909 L 3.417 111.250 4.042 111.302 L 4.667 111.353 4.683 112.802 C 4.705 114.731,4.803 115.033,5.464 115.204 L 6.000 115.343 6.000 116.471 C 6.000 117.720,6.159 118.000,6.867 118.000 C 7.332 118.000,7.333 118.003,7.333 119.133 C 7.333 120.387,7.491 120.667,8.200 120.667 C 8.652 120.667,8.667 120.695,8.669 121.542 C 8.672 122.878,8.789 123.143,9.426 123.263 C 9.922 123.356,9.987 123.432,10.033 123.975 C 10.080 124.546,10.122 124.587,10.701 124.635 L 11.320 124.686 11.368 125.968 L 11.417 127.250 12.042 127.302 C 12.627 127.350,12.667 127.389,12.667 127.901 C 12.667 128.635,13.112 129.488,13.591 129.670 C 13.902 129.788,13.990 129.962,14.032 130.534 C 14.082 131.228,14.102 131.252,14.699 131.301 C 15.277 131.349,15.317 131.390,15.366 131.968 C 15.414 132.548,15.453 132.586,16.042 132.635 C 16.649 132.685,16.667 132.705,16.667 133.343 C 16.667 133.998,16.668 134.000,17.333 134.000 L 18.000 134.000 18.000 135.071 C 18.000 136.252,18.239 136.667,18.919 136.667 C 19.254 136.667,19.321 136.760,19.365 137.292 C 19.414 137.881,19.452 137.920,20.032 137.968 C 20.610 138.016,20.651 138.056,20.699 138.634 C 20.747 139.213,20.787 139.253,21.366 139.301 C 21.944 139.349,21.984 139.390,22.032 139.968 C 22.080 140.546,22.121 140.586,22.699 140.634 C 23.277 140.683,23.317 140.723,23.366 141.301 C 23.414 141.879,23.454 141.920,24.032 141.968 C 24.610 142.016,24.651 142.056,24.699 142.634 C 24.747 143.213,24.787 143.253,25.366 143.301 C 25.944 143.349,25.984 143.390,26.032 143.968 C 26.080 144.548,26.119 144.586,26.708 144.635 C 27.240 144.679,27.333 144.746,27.333 145.081 C 27.333 145.761,27.748 146.000,28.929 146.000 L 30.000 146.000 30.000 146.667 C 30.000 147.332,30.002 147.333,30.657 147.333 C 31.295 147.333,31.315 147.351,31.365 147.958 C 31.414 148.547,31.452 148.586,32.032 148.634 C 32.610 148.683,32.651 148.723,32.699 149.301 C 32.748 149.896,32.773 149.918,33.455 149.968 C 34.020 150.009,34.287 150.149,34.804 150.676 C 35.317 151.200,35.570 151.333,36.047 151.333 C 36.619 151.333,36.649 151.362,36.698 151.958 L 36.750 152.583 38.032 152.632 L 39.314 152.680 39.365 153.299 C 39.414 153.882,39.452 153.920,40.042 153.968 C 40.573 154.012,40.667 154.079,40.667 154.415 C 40.667 155.095,41.081 155.333,42.262 155.333 C 43.324 155.333,43.333 155.337,43.333 155.800 C 43.333 156.509,43.613 156.667,44.867 156.667 C 45.997 156.667,46.000 156.668,46.000 157.133 C 46.000 157.841,46.280 158.000,47.529 158.000 L 48.657 158.000 48.796 158.536 C 48.967 159.197,49.269 159.295,51.208 159.317 L 52.667 159.333 52.667 159.800 C 52.667 160.570,52.910 160.667,54.857 160.667 L 56.647 160.667 56.698 161.292 L 56.750 161.917 58.691 161.963 L 60.631 162.010 60.737 162.570 C 60.874 163.304,60.993 163.328,64.458 163.331 C 67.221 163.333,67.333 163.346,67.333 163.667 C 67.333 163.996,67.444 164.000,77.339 164.000 L 87.345 164.000 87.298 162.375 L 87.250 160.750 86.634 160.699 C 86.056 160.651,86.016 160.610,85.968 160.032 L 85.917 159.417 84.625 159.368 C 83.338 159.319,83.333 159.318,83.333 158.860 C 83.333 158.096,83.087 158.000,81.133 158.000 L 79.333 158.000 79.333 157.533 C 79.333 156.763,79.090 156.667,77.143 156.667 L 75.353 156.667 75.302 156.042 L 75.250 155.417 73.968 155.368 L 72.686 155.320 72.635 154.701 L 72.583 154.083 71.301 154.035 L 70.019 153.986 69.968 153.368 L 69.917 152.750 68.635 152.701 L 67.353 152.653 67.301 152.035 C 67.252 151.436,67.228 151.415,66.542 151.365 C 65.992 151.326,65.833 151.248,65.833 151.016 C 65.833 150.512,65.251 150.151,64.276 150.051 C 63.354 149.955,63.351 149.953,63.300 149.353 L 63.250 148.750 61.958 148.701 L 60.667 148.653 60.667 147.993 C 60.667 147.336,60.664 147.333,60.010 147.333 C 59.372 147.333,59.352 147.316,59.302 146.708 C 59.253 146.117,59.216 146.081,58.625 146.032 C 58.093 145.988,58.000 145.921,58.000 145.585 C 58.000 144.905,57.585 144.667,56.405 144.667 L 55.333 144.667 55.333 144.000 L 55.333 143.333 54.667 143.333 L 54.000 143.333 54.000 142.667 C 54.000 142.002,53.998 142.000,53.343 142.000 C 52.705 142.000,52.685 141.983,52.635 141.375 C 52.586 140.786,52.548 140.747,51.968 140.699 C 51.390 140.651,51.349 140.610,51.301 140.032 C 51.253 139.454,51.213 139.414,50.634 139.366 C 50.056 139.317,50.016 139.277,49.968 138.699 C 49.920 138.121,49.879 138.080,49.301 138.032 C 48.723 137.984,48.683 137.944,48.634 137.366 C 48.586 136.787,48.546 136.747,47.968 136.699 C 47.390 136.651,47.349 136.610,47.301 136.032 C 47.253 135.452,47.214 135.414,46.625 135.365 C 46.017 135.315,46.000 135.295,46.000 134.657 C 46.000 134.002,45.998 134.000,45.333 134.000 L 44.667 134.000 44.667 133.333 L 44.667 132.667 44.000 132.667 L 43.333 132.667 43.333 131.533 C 43.333 130.284,43.175 130.000,42.477 130.000 C 42.069 130.000,42.015 129.933,41.968 129.375 C 41.919 128.784,41.883 128.747,41.292 128.698 C 40.695 128.649,40.667 128.619,40.667 128.047 C 40.667 127.570,40.533 127.317,40.009 126.804 C 39.482 126.287,39.342 126.020,39.301 125.455 C 39.252 124.771,39.231 124.748,38.625 124.698 L 38.000 124.647 38.000 123.585 C 38.000 122.410,37.760 122.000,37.071 122.000 C 36.710 122.000,36.667 121.928,36.667 121.333 C 36.667 120.668,36.665 120.667,36.007 120.667 L 35.347 120.667 35.299 119.375 L 35.250 118.083 34.625 118.032 L 34.000 117.980 33.999 116.782 C 33.998 115.043,33.768 114.345,33.157 114.223 C 32.669 114.125,32.667 114.119,32.667 112.929 C 32.667 111.610,32.516 111.333,31.800 111.333 L 31.333 111.333 31.331 109.792 C 31.328 107.745,31.260 107.533,30.565 107.402 L 30.000 107.296 29.998 105.773 C 29.995 103.746,29.926 103.532,29.232 103.402 L 28.667 103.296 28.667 101.159 C 28.667 98.664,28.553 98.241,27.843 98.086 L 27.333 97.974 27.317 93.862 C 27.298 89.129,27.276 88.988,26.534 88.796 L 25.996 88.656 26.040 81.955 L 26.083 75.253 26.582 75.167 C 27.261 75.049,27.290 74.842,27.314 70.055 L 27.333 66.026 27.843 65.914 C 28.553 65.759,28.667 65.336,28.667 62.841 L 28.667 60.704 29.232 60.598 C 29.926 60.468,29.995 60.254,29.998 58.222 L 30.000 56.693 30.510 56.581 C 31.184 56.433,31.333 55.993,31.333 54.156 C 31.333 52.690,31.340 52.667,31.738 52.667 C 32.443 52.667,32.667 52.262,32.667 50.984 C 32.667 49.915,32.698 49.813,33.066 49.673 C 33.685 49.438,34.000 48.616,34.000 47.234 L 34.000 46.020 34.625 45.968 L 35.250 45.917 35.299 44.635 L 35.347 43.353 35.965 43.301 C 36.548 43.253,36.586 43.215,36.635 42.625 C 36.679 42.093,36.746 42.000,37.081 42.000 C 37.759 42.000,38.000 41.585,38.000 40.415 L 38.000 39.353 38.625 39.302 L 39.250 39.250 39.299 37.958 L 39.347 36.667 40.007 36.667 C 40.664 36.667,40.667 36.664,40.667 36.010 C 40.667 35.372,40.684 35.352,41.292 35.302 C 41.883 35.253,41.919 35.216,41.968 34.625 C 42.015 34.067,42.069 34.000,42.477 34.000 C 43.175 34.000,43.333 33.716,43.333 32.467 L 43.333 31.333 44.000 31.333 C 44.665 31.333,44.667 31.332,44.667 30.677 C 44.667 30.038,44.684 30.019,45.292 29.968 C 45.881 29.920,45.920 29.881,45.968 29.301 C 46.016 28.723,46.056 28.683,46.634 28.634 C 47.213 28.586,47.253 28.546,47.301 27.968 C 47.349 27.390,47.390 27.349,47.968 27.301 C 48.546 27.253,48.586 27.213,48.634 26.634 C 48.683 26.056,48.723 26.016,49.301 25.968 C 49.879 25.920,49.920 25.879,49.968 25.301 C 50.016 24.723,50.056 24.683,50.634 24.634 C 51.213 24.586,51.253 24.546,51.301 23.968 C 51.349 23.390,51.390 23.349,51.968 23.301 C 52.546 23.253,52.586 23.213,52.634 22.634 C 52.683 22.056,52.723 22.016,53.301 21.968 C 53.881 21.920,53.920 21.881,53.968 21.292 C 54.019 20.684,54.038 20.667,54.677 20.667 C 55.328 20.667,55.333 20.661,55.333 20.024 L 55.333 19.381 56.358 19.274 C 57.513 19.153,57.833 18.965,57.833 18.406 C 57.833 18.070,57.927 18.012,58.542 17.968 C 59.227 17.918,59.252 17.897,59.301 17.301 C 59.349 16.723,59.390 16.683,59.968 16.634 C 60.548 16.586,60.586 16.547,60.635 15.958 L 60.687 15.333 61.810 15.333 C 63.049 15.333,63.333 15.173,63.333 14.477 C 63.333 14.069,63.401 14.015,63.958 13.968 C 64.548 13.920,64.586 13.882,64.635 13.299 L 64.686 12.680 65.968 12.632 L 67.250 12.583 67.301 11.965 L 67.353 11.347 68.635 11.299 L 69.917 11.250 69.968 10.632 L 70.019 10.014 71.301 9.965 L 72.583 9.917 72.635 9.299 L 72.686 8.680 73.968 8.632 L 75.250 8.583 75.302 7.958 L 75.353 7.333 76.885 7.331 C 78.921 7.328,79.134 7.259,79.264 6.565 L 79.370 6.000 80.841 6.000 C 82.654 6.000,83.100 5.848,83.246 5.183 C 83.356 4.683,83.363 4.680,84.637 4.632 L 85.917 4.583 85.968 3.968 C 86.016 3.390,86.056 3.349,86.634 3.301 L 87.250 3.250 87.298 1.625 L 87.345 -0.000 77.339 -0.000 C 67.444 -0.000,67.333 0.004,67.333 0.333 M86.464 11.445 C 86.296 11.490,86.133 11.758,86.071 12.090 L 85.964 12.658 83.357 12.704 L 80.750 12.750 80.698 13.375 L 80.647 14.000 78.747 14.000 L 76.847 14.000 76.153 14.660 C 75.475 15.306,75.429 15.322,74.105 15.369 L 72.750 15.417 72.699 16.035 L 72.647 16.653 71.365 16.701 L 70.083 16.750 70.032 17.368 L 69.981 17.986 68.699 18.035 L 67.417 18.083 67.365 18.701 L 67.314 19.320 66.032 19.368 L 64.750 19.417 64.698 20.042 L 64.647 20.667 63.523 20.667 C 62.284 20.667,62.000 20.827,62.000 21.523 C 62.000 21.931,61.933 21.985,61.375 22.032 C 60.784 22.081,60.747 22.117,60.698 22.708 L 60.647 23.333 59.834 23.333 C 58.684 23.333,58.219 23.550,58.088 24.147 C 57.993 24.580,57.894 24.655,57.364 24.699 C 56.787 24.747,56.747 24.788,56.699 25.366 C 56.651 25.944,56.610 25.984,56.032 26.032 C 55.452 26.080,55.414 26.119,55.365 26.708 C 55.315 27.316,55.295 27.333,54.657 27.333 C 54.002 27.333,54.000 27.335,54.000 28.000 L 54.000 28.667 53.333 28.667 L 52.667 28.667 52.667 29.333 L 52.667 30.000 52.000 30.000 L 51.333 30.000 51.333 30.667 L 51.333 31.333 50.667 31.333 L 50.000 31.333 50.000 32.000 L 50.000 32.667 49.333 32.667 C 48.668 32.667,48.667 32.668,48.667 33.323 C 48.667 33.962,48.649 33.981,48.042 34.032 C 47.453 34.080,47.414 34.119,47.366 34.699 C 47.317 35.277,47.277 35.317,46.699 35.366 C 46.121 35.414,46.080 35.454,46.032 36.030 C 45.988 36.561,45.913 36.659,45.481 36.754 C 44.883 36.885,44.667 37.350,44.667 38.501 L 44.667 39.313 44.042 39.365 C 43.451 39.414,43.414 39.451,43.365 40.042 C 43.319 40.599,43.264 40.667,42.857 40.667 C 42.160 40.667,42.000 40.951,42.000 42.190 L 42.000 43.313 41.375 43.365 L 40.750 43.417 40.701 44.699 L 40.653 45.981 40.035 46.032 C 39.436 46.082,39.415 46.106,39.365 46.792 C 39.326 47.342,39.248 47.500,39.016 47.500 C 38.364 47.500,38.102 48.099,38.029 49.751 L 37.961 51.316 37.356 51.366 L 36.750 51.417 36.701 52.708 C 36.655 53.945,36.636 54.000,36.255 54.000 C 35.485 54.000,35.333 54.372,35.333 56.262 C 35.333 57.991,35.331 58.000,34.929 58.000 C 34.102 58.000,34.000 58.319,34.000 60.915 L 34.000 63.307 33.490 63.419 C 32.663 63.600,32.667 63.543,32.669 77.386 C 32.671 91.768,32.635 91.114,33.435 91.264 L 34.000 91.370 34.000 93.819 C 34.000 96.465,34.061 96.667,34.867 96.667 L 35.333 96.667 35.333 98.467 C 35.333 100.421,35.430 100.667,36.193 100.667 C 36.651 100.667,36.653 100.671,36.701 101.958 L 36.750 103.250 37.366 103.301 C 37.944 103.349,37.984 103.390,38.032 103.968 L 38.083 104.583 39.809 104.631 C 42.257 104.699,42.000 105.964,42.000 93.826 L 42.000 83.360 42.510 83.248 C 43.245 83.086,43.333 82.683,43.333 79.499 L 43.333 76.687 43.958 76.635 L 44.583 76.583 44.630 74.635 L 44.677 72.686 45.297 72.635 L 45.917 72.583 45.965 71.309 L 46.013 70.035 46.572 69.930 C 47.259 69.801,47.328 69.583,47.331 67.552 L 47.333 66.020 47.958 65.968 C 48.562 65.918,48.585 65.893,48.634 65.227 C 48.678 64.617,48.739 64.527,49.166 64.442 C 49.689 64.337,49.997 63.633,49.999 62.542 C 50.000 62.060,50.051 62.000,50.467 62.000 C 51.174 62.000,51.333 61.720,51.333 60.477 L 51.333 59.353 51.958 59.302 C 52.549 59.253,52.586 59.216,52.635 58.625 C 52.681 58.067,52.736 58.000,53.143 58.000 C 53.841 58.000,54.000 57.716,54.000 56.467 L 54.000 55.333 54.667 55.333 C 55.332 55.333,55.333 55.332,55.333 54.677 C 55.333 54.038,55.351 54.019,55.958 53.968 C 56.547 53.920,56.586 53.881,56.634 53.301 C 56.683 52.723,56.723 52.683,57.301 52.634 C 57.879 52.586,57.920 52.546,57.968 51.968 C 58.016 51.390,58.056 51.349,58.634 51.301 C 59.213 51.253,59.253 51.213,59.301 50.634 C 59.349 50.056,59.390 50.016,59.968 49.968 C 60.546 49.920,60.586 49.879,60.634 49.301 C 60.683 48.723,60.723 48.683,61.301 48.634 C 61.879 48.586,61.920 48.546,61.968 47.968 C 62.016 47.390,62.056 47.349,62.634 47.301 C 63.213 47.253,63.253 47.213,63.301 46.634 C 63.349 46.056,63.390 46.016,63.968 45.968 C 64.548 45.920,64.586 45.881,64.635 45.292 C 64.685 44.684,64.705 44.667,65.343 44.667 C 65.998 44.667,66.000 44.665,66.000 44.000 L 66.000 43.333 67.133 43.333 C 68.383 43.333,68.667 43.175,68.667 42.477 C 68.667 42.069,68.734 42.015,69.292 41.968 C 69.883 41.919,69.919 41.883,69.968 41.292 L 70.020 40.667 71.143 40.667 C 72.386 40.667,72.667 40.507,72.667 39.800 C 72.667 39.352,72.699 39.333,73.489 39.333 C 74.650 39.333,75.114 39.118,75.246 38.519 C 75.341 38.087,75.439 38.012,75.970 37.968 C 76.548 37.920,76.586 37.880,76.635 37.292 L 76.687 36.667 78.218 36.664 C 80.250 36.661,80.468 36.592,80.597 35.905 L 80.701 35.347 81.976 35.298 L 83.250 35.250 83.302 34.625 L 83.353 34.000 85.143 34.000 C 87.082 34.000,87.333 33.902,87.333 33.150 L 87.333 32.700 90.233 32.641 C 93.326 32.579,93.833 32.438,93.833 31.641 C 93.833 31.345,94.301 31.333,106.583 31.333 L 119.333 31.333 119.333 31.738 C 119.333 32.599,119.596 32.667,122.929 32.667 L 126.000 32.667 126.000 33.133 C 126.000 33.910,126.238 34.000,128.283 34.000 C 130.155 34.000,130.167 34.002,130.167 34.396 C 130.167 35.048,130.562 35.212,132.340 35.298 L 134.000 35.378 134.000 35.822 C 134.000 36.505,134.290 36.667,135.515 36.667 L 136.630 36.667 136.736 37.232 C 136.857 37.879,137.117 37.994,138.458 37.998 C 139.305 38.000,139.333 38.015,139.333 38.467 C 139.333 39.174,139.614 39.333,140.857 39.333 L 141.980 39.333 142.032 39.958 C 142.080 40.547,142.119 40.586,142.697 40.634 C 143.227 40.678,143.326 40.754,143.421 41.186 C 143.552 41.783,144.017 42.000,145.167 42.000 L 145.980 42.000 146.032 42.625 C 146.080 43.214,146.119 43.253,146.699 43.301 C 147.277 43.349,147.317 43.390,147.366 43.968 L 147.417 44.583 149.375 44.630 L 151.333 44.677 151.333 42.516 C 151.333 40.019,151.218 39.574,150.533 39.424 C 150.075 39.323,150.039 39.255,149.940 38.301 C 149.820 37.153,149.631 36.833,149.073 36.833 C 148.737 36.833,148.679 36.740,148.635 36.125 C 148.585 35.437,148.565 35.415,147.958 35.365 C 147.335 35.313,147.333 35.311,147.317 34.532 C 147.290 33.295,147.138 32.952,146.546 32.799 C 146.088 32.680,146.013 32.581,145.968 32.039 C 145.920 31.453,145.881 31.414,145.301 31.366 C 144.723 31.317,144.683 31.277,144.634 30.699 C 144.586 30.121,144.546 30.080,143.968 30.032 C 143.390 29.984,143.349 29.944,143.301 29.366 C 143.253 28.787,143.213 28.747,142.634 28.699 C 142.056 28.651,142.016 28.610,141.968 28.032 C 141.920 27.454,141.879 27.414,141.301 27.366 C 140.723 27.317,140.683 27.277,140.634 26.699 C 140.586 26.121,140.546 26.080,139.968 26.032 C 139.390 25.984,139.349 25.944,139.301 25.366 C 139.253 24.787,139.213 24.747,138.634 24.699 C 138.056 24.651,138.016 24.610,137.968 24.032 C 137.919 23.439,137.891 23.415,137.224 23.366 C 136.643 23.324,136.515 23.248,136.427 22.897 C 136.304 22.408,135.473 22.000,134.599 22.000 C 134.050 22.000,134.017 21.967,133.968 21.375 C 133.920 20.787,133.880 20.747,133.309 20.699 C 132.765 20.654,132.689 20.589,132.596 20.093 C 132.477 19.457,132.211 19.339,130.885 19.336 L 130.020 19.333 129.968 18.708 L 129.917 18.083 128.635 18.035 L 127.353 17.986 127.301 17.368 L 127.250 16.750 125.958 16.701 C 124.671 16.653,124.667 16.651,124.667 16.193 C 124.667 15.430,124.420 15.333,122.477 15.333 L 120.687 15.333 120.635 14.708 L 120.583 14.083 118.635 14.036 L 116.686 13.990 116.635 13.370 L 116.583 12.750 113.875 12.704 L 111.167 12.658 111.167 12.266 C 111.167 11.394,111.521 11.419,98.683 11.392 C 92.120 11.378,86.621 11.402,86.464 11.445 M102.032 38.150 C 101.153 38.260,100.841 38.490,100.836 39.031 C 100.834 39.286,100.384 39.316,95.775 39.364 C 90.352 39.420,90.167 39.450,90.167 40.270 L 90.167 40.667 87.928 40.667 C 85.350 40.667,84.909 40.778,84.757 41.468 L 84.650 41.956 82.998 42.036 C 81.229 42.121,80.833 42.286,80.833 42.937 C 80.833 43.318,80.787 43.333,79.617 43.333 C 78.279 43.333,78.000 43.481,78.000 44.193 C 78.000 44.651,77.995 44.653,76.708 44.701 L 75.417 44.750 75.365 45.375 L 75.313 46.000 74.190 46.000 C 72.951 46.000,72.667 46.160,72.667 46.857 C 72.667 47.264,72.599 47.319,72.042 47.365 C 71.452 47.414,71.414 47.452,71.365 48.035 L 71.314 48.653 70.032 48.701 L 68.750 48.750 68.698 49.375 C 68.648 49.983,68.628 50.000,67.990 50.000 C 67.335 50.000,67.333 50.002,67.333 50.667 L 67.333 51.333 66.200 51.333 C 64.677 51.333,64.666 51.350,64.669 53.742 C 64.672 56.285,64.720 56.464,65.435 56.598 C 66.509 56.799,67.140 56.562,67.262 55.910 L 67.370 55.333 68.606 55.333 C 69.734 55.333,69.854 55.301,69.985 54.958 C 70.284 54.177,70.665 54.016,72.339 53.965 L 73.917 53.917 73.968 53.292 L 74.020 52.667 76.218 52.664 C 78.965 52.662,79.129 52.620,79.264 51.898 L 79.370 51.333 82.423 51.333 C 85.735 51.333,86.000 51.265,86.000 50.405 L 86.000 50.000 95.981 50.000 L 105.963 50.000 106.069 50.565 C 106.210 51.317,106.274 51.328,110.458 51.331 L 114.000 51.333 114.000 51.738 C 114.000 52.566,114.318 52.667,116.929 52.667 L 119.333 52.667 119.333 53.071 C 119.333 53.847,119.703 54.000,121.577 54.000 L 123.296 54.000 123.402 54.565 C 123.533 55.260,123.745 55.328,125.792 55.331 L 127.333 55.333 127.333 55.800 C 127.333 56.516,127.610 56.667,128.923 56.667 C 130.083 56.667,130.130 56.683,130.813 57.333 C 131.501 57.988,131.536 58.000,132.747 58.000 L 133.980 58.000 134.032 58.625 L 134.083 59.250 135.365 59.299 L 136.647 59.347 136.699 59.965 L 136.750 60.583 138.032 60.632 L 139.314 60.680 139.365 61.299 C 139.415 61.897,139.439 61.918,140.125 61.968 C 140.740 62.012,140.833 62.070,140.833 62.406 C 140.833 62.964,141.153 63.153,142.300 63.273 L 143.316 63.379 143.366 63.981 L 143.417 64.583 144.708 64.632 L 146.000 64.681 146.000 65.340 C 146.000 65.999,146.001 66.000,146.667 66.000 C 147.261 66.000,147.333 66.044,147.333 66.405 C 147.333 67.189,147.739 67.370,149.353 67.307 C 151.112 67.238,151.214 67.158,151.303 65.753 C 151.413 64.024,151.263 63.533,150.586 63.406 C 150.076 63.311,150.013 63.237,149.967 62.691 C 149.920 62.120,149.879 62.080,149.292 62.032 C 148.681 61.981,148.666 61.964,148.647 61.282 C 148.610 59.956,148.461 59.594,147.915 59.500 C 147.478 59.425,147.406 59.333,147.333 58.749 C 147.255 58.120,147.216 58.081,146.634 58.032 C 146.056 57.984,146.016 57.944,145.968 57.366 C 145.920 56.787,145.879 56.747,145.301 56.699 C 144.723 56.651,144.683 56.610,144.634 56.032 C 144.586 55.454,144.546 55.414,143.968 55.366 C 143.390 55.317,143.349 55.277,143.301 54.699 C 143.253 54.121,143.213 54.080,142.634 54.032 C 142.056 53.984,142.016 53.944,141.968 53.366 C 141.920 52.787,141.879 52.747,141.301 52.699 C 140.723 52.651,140.683 52.610,140.634 52.032 C 140.586 51.454,140.546 51.414,139.968 51.366 C 139.390 51.317,139.349 51.277,139.301 50.699 L 139.250 50.083 138.333 50.032 C 137.347 49.976,136.667 49.543,136.667 48.971 C 136.667 48.728,136.535 48.667,136.010 48.667 C 135.372 48.667,135.352 48.649,135.302 48.042 C 135.253 47.451,135.216 47.414,134.627 47.365 C 134.085 47.320,133.987 47.245,133.868 46.787 C 133.714 46.194,133.372 46.043,132.125 46.017 C 131.373 46.001,131.333 45.977,131.333 45.533 C 131.333 44.825,131.054 44.667,129.800 44.667 C 128.670 44.667,128.667 44.665,128.667 44.200 C 128.667 43.484,128.390 43.333,127.071 43.333 C 125.881 43.333,125.875 43.331,125.777 42.843 C 125.655 42.232,124.957 42.002,123.222 42.001 L 122.026 42.000 121.914 41.490 C 121.758 40.776,121.337 40.667,118.760 40.667 L 116.542 40.667 116.444 40.176 C 116.293 39.423,115.675 39.335,110.479 39.334 L 105.875 39.333 105.778 38.847 C 105.724 38.579,105.546 38.323,105.382 38.277 C 104.793 38.112,102.900 38.041,102.032 38.150 " stroke="none" fill="#049bcc" fill-rule="evenodd"></path></g></svg>