<svg id="svg" version="1.1" xmlns="http://www.w3.org/2000/svg" xmlns:xlink="http://www.w3.org/1999/xlink" width="400" height="240" viewBox="0, 0, 400,240"><g id="svgg"><path id="path0" d="M364.675 148.003 L 364.139 148.619 359.561 148.637 C 353.837 148.659,352.848 148.788,352.744 149.520 C 352.670 150.043,352.583 150.060,349.983 150.063 C 346.767 150.067,346.303 150.170,346.114 150.923 C 345.976 151.473,345.877 151.501,344.053 151.501 C 342.178 151.501,342.137 151.513,342.137 152.091 C 342.137 152.665,342.081 152.684,340.156 152.751 C 338.193 152.820,338.175 152.827,338.099 153.481 C 338.027 154.111,337.963 154.142,336.719 154.142 C 335.487 154.142,335.414 154.175,335.414 154.742 C 335.414 155.301,335.333 155.342,334.229 155.342 C 332.738 155.342,331.802 155.691,331.641 156.305 C 331.555 156.637,331.313 156.783,330.850 156.783 C 330.340 156.783,330.149 156.923,330.033 157.383 C 329.902 157.906,329.751 157.983,328.855 157.983 C 327.753 157.983,327.251 158.299,327.251 158.992 C 327.251 159.284,327.070 159.424,326.694 159.424 C 326.388 159.424,325.774 159.748,325.330 160.144 C 324.886 160.540,324.273 160.864,323.966 160.864 C 323.451 160.864,323.409 160.964,323.409 162.185 C 323.409 163.496,323.404 163.505,322.679 163.505 L 321.949 163.505 322.019 165.366 C 322.087 167.187,322.103 167.228,322.735 167.301 C 323.234 167.359,323.397 167.523,323.455 168.022 L 323.529 168.667 327.491 168.736 C 332.079 168.815,332.427 168.762,332.631 167.949 L 332.782 167.347 339.365 167.347 C 345.938 167.347,347.179 167.214,347.179 166.513 C 347.179 166.190,348.389 166.146,357.284 166.146 L 367.390 166.146 367.827 166.687 C 368.229 167.183,368.497 167.233,371.153 167.307 L 374.042 167.387 374.116 168.027 C 374.184 168.618,374.286 168.673,375.438 168.740 L 376.686 168.812 376.759 170.060 C 376.821 171.146,376.901 171.319,377.371 171.385 C 378.261 171.512,378.208 179.247,377.311 180.215 C 376.747 180.823,376.711 181.021,376.711 183.468 C 376.711 185.925,376.683 186.074,376.225 186.074 C 375.533 186.074,375.270 186.967,375.270 189.315 C 375.270 191.215,375.241 191.327,374.730 191.400 C 374.227 191.471,374.185 191.611,374.120 193.442 C 374.052 195.381,374.042 195.409,373.400 195.483 C 372.757 195.557,372.748 195.584,372.679 197.539 C 372.612 199.464,372.593 199.520,372.019 199.520 C 371.441 199.520,371.429 199.561,371.429 201.425 C 371.429 203.324,371.427 203.330,370.768 203.405 C 370.114 203.481,370.107 203.499,370.038 205.462 C 369.971 207.387,369.952 207.443,369.378 207.443 C 368.823 207.443,368.788 207.522,368.788 208.748 C 368.788 209.992,368.757 210.056,368.127 210.128 C 367.473 210.203,367.466 210.222,367.397 212.185 C 367.330 214.085,367.304 214.166,366.763 214.166 C 366.108 214.166,365.906 214.562,365.906 215.849 C 365.906 216.625,365.820 216.786,365.366 216.850 C 364.782 216.933,364.403 222.220,364.924 223.028 C 365.518 223.949,372.293 223.635,372.534 222.675 C 372.639 222.256,372.847 222.089,373.261 222.089 C 373.714 222.089,373.873 221.930,373.986 221.369 C 374.097 220.811,374.258 220.648,374.700 220.648 C 375.144 220.648,375.270 220.519,375.270 220.064 C 375.270 219.605,375.412 219.463,375.930 219.404 C 376.449 219.344,376.607 219.186,376.667 218.667 C 376.726 218.149,376.868 218.007,377.327 218.007 C 377.786 218.007,377.911 217.882,377.911 217.423 C 377.911 216.964,378.053 216.822,378.571 216.763 C 379.086 216.703,379.248 216.544,379.306 216.041 C 379.358 215.589,379.538 215.373,379.906 215.321 C 380.360 215.256,380.442 215.073,380.505 213.986 C 380.575 212.766,380.601 212.725,381.285 212.725 C 381.875 212.725,381.993 212.628,381.993 212.141 C 381.993 211.682,382.134 211.540,382.653 211.481 C 383.165 211.422,383.330 211.261,383.387 210.767 C 383.439 210.323,383.639 210.084,384.047 209.982 C 384.570 209.851,384.634 209.706,384.634 208.655 C 384.634 207.546,384.674 207.470,385.294 207.399 C 385.884 207.331,385.967 207.207,386.074 206.242 C 386.166 205.418,386.322 205.106,386.735 204.925 C 387.107 204.762,387.275 204.482,387.275 204.025 C 387.275 203.485,387.382 203.361,387.849 203.361 C 388.514 203.361,388.715 202.969,388.715 201.678 C 388.715 200.902,388.802 200.741,389.256 200.677 C 389.726 200.610,389.805 200.438,389.868 199.340 C 389.934 198.199,389.994 198.079,390.503 198.079 C 391.222 198.079,391.357 197.697,391.357 195.659 C 391.357 194.047,391.374 193.998,391.957 193.998 C 392.523 193.998,392.557 193.925,392.557 192.693 C 392.557 191.448,392.587 191.385,393.217 191.312 C 393.867 191.238,393.879 191.207,393.948 189.376 C 394.000 187.983,394.102 187.515,394.351 187.515 C 395.109 187.515,395.438 186.788,395.438 185.114 C 395.438 183.589,395.478 183.461,395.978 183.390 C 396.495 183.317,396.522 183.202,396.587 180.735 C 396.652 178.252,396.676 178.151,397.221 178.014 C 397.938 177.834,398.079 177.163,398.079 173.936 C 398.079 171.553,398.099 171.459,398.619 171.385 L 399.160 171.309 399.223 163.472 L 399.286 155.636 398.683 155.484 C 398.241 155.374,398.079 155.173,398.079 154.737 C 398.079 154.236,397.966 154.142,397.359 154.142 C 396.719 154.142,396.639 154.062,396.639 153.421 C 396.639 152.822,396.542 152.701,396.064 152.701 C 395.652 152.701,395.448 152.532,395.340 152.101 C 395.202 151.552,395.076 151.501,393.873 151.501 C 392.645 151.501,392.557 151.462,392.557 150.926 C 392.557 150.163,392.201 150.060,389.553 150.060 C 387.408 150.060,387.305 150.036,387.232 149.520 C 387.131 148.811,386.061 148.668,380.642 148.640 C 376.654 148.620,376.518 148.603,376.171 148.079 C 375.820 147.550,375.702 147.537,370.512 147.462 L 365.212 147.386 364.675 148.003 M3.661 155.501 C 3.496 155.568,3.361 155.883,3.361 156.202 C 3.361 156.687,3.243 156.783,2.641 156.783 C 2.038 156.783,1.921 156.878,1.921 157.366 C 1.921 157.789,1.772 157.971,1.381 158.027 C 0.489 158.153,0.412 163.179,1.299 163.401 C 1.663 163.493,1.922 163.751,1.967 164.068 C 2.018 164.428,2.238 164.609,2.687 164.660 C 3.183 164.718,3.350 164.883,3.407 165.371 C 3.460 165.822,3.656 166.048,4.082 166.147 C 4.461 166.235,4.710 166.481,4.759 166.817 C 4.814 167.197,5.000 167.347,5.419 167.347 C 5.883 167.347,6.002 167.471,6.002 167.953 C 6.002 168.432,6.151 168.589,6.710 168.701 C 7.192 168.797,7.440 169.006,7.490 169.355 C 7.552 169.793,7.747 169.879,8.824 169.941 C 10.043 170.011,10.084 170.036,10.084 170.721 C 10.084 171.316,10.180 171.429,10.684 171.429 C 11.164 171.429,11.285 171.549,11.285 172.029 C 11.285 172.536,11.397 172.629,12.005 172.629 C 12.645 172.629,12.725 172.709,12.725 173.349 C 12.725 173.958,12.818 174.070,13.325 174.070 C 13.774 174.070,13.926 174.196,13.926 174.571 C 13.926 174.907,14.162 175.161,14.646 175.344 C 15.042 175.493,15.366 175.692,15.366 175.786 C 15.366 176.245,16.213 176.711,17.048 176.711 C 17.881 176.711,17.983 176.778,18.051 177.371 C 18.111 177.890,18.269 178.048,18.788 178.107 C 19.306 178.167,19.448 178.309,19.448 178.767 C 19.448 179.231,19.572 179.352,20.048 179.352 C 20.521 179.352,20.648 179.474,20.648 179.926 C 20.648 180.593,21.040 180.792,22.349 180.792 C 23.192 180.792,23.289 180.854,23.289 181.393 C 23.289 181.899,23.401 181.993,24.010 181.993 C 24.650 181.993,24.730 182.073,24.730 182.713 C 24.730 183.313,24.826 183.433,25.304 183.433 C 25.716 183.433,25.921 183.603,26.029 184.034 C 26.164 184.572,26.301 184.634,27.360 184.634 C 28.468 184.634,28.544 184.674,28.616 185.294 C 28.675 185.813,28.833 185.971,29.352 186.030 C 29.869 186.090,30.012 186.232,30.012 186.686 C 30.012 187.121,30.177 187.304,30.672 187.420 C 31.035 187.505,31.501 187.785,31.706 188.042 C 31.920 188.309,32.505 188.566,33.074 188.642 C 33.927 188.756,34.078 188.865,34.141 189.406 C 34.193 189.853,34.374 190.059,34.767 190.114 C 35.087 190.160,35.413 190.438,35.541 190.775 C 35.730 191.270,35.921 191.357,36.833 191.357 C 37.822 191.357,37.909 191.407,37.979 192.017 C 38.038 192.526,38.199 192.694,38.683 192.750 C 39.072 192.795,39.412 193.046,39.578 193.410 C 39.804 193.905,40.014 193.998,40.915 193.998 C 41.904 193.998,41.991 194.048,42.061 194.658 C 42.132 195.274,42.222 195.323,43.397 195.391 C 44.555 195.457,44.658 195.511,44.658 196.051 C 44.658 196.541,44.775 196.639,45.362 196.639 C 45.952 196.639,46.079 196.746,46.143 197.299 C 46.213 197.914,46.305 197.964,47.464 198.031 C 48.618 198.098,48.715 198.151,48.785 198.752 C 48.851 199.327,48.981 199.413,49.940 199.520 C 50.757 199.611,51.077 199.769,51.253 200.169 C 51.387 200.475,51.741 200.728,52.093 200.769 C 52.504 200.817,52.725 201.008,52.775 201.356 C 52.854 201.911,53.428 202.152,54.682 202.158 C 55.353 202.160,55.462 202.245,55.462 202.761 C 55.462 203.329,55.534 203.361,56.783 203.361 C 58.090 203.361,58.103 203.369,58.103 204.082 C 58.103 204.795,58.117 204.802,59.424 204.802 C 60.672 204.802,60.744 204.835,60.744 205.402 C 60.744 205.938,60.843 206.002,61.667 206.002 C 62.580 206.002,63.385 206.546,63.385 207.162 C 63.385 207.316,63.709 207.443,64.106 207.443 C 64.502 207.443,64.826 207.543,64.826 207.666 C 64.826 208.178,65.634 208.643,66.524 208.643 C 67.301 208.643,67.467 208.726,67.467 209.115 C 67.467 209.709,68.151 210.084,69.236 210.084 C 69.862 210.084,70.114 210.205,70.226 210.559 C 70.379 211.040,71.471 211.463,72.869 211.583 C 73.350 211.624,73.668 211.825,73.826 212.185 C 74.028 212.645,74.248 212.725,75.311 212.725 C 76.494 212.725,76.563 212.760,76.635 213.385 C 76.706 214.001,76.796 214.051,77.970 214.118 C 79.077 214.182,79.247 214.261,79.376 214.778 C 79.510 215.311,79.645 215.366,80.818 215.366 C 82.024 215.366,82.113 215.406,82.113 215.941 C 82.113 216.621,82.503 216.807,83.933 216.807 C 84.724 216.807,84.994 216.900,84.994 217.173 C 84.994 217.665,85.974 218.007,87.381 218.007 C 88.472 218.007,88.543 218.047,88.679 218.727 C 88.818 219.419,88.875 219.448,90.093 219.448 C 91.179 219.448,91.397 219.526,91.600 219.988 C 91.809 220.465,92.038 220.536,93.562 220.598 C 95.240 220.667,95.290 220.687,95.363 221.319 C 95.437 221.960,95.464 221.970,97.419 222.039 C 99.319 222.105,99.400 222.131,99.400 222.673 C 99.400 223.385,99.784 223.529,101.674 223.529 C 103.090 223.529,103.199 223.569,103.340 224.130 C 103.485 224.707,103.563 224.730,105.407 224.730 C 107.268 224.730,107.323 224.746,107.323 225.304 C 107.323 226.036,107.698 226.170,109.744 226.170 C 111.348 226.170,111.405 226.191,111.405 226.761 C 111.405 227.335,111.461 227.354,113.375 227.421 C 115.255 227.488,115.352 227.519,115.486 228.091 C 115.622 228.671,115.702 228.694,117.827 228.760 C 119.838 228.823,120.067 228.880,120.492 229.421 C 120.918 229.962,121.121 230.012,122.904 230.012 C 124.792 230.012,124.850 230.029,124.850 230.582 C 124.850 231.281,125.516 231.453,128.225 231.453 C 129.985 231.453,130.103 231.485,130.175 231.993 C 130.250 232.518,130.341 232.535,133.405 232.600 L 136.557 232.667 136.700 233.380 L 136.843 234.094 140.090 234.094 L 143.337 234.094 143.337 234.666 C 143.337 235.425,143.795 235.527,147.239 235.531 C 149.555 235.534,150.060 235.597,150.060 235.886 C 150.060 236.580,150.995 236.735,155.190 236.735 C 159.360 236.735,159.391 236.739,159.467 237.273 C 159.576 238.035,160.187 238.114,166.190 238.147 L 171.395 238.175 171.472 238.715 L 171.549 239.256 198.703 239.317 L 225.858 239.378 226.507 238.777 C 227.151 238.180,227.189 238.175,231.645 238.173 C 237.222 238.169,237.935 238.071,237.935 237.309 L 237.935 236.745 242.437 236.680 C 246.846 236.616,246.944 236.603,247.176 236.074 C 247.402 235.560,247.542 235.534,250.177 235.531 C 253.562 235.527,254.022 235.424,254.022 234.666 L 254.022 234.094 257.269 234.094 L 260.516 234.094 260.659 233.380 L 260.802 232.667 263.954 232.600 C 267.018 232.535,267.109 232.518,267.184 231.993 C 267.258 231.472,267.350 231.453,269.777 231.453 L 272.294 231.453 272.545 230.732 L 272.796 230.012 275.289 230.012 C 277.748 230.012,277.784 230.004,277.933 229.412 C 278.076 228.841,278.168 228.812,279.810 228.812 C 281.588 228.812,282.113 228.584,282.113 227.812 C 282.113 227.439,282.408 227.380,284.574 227.319 C 286.919 227.254,287.038 227.226,287.112 226.711 C 287.182 226.217,287.317 226.170,288.672 226.167 C 290.731 226.163,291.236 225.994,291.236 225.312 C 291.236 224.773,291.320 224.746,293.217 224.680 C 295.064 224.615,295.203 224.573,295.275 224.070 C 295.344 223.582,295.485 223.529,296.715 223.526 C 298.570 223.522,299.094 223.345,299.264 222.666 C 299.392 222.154,299.543 222.089,300.589 222.089 C 302.076 222.089,303.012 221.740,303.172 221.126 C 303.278 220.724,303.502 220.648,304.590 220.648 C 305.808 220.648,305.882 220.614,305.882 220.048 C 305.882 219.466,305.932 219.448,307.543 219.448 C 309.589 219.448,309.964 219.314,309.964 218.582 C 309.964 218.045,310.052 218.007,311.285 218.007 C 312.533 218.007,312.605 217.974,312.605 217.407 C 312.605 216.846,312.687 216.805,313.866 216.783 C 315.647 216.749,316.313 216.519,316.402 215.908 C 316.467 215.456,316.653 215.380,317.842 215.318 C 319.050 215.254,319.217 215.184,319.284 214.706 C 319.349 214.253,319.510 214.166,320.285 214.166 C 321.577 214.166,321.969 213.964,321.969 213.300 C 321.969 212.763,322.057 212.725,323.289 212.725 C 324.530 212.725,324.610 212.690,324.610 212.137 C 324.610 211.598,324.713 211.544,325.870 211.477 C 327.046 211.409,327.136 211.360,327.207 210.744 C 327.279 210.114,327.343 210.084,328.587 210.084 C 329.872 210.084,329.892 210.073,329.892 209.376 C 329.892 208.682,329.920 208.666,331.273 208.595 C 332.486 208.532,332.662 208.459,332.728 207.995 C 332.793 207.540,332.975 207.457,334.049 207.395 C 335.202 207.328,335.300 207.275,335.369 206.675 C 335.438 206.074,335.536 206.021,336.689 205.954 C 337.772 205.892,337.945 205.812,338.012 205.342 C 338.075 204.900,338.240 204.802,338.928 204.802 C 340.012 204.802,340.696 204.427,340.696 203.833 C 340.696 203.490,340.860 203.361,341.297 203.361 C 341.777 203.361,341.897 203.241,341.897 202.761 C 341.897 202.211,341.986 202.161,342.958 202.161 C 344.388 202.161,344.778 201.975,344.778 201.295 C 344.778 200.767,344.874 200.720,345.952 200.720 C 347.005 200.720,347.142 200.658,347.277 200.120 C 347.388 199.682,347.589 199.520,348.024 199.520 C 348.526 199.520,348.619 199.406,348.619 198.800 C 348.619 198.087,348.633 198.079,349.940 198.079 C 351.247 198.079,351.261 198.072,351.261 197.359 C 351.261 196.719,351.341 196.639,351.981 196.639 C 352.585 196.639,352.701 196.544,352.701 196.051 C 352.701 195.511,352.804 195.457,353.962 195.391 C 355.137 195.323,355.227 195.274,355.298 194.658 C 355.362 194.105,355.488 193.998,356.078 193.998 C 356.670 193.998,356.783 193.901,356.783 193.397 C 356.783 192.844,356.869 192.797,357.884 192.797 C 358.887 192.797,359.010 192.733,359.257 192.077 C 359.450 191.567,359.689 191.357,360.077 191.357 C 360.497 191.357,360.624 191.220,360.624 190.772 C 360.624 190.313,360.766 190.172,361.285 190.112 C 361.803 190.052,361.961 189.894,362.021 189.376 C 362.080 188.857,362.222 188.715,362.681 188.715 C 363.170 188.715,363.265 188.598,363.265 187.995 C 363.265 187.396,363.362 187.275,363.838 187.275 C 364.562 187.275,364.698 186.791,364.703 184.208 L 364.706 182.221 363.997 182.079 C 363.335 181.947,363.284 181.856,363.217 180.705 C 363.156 179.652,363.070 179.461,362.628 179.398 C 362.312 179.353,362.052 179.095,361.963 178.738 C 361.830 178.208,361.693 178.151,360.538 178.151 C 359.430 178.151,359.227 178.076,359.003 177.587 C 358.514 176.513,355.703 176.508,355.434 177.580 C 355.298 178.121,355.191 178.151,353.400 178.151 C 351.594 178.151,351.503 178.178,351.362 178.740 C 351.232 179.256,351.062 179.337,349.977 179.400 C 348.831 179.466,348.734 179.520,348.664 180.122 C 348.591 180.759,348.552 180.774,346.744 180.843 C 345.037 180.907,344.892 180.953,344.821 181.453 C 344.753 181.930,344.606 181.993,343.548 181.993 C 342.439 181.993,342.334 182.044,342.104 182.703 C 341.862 183.398,341.815 183.415,340.016 183.484 C 338.348 183.547,338.168 183.601,338.102 184.064 C 338.038 184.518,337.822 184.592,336.122 184.740 C 334.365 184.894,334.203 184.953,334.068 185.491 C 333.937 186.012,333.793 186.074,332.713 186.074 C 331.688 186.074,331.402 186.182,330.828 186.782 C 330.255 187.382,329.937 187.502,328.761 187.563 C 327.528 187.627,327.362 187.696,327.294 188.175 C 327.222 188.684,327.105 188.715,325.313 188.715 L 323.409 188.715 323.409 189.436 L 323.409 190.156 321.238 190.156 C 319.241 190.156,319.017 190.205,318.466 190.756 C 317.974 191.248,317.631 191.357,316.571 191.357 C 314.918 191.357,314.046 191.683,314.046 192.301 C 314.046 192.732,313.857 192.784,312.065 192.847 C 310.218 192.912,310.079 192.954,310.007 193.457 C 309.937 193.956,309.806 193.998,308.327 194.000 C 305.775 194.004,304.938 194.209,304.772 194.870 C 304.638 195.407,304.526 195.438,302.763 195.438 C 301.036 195.438,300.866 195.483,300.502 196.038 C 300.153 196.572,299.942 196.639,298.614 196.641 C 296.094 196.646,295.318 196.850,295.318 197.510 C 295.318 198.070,295.281 198.079,292.947 198.079 C 289.823 198.079,289.106 198.233,288.928 198.943 C 288.792 199.484,288.691 199.507,286.110 199.572 C 283.541 199.637,283.430 199.662,283.357 200.180 C 283.282 200.706,283.202 200.720,280.435 200.720 C 277.165 200.720,276.831 200.801,276.831 201.586 L 276.831 202.161 273.469 202.161 L 270.108 202.161 270.108 202.761 L 270.108 203.361 266.404 203.361 C 262.571 203.361,261.945 203.515,261.945 204.454 C 261.945 204.729,261.121 204.803,257.443 204.857 C 253.031 204.921,252.940 204.932,252.867 205.443 C 252.794 205.956,252.719 205.965,247.345 206.055 C 241.685 206.149,241.171 206.224,240.929 206.985 C 240.791 207.422,240.453 207.443,233.417 207.446 C 225.534 207.450,225.063 207.491,224.842 208.189 C 224.652 208.788,183.138 208.916,182.785 208.318 C 182.310 207.514,181.581 207.443,173.764 207.443 L 165.983 207.443 165.726 206.878 C 165.383 206.125,164.379 206.002,158.567 206.002 C 153.946 206.002,153.935 206.001,153.858 205.462 C 153.782 204.926,153.747 204.921,149.160 204.857 L 144.538 204.792 144.538 204.224 C 144.538 203.453,144.095 203.369,140.053 203.365 C 136.706 203.361,136.647 203.352,136.571 202.821 C 136.497 202.295,136.410 202.279,133.218 202.214 C 130.005 202.149,129.938 202.137,129.799 201.585 C 129.620 200.869,128.909 200.720,125.660 200.720 C 123.376 200.720,123.169 200.683,123.169 200.266 C 123.169 199.609,122.736 199.520,119.564 199.520 L 116.719 199.520 116.643 198.860 L 116.567 198.199 113.926 198.079 C 111.463 197.967,111.280 197.925,111.212 197.451 C 111.132 196.889,109.945 196.645,107.280 196.641 C 106.049 196.639,105.908 196.586,105.839 196.098 C 105.766 195.581,105.651 195.555,103.181 195.490 C 100.652 195.423,100.600 195.411,100.600 194.858 C 100.600 194.174,100.096 194.005,98.032 194.001 C 96.780 193.998,96.441 193.902,95.896 193.397 C 95.313 192.857,95.048 192.797,93.258 192.797 L 91.268 192.797 91.192 192.137 C 91.118 191.487,91.087 191.475,89.258 191.407 C 87.510 191.341,87.390 191.301,87.251 190.746 C 87.109 190.183,87.019 190.156,85.234 190.156 C 83.468 190.156,83.358 190.125,83.222 189.586 C 83.063 188.951,82.317 188.715,80.459 188.715 C 79.535 188.715,79.305 188.624,79.109 188.175 C 78.901 187.702,78.648 187.620,77.073 187.515 C 75.515 187.411,75.263 187.331,75.185 186.915 C 75.052 186.207,74.719 186.082,72.946 186.078 C 71.470 186.075,71.336 186.032,71.265 185.537 C 71.182 184.953,70.236 184.675,68.247 184.648 C 67.323 184.635,67.227 184.578,67.227 184.034 C 67.227 183.444,67.194 183.433,65.322 183.433 C 63.423 183.433,63.417 183.432,63.341 182.773 C 63.270 182.157,63.180 182.108,62.006 182.040 C 60.899 181.977,60.729 181.897,60.600 181.380 C 60.459 180.819,60.367 180.792,58.573 180.792 C 56.702 180.792,56.694 180.790,56.619 180.132 C 56.548 179.517,56.457 179.467,55.297 179.400 C 54.224 179.338,54.041 179.255,53.977 178.800 C 53.910 178.330,53.737 178.263,52.426 178.200 C 51.197 178.141,50.930 178.051,50.828 177.660 C 50.760 177.402,50.533 177.191,50.323 177.191 C 50.112 177.191,49.940 177.083,49.940 176.951 C 49.940 176.819,49.346 176.711,48.619 176.711 C 47.371 176.711,47.299 176.678,47.299 176.110 C 47.299 175.544,47.226 175.510,45.994 175.510 C 44.750 175.510,44.686 175.480,44.614 174.850 C 44.543 174.236,44.451 174.185,43.300 174.118 C 42.235 174.056,42.043 173.969,41.923 173.489 C 41.807 173.027,41.572 172.904,40.548 172.768 C 39.713 172.657,39.177 172.437,38.896 172.090 C 38.567 171.683,38.149 171.554,36.900 171.475 C 35.402 171.380,35.317 171.342,35.247 170.741 C 35.180 170.158,35.075 170.102,33.914 170.035 C 32.756 169.969,32.653 169.915,32.653 169.375 C 32.653 168.824,32.573 168.788,31.348 168.788 C 30.104 168.788,30.040 168.757,29.968 168.127 C 29.897 167.511,29.807 167.462,28.631 167.394 C 27.474 167.328,27.371 167.274,27.371 166.734 C 27.371 166.183,27.290 166.146,26.066 166.146 C 24.822 166.146,24.758 166.116,24.686 165.486 C 24.615 164.872,24.524 164.821,23.364 164.754 C 22.291 164.692,22.109 164.609,22.044 164.154 C 21.983 163.723,21.789 163.612,20.993 163.554 C 20.206 163.496,19.937 163.345,19.599 162.774 C 19.326 162.311,18.986 162.065,18.620 162.065 C 18.230 162.065,18.016 161.891,17.916 161.496 C 17.798 161.024,17.571 160.900,16.586 160.770 C 15.599 160.639,15.385 160.521,15.322 160.078 C 15.256 159.615,15.079 159.534,13.986 159.471 C 12.845 159.406,12.725 159.345,12.725 158.837 C 12.725 158.185,12.327 157.983,11.041 157.983 C 10.266 157.983,10.105 157.896,10.041 157.443 C 9.985 157.053,9.777 156.881,9.291 156.826 C 8.854 156.775,8.546 156.556,8.410 156.199 C 8.129 155.461,4.926 154.991,3.661 155.501 " stroke="none" fill="#fc9b04" fill-rule="evenodd"></path><path id="path1" d="M54.184 0.878 C 54.095 0.968,54.022 1.238,54.022 1.481 C 54.022 1.879,53.786 1.921,51.531 1.921 C 48.273 1.921,47.571 2.068,47.390 2.792 C 47.252 3.340,47.164 3.361,45.009 3.361 C 42.843 3.361,42.017 3.623,42.017 4.308 C 42.017 4.413,41.159 4.575,40.111 4.666 C 38.394 4.816,38.197 4.885,38.130 5.357 C 38.066 5.807,37.865 5.900,36.735 6.002 C 35.513 6.113,35.409 6.171,35.339 6.773 C 35.266 7.410,35.227 7.425,33.418 7.493 C 31.712 7.558,31.567 7.604,31.496 8.103 C 31.437 8.520,31.262 8.643,30.731 8.643 C 29.637 8.643,28.812 9.054,28.812 9.598 C 28.812 9.978,28.654 10.084,28.091 10.084 C 27.488 10.084,27.371 10.179,27.371 10.668 C 27.371 11.127,27.229 11.269,26.711 11.329 C 26.097 11.399,26.045 11.491,25.979 12.642 C 25.916 13.730,25.835 13.897,25.315 14.028 L 24.722 14.177 24.786 20.714 L 24.850 27.251 25.390 27.328 C 25.781 27.383,25.930 27.566,25.930 27.988 C 25.930 28.473,26.049 28.571,26.635 28.571 C 27.225 28.571,27.351 28.679,27.415 29.232 C 27.549 30.396,31.212 30.343,31.212 29.177 C 31.212 28.609,31.272 28.589,33.193 28.521 C 35.040 28.456,35.179 28.415,35.251 27.911 C 35.320 27.427,35.462 27.371,36.631 27.371 C 37.916 27.371,37.935 27.361,37.935 26.660 L 37.935 25.950 39.916 25.880 C 41.763 25.815,41.902 25.774,41.973 25.270 C 42.045 24.767,42.169 24.730,43.786 24.730 C 45.574 24.730,46.098 24.503,46.098 23.730 C 46.098 23.355,46.398 23.298,48.679 23.237 C 51.149 23.172,51.264 23.146,51.337 22.629 C 51.413 22.098,51.471 22.089,54.939 22.075 C 59.403 22.057,60.358 21.904,60.461 21.185 C 60.577 20.376,67.265 20.345,67.917 21.151 C 68.468 21.831,69.881 22.066,73.503 22.078 C 76.537 22.089,76.539 22.089,76.689 22.689 C 76.834 23.266,76.913 23.289,78.740 23.289 C 80.635 23.289,80.641 23.291,80.716 23.950 C 80.774 24.452,80.937 24.627,81.400 24.681 C 81.752 24.722,82.106 24.975,82.241 25.281 C 82.425 25.701,82.707 25.825,83.613 25.884 C 84.699 25.953,84.754 25.991,84.754 26.664 C 84.754 27.254,84.851 27.371,85.342 27.371 C 85.881 27.371,85.935 27.474,86.002 28.631 C 86.069 29.801,86.121 29.897,86.723 29.967 C 87.323 30.036,87.376 30.134,87.443 31.287 C 87.506 32.370,87.586 32.543,88.055 32.610 C 88.552 32.680,88.595 32.811,88.595 34.246 C 88.595 36.011,88.877 36.735,89.564 36.735 C 90.025 36.735,90.036 36.947,90.036 45.438 L 90.037 54.142 86.675 54.069 C 83.345 53.997,83.313 53.991,83.313 53.442 C 83.313 52.763,82.237 52.586,78.085 52.583 C 75.417 52.581,75.375 52.572,75.149 51.978 L 74.920 51.376 63.330 51.438 L 51.741 51.501 51.515 52.015 C 51.309 52.484,51.068 52.538,48.831 52.621 C 46.490 52.708,46.349 52.743,45.858 53.367 C 45.386 53.967,45.205 54.022,43.680 54.022 L 42.017 54.022 42.017 54.742 L 42.017 55.462 40.122 55.462 C 38.301 55.462,38.221 55.486,38.077 56.062 C 37.950 56.568,37.784 56.663,37.030 56.666 C 35.963 56.671,35.655 56.843,35.430 57.563 C 35.316 57.929,35.073 58.103,34.678 58.103 C 34.215 58.103,34.094 58.228,34.094 58.703 C 34.094 59.242,33.996 59.304,33.153 59.304 C 31.845 59.304,31.453 59.503,31.453 60.170 C 31.453 60.648,31.332 60.744,30.732 60.744 C 30.124 60.744,30.012 60.838,30.012 61.345 C 30.012 61.826,29.892 61.945,29.406 61.945 C 28.924 61.945,28.770 62.093,28.655 62.665 C 28.544 63.223,28.383 63.385,27.941 63.385 C 27.501 63.385,27.371 63.515,27.371 63.956 C 27.371 64.397,27.208 64.558,26.651 64.670 C 26.079 64.784,25.930 64.939,25.930 65.420 C 25.930 65.907,25.812 66.026,25.330 66.026 C 24.826 66.026,24.730 66.140,24.730 66.731 C 24.730 67.321,24.623 67.447,24.070 67.511 C 23.454 67.582,23.404 67.672,23.337 68.848 C 23.270 70.005,23.216 70.108,22.677 70.108 C 22.210 70.108,22.089 70.232,22.089 70.708 C 22.089 71.126,21.958 71.309,21.657 71.309 C 20.946 71.309,20.648 71.819,20.648 73.037 C 20.648 74.106,20.605 74.190,20.048 74.190 C 19.458 74.190,19.448 74.223,19.448 76.094 C 19.448 77.994,19.446 78.000,18.788 78.075 L 18.127 78.151 18.061 81.417 C 17.995 84.629,17.984 84.687,17.400 84.953 L 16.807 85.224 16.807 90.146 L 16.807 95.069 17.400 95.218 C 17.991 95.366,17.994 95.382,18.061 98.644 L 18.127 101.921 18.788 101.997 C 19.446 102.072,19.448 102.078,19.448 103.973 C 19.448 105.790,19.474 105.880,20.036 106.021 C 20.552 106.150,20.634 106.321,20.697 107.406 C 20.763 108.551,20.817 108.649,21.417 108.718 C 22.017 108.788,22.070 108.885,22.137 110.039 C 22.199 111.122,22.279 111.295,22.749 111.361 C 23.140 111.417,23.289 111.599,23.289 112.022 C 23.289 112.510,23.407 112.605,24.010 112.605 C 24.650 112.605,24.730 112.685,24.730 113.325 C 24.730 113.928,24.825 114.046,25.314 114.046 C 25.773 114.046,25.915 114.187,25.974 114.706 C 26.034 115.224,26.192 115.382,26.711 115.442 C 27.229 115.502,27.371 115.643,27.371 116.102 C 27.371 116.561,27.496 116.687,27.955 116.687 C 28.414 116.687,28.556 116.828,28.616 117.347 C 28.675 117.866,28.833 118.024,29.352 118.083 C 29.870 118.143,30.012 118.285,30.012 118.743 C 30.012 119.230,30.130 119.328,30.716 119.328 C 31.306 119.328,31.433 119.435,31.497 119.988 C 31.568 120.604,31.657 120.653,32.833 120.721 C 33.991 120.787,34.094 120.841,34.094 121.381 C 34.094 121.933,34.173 121.969,35.414 121.969 C 36.721 121.969,36.735 121.976,36.735 122.689 C 36.735 123.402,36.748 123.409,38.055 123.409 C 39.304 123.409,39.376 123.442,39.376 124.010 L 39.376 124.610 42.001 124.610 L 44.626 124.610 44.702 125.270 L 44.778 125.930 54.539 125.993 C 64.639 126.058,65.481 125.990,65.718 125.087 C 65.830 124.656,66.049 124.610,67.986 124.610 C 69.953 124.610,70.179 124.560,70.730 124.010 C 71.224 123.516,71.563 123.409,72.640 123.409 C 73.935 123.409,73.950 123.401,73.950 122.689 C 73.950 121.977,73.965 121.969,75.254 121.969 C 76.799 121.969,77.791 121.642,77.791 121.134 C 77.791 120.888,78.026 120.768,78.511 120.768 C 79.149 120.768,79.232 120.687,79.232 120.060 C 79.232 119.366,79.260 119.350,80.612 119.280 C 81.797 119.218,82.003 119.137,82.064 118.711 C 82.116 118.344,82.398 118.157,83.144 117.991 C 83.830 117.839,84.230 117.594,84.391 117.227 C 84.554 116.854,84.833 116.687,85.291 116.687 C 85.834 116.687,85.954 116.580,85.954 116.102 C 85.954 115.643,86.096 115.502,86.615 115.442 C 87.133 115.382,87.291 115.224,87.351 114.706 C 87.411 114.187,87.552 114.046,88.011 114.046 C 88.500 114.046,88.595 113.928,88.595 113.325 C 88.595 112.685,88.675 112.605,89.316 112.605 C 89.924 112.605,90.036 112.512,90.036 112.005 C 90.036 111.525,90.156 111.405,90.636 111.405 C 91.143 111.405,91.236 111.293,91.236 110.684 L 91.236 109.964 92.677 109.964 L 94.118 109.964 94.118 111.285 C 94.118 112.533,94.150 112.605,94.718 112.605 C 95.286 112.605,95.318 112.677,95.318 113.932 C 95.318 115.213,95.342 115.263,96.038 115.402 C 96.596 115.514,96.759 115.675,96.759 116.116 C 96.759 116.561,96.888 116.687,97.346 116.687 C 97.886 116.687,97.940 116.790,98.007 117.947 C 98.074 119.123,98.124 119.213,98.739 119.284 C 99.292 119.347,99.400 119.474,99.400 120.064 C 99.400 120.655,99.496 120.768,100.000 120.768 C 100.480 120.768,100.600 120.888,100.600 121.369 C 100.600 121.872,100.713 121.969,101.305 121.969 C 101.894 121.969,102.021 122.076,102.085 122.629 L 102.161 123.289 106.062 123.355 L 109.964 123.421 109.964 122.708 C 109.964 122.016,110.003 121.992,111.224 121.921 C 112.312 121.859,112.495 121.776,112.560 121.323 C 112.612 120.955,112.828 120.775,113.280 120.723 C 113.783 120.665,113.942 120.502,114.002 119.988 C 114.073 119.368,114.149 119.328,115.257 119.328 C 116.316 119.328,116.453 119.266,116.588 118.727 C 116.696 118.297,116.901 118.127,117.313 118.127 C 117.791 118.127,117.887 118.006,117.887 117.407 C 117.887 116.767,117.967 116.687,118.607 116.687 C 119.210 116.687,119.328 116.592,119.328 116.102 C 119.328 115.643,119.469 115.502,119.988 115.442 C 120.502 115.383,120.665 115.224,120.723 114.721 C 120.775 114.269,120.955 114.053,121.323 114.000 C 122.199 113.876,122.245 110.440,121.378 109.872 C 120.974 109.607,120.767 109.252,120.766 108.818 C 120.759 107.212,120.474 106.358,119.896 106.213 C 119.423 106.094,119.328 105.917,119.328 105.156 C 119.328 103.874,119.125 103.481,118.462 103.481 C 117.925 103.481,117.887 103.394,117.887 102.161 C 117.887 100.918,117.852 100.840,117.297 100.840 C 116.723 100.840,116.704 100.785,116.636 98.860 C 116.567 96.897,116.561 96.878,115.906 96.803 L 115.246 96.727 115.246 68.239 L 115.246 39.751 114.652 39.240 C 114.065 38.736,114.056 38.670,113.991 34.431 L 113.926 30.132 113.273 30.057 L 112.621 29.982 112.553 27.416 C 112.488 24.979,112.458 24.846,111.957 24.775 C 111.501 24.710,111.419 24.528,111.357 23.454 C 111.289 22.295,111.239 22.204,110.624 22.133 C 109.994 22.060,109.964 21.997,109.964 20.752 C 109.964 19.521,109.930 19.448,109.364 19.448 C 108.803 19.448,108.764 19.369,108.764 18.235 C 108.764 17.103,108.715 17.005,108.043 16.771 C 107.512 16.586,107.323 16.368,107.323 15.943 C 107.323 15.462,107.203 15.366,106.603 15.366 C 105.890 15.366,105.882 15.353,105.882 14.046 C 105.882 12.797,105.850 12.725,105.282 12.725 C 104.800 12.725,104.682 12.605,104.682 12.119 C 104.682 11.637,104.534 11.483,103.962 11.369 C 103.404 11.257,103.241 11.096,103.241 10.654 C 103.241 10.166,103.124 10.084,102.429 10.084 C 101.819 10.084,101.585 9.965,101.491 9.604 C 101.422 9.340,101.193 9.124,100.983 9.124 C 100.772 9.124,100.600 9.016,100.600 8.884 C 100.600 8.752,100.330 8.643,100.000 8.643 C 99.520 8.643,99.400 8.523,99.400 8.043 C 99.400 7.541,99.286 7.443,98.706 7.443 C 98.174 7.443,97.978 7.309,97.868 6.871 C 97.720 6.284,97.131 6.011,95.995 6.006 C 95.512 6.003,95.332 5.868,95.275 5.462 C 95.209 4.997,94.981 4.887,93.637 4.669 C 91.783 4.367,91.236 4.146,91.236 3.696 C 91.236 3.444,90.847 3.361,89.659 3.361 C 88.141 3.361,87.395 3.059,87.395 2.444 C 87.395 2.038,86.695 1.921,84.271 1.921 C 82.001 1.921,81.903 1.899,81.829 1.381 L 81.753 0.840 68.049 0.778 C 60.512 0.744,54.273 0.789,54.184 0.878 M326.212 0.878 C 326.123 0.968,326.050 1.238,326.050 1.481 C 326.050 1.867,325.837 1.921,324.310 1.923 C 321.542 1.928,320.768 2.117,320.768 2.793 C 320.768 3.320,320.675 3.361,319.483 3.361 C 318.463 3.361,318.070 3.479,317.582 3.931 C 317.174 4.310,316.497 4.572,315.567 4.712 C 314.387 4.889,314.154 5.005,314.091 5.448 C 314.038 5.816,313.822 5.996,313.371 6.048 C 312.868 6.106,312.708 6.268,312.649 6.783 C 312.577 7.413,312.513 7.443,311.269 7.443 C 310.037 7.443,309.964 7.477,309.964 8.043 C 309.964 8.523,309.844 8.643,309.364 8.643 C 308.857 8.643,308.764 8.756,308.764 9.364 C 308.764 10.077,308.750 10.084,307.443 10.084 C 306.204 10.084,306.122 10.120,306.122 10.668 C 306.122 11.127,305.981 11.269,305.462 11.329 C 304.944 11.388,304.786 11.546,304.726 12.065 C 304.666 12.582,304.524 12.725,304.070 12.725 C 303.658 12.725,303.449 12.892,303.345 13.305 C 303.258 13.650,302.965 13.943,302.620 14.029 C 302.216 14.131,302.041 14.343,302.041 14.732 C 302.041 15.089,301.831 15.385,301.457 15.555 C 301.010 15.759,300.835 16.077,300.710 16.914 C 300.568 17.860,300.469 18.007,299.973 18.007 C 299.496 18.007,299.400 18.128,299.400 18.727 C 299.400 19.326,299.303 19.448,298.828 19.448 C 298.203 19.448,297.968 19.954,297.962 21.309 C 297.960 21.980,297.875 22.089,297.359 22.089 C 296.770 22.089,296.759 22.123,296.759 23.980 L 296.759 25.870 296.038 26.014 L 295.318 26.158 295.318 29.671 C 295.318 33.084,295.301 33.205,294.707 33.910 C 293.870 34.905,293.912 37.432,294.772 37.810 C 295.289 38.036,295.309 38.175,295.372 41.881 L 295.438 45.717 296.038 45.858 C 296.581 45.984,296.646 46.131,296.711 47.369 C 296.777 48.635,296.826 48.739,297.358 48.739 C 297.884 48.739,297.940 48.850,298.007 50.000 C 298.074 51.176,298.124 51.266,298.739 51.336 C 299.369 51.409,299.400 51.472,299.400 52.717 C 299.400 53.949,299.433 54.022,300.000 54.022 C 300.445 54.022,300.600 54.149,300.600 54.514 C 300.600 55.234,301.277 56.423,301.687 56.423 C 301.920 56.423,302.041 56.668,302.041 57.138 C 302.041 57.695,302.170 57.886,302.620 57.999 C 302.965 58.086,303.258 58.379,303.345 58.724 C 303.449 59.137,303.658 59.304,304.070 59.304 C 304.524 59.304,304.666 59.447,304.726 59.964 C 304.786 60.483,304.944 60.641,305.462 60.700 C 305.981 60.760,306.122 60.902,306.122 61.360 C 306.122 61.909,306.204 61.945,307.443 61.945 C 308.750 61.945,308.764 61.952,308.764 62.665 C 308.764 63.273,308.857 63.385,309.364 63.385 C 309.844 63.385,309.964 63.505,309.964 63.986 C 309.964 64.552,310.037 64.586,311.269 64.586 C 312.513 64.586,312.577 64.616,312.649 65.246 C 312.717 65.836,312.841 65.919,313.804 66.026 C 314.685 66.125,314.940 66.267,315.197 66.807 C 315.484 67.408,315.630 67.467,316.820 67.467 C 318.054 67.467,318.127 67.500,318.127 68.067 C 318.127 68.634,318.200 68.667,319.431 68.667 C 320.599 68.667,320.743 68.724,320.812 69.206 C 320.899 69.818,321.582 70.034,323.573 70.080 C 324.566 70.102,324.847 70.200,324.961 70.560 C 325.137 71.113,326.023 71.309,328.361 71.309 L 330.132 71.309 330.132 72.029 L 330.132 72.749 332.036 72.749 C 333.828 72.749,333.945 72.781,334.017 73.289 C 334.088 73.793,334.228 73.834,336.074 73.899 C 337.974 73.966,338.055 73.992,338.055 74.534 C 338.055 75.254,338.436 75.390,340.459 75.390 C 341.982 75.390,342.109 75.430,342.180 75.930 C 342.251 76.430,342.396 76.476,344.103 76.540 C 345.911 76.609,345.950 76.624,346.023 77.261 C 346.094 77.872,346.179 77.915,347.454 77.982 C 348.560 78.041,348.832 78.140,348.931 78.520 C 349.063 79.024,349.989 79.472,350.899 79.472 C 351.305 79.472,351.489 79.626,351.544 80.012 C 351.609 80.471,351.789 80.563,352.733 80.624 C 353.751 80.690,353.858 80.757,353.988 81.405 C 354.100 81.964,354.257 82.113,354.736 82.113 C 355.222 82.113,355.342 82.231,355.342 82.713 C 355.342 83.220,355.454 83.313,356.062 83.313 C 356.775 83.313,356.783 83.327,356.783 84.634 C 356.783 85.882,356.815 85.954,357.383 85.954 L 357.983 85.954 357.983 90.636 L 357.983 95.318 357.383 95.318 C 356.816 95.318,356.783 95.391,356.783 96.623 C 356.783 97.867,356.752 97.931,356.122 98.003 C 355.604 98.063,355.446 98.221,355.386 98.739 C 355.328 99.249,355.183 99.400,354.752 99.400 C 354.358 99.400,354.150 99.575,354.044 99.996 C 353.952 100.364,353.666 100.650,353.298 100.743 C 352.870 100.850,352.701 101.055,352.701 101.467 C 352.701 101.965,352.588 102.041,351.845 102.041 C 350.745 102.041,350.060 102.413,350.060 103.010 C 350.060 103.421,349.892 103.481,348.739 103.481 C 347.491 103.481,347.419 103.514,347.419 104.082 C 347.419 104.679,347.410 104.682,345.158 104.682 C 342.491 104.682,342.137 104.784,342.137 105.551 L 342.137 106.128 332.724 106.065 L 323.311 106.002 323.170 105.402 C 323.029 104.804,323.016 104.802,319.893 104.735 C 316.820 104.670,316.752 104.657,316.487 104.075 C 316.226 103.502,316.135 103.481,313.841 103.481 L 311.465 103.481 311.321 102.761 L 311.176 102.041 309.250 102.041 C 307.382 102.041,307.323 102.023,307.323 101.471 C 307.323 100.888,306.646 100.600,305.278 100.600 C 304.898 100.600,304.689 100.419,304.583 100.000 C 304.438 99.423,304.359 99.400,302.532 99.400 C 300.638 99.400,300.632 99.398,300.556 98.739 C 300.420 97.552,295.318 97.615,295.318 98.804 C 295.318 99.279,295.197 99.400,294.718 99.400 C 294.150 99.400,294.118 99.471,294.118 100.726 C 294.118 101.907,294.054 102.077,293.540 102.272 C 292.785 102.559,292.700 103.101,292.765 107.206 C 292.822 110.761,292.911 111.164,293.642 111.164 C 294.051 111.164,294.106 111.385,294.168 113.265 C 294.233 115.237,294.271 115.371,294.778 115.443 C 295.169 115.498,295.318 115.681,295.318 116.103 C 295.318 116.591,295.436 116.687,296.038 116.687 C 296.679 116.687,296.759 116.767,296.759 117.407 C 296.759 118.010,296.854 118.127,297.342 118.127 C 297.765 118.127,297.947 118.276,298.003 118.667 C 298.069 119.136,298.242 119.217,299.312 119.279 C 300.463 119.346,300.554 119.398,300.687 120.060 C 300.823 120.741,300.880 120.768,302.138 120.768 C 303.314 120.768,303.456 120.824,303.525 121.309 C 303.596 121.808,303.740 121.854,305.462 121.919 C 307.114 121.981,307.323 122.041,307.323 122.451 C 307.323 123.174,308.080 123.409,310.412 123.409 C 312.469 123.409,312.575 123.435,312.648 123.950 C 312.722 124.469,312.832 124.492,315.426 124.558 C 317.912 124.620,318.127 124.663,318.127 125.089 C 318.127 125.925,318.894 126.050,323.994 126.050 C 328.170 126.050,328.932 126.105,328.932 126.402 C 328.932 127.202,329.905 127.365,334.694 127.365 C 339.482 127.365,340.456 127.202,340.456 126.402 C 340.456 126.107,341.111 126.050,344.522 126.050 C 348.870 126.050,349.820 125.879,349.820 125.096 C 349.820 124.648,349.972 124.610,351.766 124.610 C 353.547 124.610,353.752 124.560,354.176 124.020 C 354.573 123.516,354.872 123.421,356.251 123.360 C 357.805 123.292,357.866 123.266,357.938 122.639 C 358.012 122.002,358.051 121.987,359.859 121.919 C 361.517 121.856,361.712 121.798,361.776 121.350 C 361.833 120.954,362.103 120.807,363.096 120.630 C 364.127 120.447,364.359 120.314,364.422 119.868 C 364.482 119.448,364.656 119.328,365.203 119.328 C 365.793 119.328,365.906 119.231,365.906 118.727 C 365.906 118.256,366.028 118.127,366.477 118.127 C 367.870 118.127,368.547 117.843,368.547 117.257 C 368.547 116.783,368.670 116.687,369.268 116.687 C 369.871 116.687,369.988 116.592,369.988 116.102 C 369.988 115.643,370.130 115.502,370.648 115.442 C 371.167 115.382,371.325 115.224,371.384 114.706 C 371.444 114.187,371.586 114.046,372.045 114.046 C 372.534 114.046,372.629 113.928,372.629 113.325 C 372.629 112.685,372.709 112.605,373.349 112.605 C 373.958 112.605,374.070 112.512,374.070 112.005 C 374.070 111.525,374.190 111.405,374.670 111.405 C 375.174 111.405,375.270 111.291,375.270 110.700 C 375.270 110.110,375.377 109.984,375.930 109.920 C 376.546 109.849,376.596 109.759,376.663 108.583 C 376.730 107.426,376.784 107.323,377.323 107.323 C 377.785 107.323,377.911 107.198,377.911 106.742 C 377.911 106.291,378.073 106.125,378.631 106.002 C 379.310 105.853,379.352 105.777,379.352 104.689 C 379.352 103.657,379.416 103.517,379.952 103.383 C 380.529 103.238,380.552 103.159,380.552 101.332 C 380.552 99.437,380.554 99.431,381.212 99.356 L 381.873 99.280 381.939 95.994 C 382.004 92.808,382.022 92.706,382.538 92.633 C 383.808 92.452,383.769 85.036,382.493 84.002 C 382.068 83.657,382.001 83.279,381.941 80.880 L 381.873 78.151 381.212 78.075 C 380.554 78.000,380.552 77.994,380.552 76.094 C 380.552 74.223,380.542 74.190,379.952 74.190 C 379.448 74.190,379.352 74.077,379.352 73.485 C 379.352 72.375,378.944 71.549,378.397 71.549 C 378.017 71.549,377.911 71.391,377.911 70.828 C 377.911 70.220,377.818 70.108,377.311 70.108 C 376.804 70.108,376.711 69.996,376.711 69.388 C 376.711 68.747,376.631 68.667,375.990 68.667 C 375.347 68.667,375.270 68.589,375.270 67.931 C 375.270 66.876,374.900 66.329,374.063 66.145 C 373.662 66.057,373.100 65.670,372.816 65.285 C 372.531 64.901,372.110 64.586,371.880 64.586 C 371.629 64.586,371.431 64.370,371.385 64.046 C 371.331 63.662,371.121 63.484,370.663 63.431 C 370.164 63.373,370.000 63.210,369.943 62.711 C 369.883 62.194,369.725 62.049,369.154 61.984 C 368.761 61.939,368.179 61.642,367.861 61.323 C 367.518 60.981,367.000 60.744,366.594 60.744 C 366.029 60.744,365.906 60.642,365.906 60.170 C 365.906 59.506,365.514 59.304,364.223 59.304 C 363.447 59.304,363.286 59.217,363.222 58.764 C 363.151 58.264,363.006 58.218,361.300 58.153 C 359.491 58.085,359.452 58.070,359.379 57.433 C 359.308 56.820,359.225 56.779,357.923 56.711 C 356.768 56.650,356.543 56.566,356.543 56.196 C 356.543 55.594,356.086 55.462,354.002 55.462 C 352.645 55.462,352.221 55.383,352.221 55.130 C 352.221 54.440,351.096 54.022,349.245 54.022 C 347.579 54.022,347.447 53.984,347.376 53.491 C 347.284 52.858,346.629 52.638,344.735 52.605 C 343.512 52.584,343.363 52.525,343.294 52.041 C 343.222 51.537,343.083 51.496,341.236 51.431 C 339.337 51.364,339.256 51.338,339.256 50.796 C 339.256 50.083,338.872 49.940,336.960 49.940 C 335.521 49.940,335.414 49.902,335.273 49.340 C 335.128 48.763,335.047 48.739,333.243 48.739 C 331.372 48.739,331.364 48.737,331.288 48.079 C 331.218 47.463,331.128 47.414,329.952 47.346 C 328.794 47.280,328.691 47.226,328.691 46.686 C 328.691 46.135,328.611 46.098,327.387 46.098 C 326.142 46.098,326.079 46.068,326.006 45.438 C 325.947 44.924,325.788 44.761,325.285 44.703 C 324.833 44.651,324.617 44.471,324.565 44.103 C 324.513 43.737,324.296 43.555,323.854 43.504 C 323.456 43.458,323.171 43.249,323.091 42.946 C 323.022 42.679,322.741 42.403,322.467 42.331 C 322.108 42.237,321.969 42.007,321.969 41.509 C 321.969 40.930,321.870 40.816,321.369 40.816 C 320.852 40.816,320.768 40.707,320.765 40.036 C 320.760 38.773,320.520 38.225,319.905 38.071 L 319.328 37.926 319.328 33.985 L 319.328 30.044 319.988 29.968 C 320.604 29.897,320.653 29.807,320.721 28.631 C 320.787 27.474,320.841 27.371,321.381 27.371 C 321.874 27.371,321.969 27.255,321.969 26.651 C 321.969 26.010,322.049 25.930,322.689 25.930 C 323.297 25.930,323.409 25.837,323.409 25.330 C 323.409 24.850,323.529 24.730,324.010 24.730 C 324.516 24.730,324.610 24.618,324.610 24.010 L 324.610 23.289 326.417 23.289 C 328.123 23.289,328.236 23.256,328.451 22.689 C 328.664 22.129,328.790 22.089,330.330 22.089 C 332.273 22.089,333.417 21.748,333.620 21.108 C 333.760 20.666,334.099 20.648,342.185 20.648 L 350.604 20.648 351.171 21.309 C 351.719 21.947,351.834 21.973,354.680 22.089 C 357.445 22.202,357.637 22.241,357.860 22.749 C 358.078 23.246,358.254 23.289,360.065 23.289 L 362.033 23.289 362.109 23.950 C 362.179 24.561,362.274 24.615,363.393 24.681 C 364.371 24.738,364.646 24.852,364.834 25.281 C 365.040 25.751,365.273 25.818,366.927 25.880 L 368.788 25.951 368.788 26.681 L 368.788 27.411 371.689 27.331 C 374.911 27.242,375.270 27.066,375.270 25.577 C 375.270 24.973,375.404 24.785,375.990 24.563 L 376.711 24.291 376.711 18.888 C 376.711 12.953,376.679 12.725,375.845 12.725 C 375.308 12.725,375.270 12.637,375.270 11.405 C 375.270 10.166,375.234 10.084,374.686 10.084 C 374.227 10.084,374.085 9.942,374.026 9.424 C 373.966 8.905,373.808 8.747,373.289 8.688 C 372.771 8.628,372.629 8.486,372.629 8.027 C 372.629 7.522,372.518 7.443,371.805 7.443 C 371.192 7.443,370.942 7.320,370.828 6.963 C 370.745 6.699,370.521 6.483,370.332 6.483 C 370.143 6.483,369.988 6.375,369.988 6.242 C 369.988 6.110,369.622 6.002,369.176 6.002 C 368.576 6.002,368.332 5.881,368.243 5.541 C 368.112 5.042,366.789 4.565,365.525 4.563 C 364.967 4.562,364.715 4.413,364.509 3.962 C 364.244 3.379,364.163 3.361,361.830 3.361 C 359.673 3.361,359.424 3.317,359.424 2.929 C 359.424 2.089,358.924 1.921,356.431 1.921 C 354.156 1.921,354.002 1.889,353.778 1.381 L 353.541 0.840 339.958 0.778 C 332.487 0.744,326.302 0.789,326.212 0.878 M126.210 3.521 C 126.122 3.609,126.050 3.934,126.050 4.242 C 126.050 4.672,125.918 4.802,125.478 4.802 C 124.711 4.802,124.617 5.252,124.613 8.926 C 124.610 12.067,124.799 12.725,125.707 12.725 C 125.976 12.725,126.050 13.141,126.050 14.646 C 126.050 16.526,126.063 16.567,126.641 16.567 C 127.215 16.567,127.233 16.622,127.301 18.547 C 127.370 20.504,127.379 20.529,128.023 20.603 L 128.676 20.679 128.744 23.244 C 128.807 25.657,128.842 25.815,129.324 25.883 C 129.786 25.949,129.854 26.160,130.006 27.984 C 130.168 29.920,130.201 30.012,130.754 30.012 C 131.317 30.012,131.333 30.063,131.333 31.939 L 131.333 33.866 132.053 34.010 L 132.773 34.154 132.773 36.619 C 132.773 39.048,132.782 39.086,133.373 39.234 C 133.947 39.378,133.974 39.464,133.974 41.202 C 133.974 43.000,133.981 43.022,134.694 43.291 C 135.409 43.561,135.414 43.576,135.414 45.431 C 135.414 47.263,135.426 47.299,136.014 47.299 C 136.600 47.299,136.615 47.341,136.615 49.064 C 136.615 51.104,136.945 52.261,137.586 52.464 C 137.970 52.586,138.046 52.897,138.106 54.575 C 138.171 56.408,138.212 56.548,138.715 56.619 C 139.219 56.691,139.256 56.815,139.256 58.432 C 139.256 60.225,139.482 60.744,140.264 60.744 C 140.644 60.744,140.696 60.976,140.696 62.665 C 140.696 64.554,140.706 64.586,141.297 64.586 C 141.867 64.586,141.897 64.654,141.899 65.966 C 141.903 68.648,142.146 69.835,142.709 69.915 C 143.173 69.982,143.223 70.161,143.287 71.969 L 143.357 73.950 144.067 73.950 L 144.778 73.950 144.778 75.990 C 144.778 78.007,144.785 78.031,145.378 78.031 C 145.971 78.031,145.978 78.056,145.978 80.056 C 145.978 82.407,146.241 83.313,146.923 83.313 C 147.354 83.313,147.406 83.502,147.469 85.294 C 147.534 87.141,147.576 87.280,148.079 87.352 C 148.583 87.423,148.619 87.547,148.619 89.164 C 148.619 90.957,148.846 91.477,149.628 91.477 C 150.007 91.477,150.060 91.706,150.060 93.362 C 150.060 95.041,150.126 95.319,150.660 95.896 C 151.165 96.441,151.261 96.780,151.264 98.032 C 151.268 100.104,151.436 100.600,152.129 100.600 C 152.687 100.600,152.701 100.651,152.701 102.641 C 152.701 104.658,152.708 104.682,153.301 104.682 C 153.877 104.682,153.902 104.743,153.905 106.182 C 153.909 108.267,154.076 108.764,154.770 108.764 C 155.334 108.764,155.342 108.797,155.342 111.116 C 155.342 113.543,155.515 114.046,156.351 114.046 C 156.730 114.046,156.783 114.276,156.783 115.940 C 156.783 117.761,156.806 117.841,157.383 117.986 C 157.923 118.121,157.983 118.257,157.983 119.338 C 157.983 120.482,158.018 120.547,158.703 120.684 C 159.261 120.796,159.424 120.957,159.424 121.399 C 159.424 121.869,159.547 121.969,160.128 121.969 C 160.608 121.969,160.878 122.113,160.976 122.423 C 161.272 123.355,162.042 123.419,172.149 123.353 L 181.873 123.289 181.949 122.629 C 182.012 122.076,182.139 121.969,182.729 121.969 C 183.320 121.969,183.433 121.872,183.433 121.369 C 183.433 120.888,183.553 120.768,184.034 120.768 C 184.540 120.768,184.634 120.656,184.634 120.048 C 184.634 119.448,184.730 119.328,185.208 119.328 C 185.936 119.328,186.074 118.951,186.074 116.964 C 186.074 115.531,186.132 115.335,186.615 115.123 C 187.124 114.900,187.159 114.727,187.222 112.112 L 187.289 109.339 188.002 108.917 L 188.715 108.496 188.715 106.015 C 188.715 103.568,188.724 103.531,189.316 103.383 C 189.910 103.234,189.916 103.207,189.916 100.612 L 189.916 97.991 190.576 97.915 L 191.236 97.839 191.304 95.274 C 191.369 92.832,191.398 92.705,191.905 92.633 C 192.411 92.561,192.440 92.434,192.505 89.990 C 192.569 87.577,192.605 87.412,193.105 87.256 C 193.913 87.004,193.990 86.742,193.994 84.239 C 193.997 82.000,194.021 81.898,194.718 81.152 C 195.422 80.399,195.438 80.325,195.438 77.902 C 195.438 75.515,195.458 75.421,195.978 75.347 C 196.495 75.273,196.522 75.159,196.587 72.689 C 196.640 70.674,196.728 70.108,196.990 70.108 C 197.837 70.108,198.079 69.410,198.079 66.970 C 198.079 64.587,198.080 64.586,198.679 64.586 L 199.280 64.586 199.280 61.945 C 199.280 59.453,199.307 59.304,199.766 59.304 C 200.467 59.304,200.720 58.406,200.720 55.927 C 200.720 54.164,200.786 53.782,201.086 53.782 C 201.687 53.782,201.921 52.701,201.921 49.924 L 201.921 47.299 202.641 47.299 L 203.361 47.299 203.361 44.658 L 203.361 42.017 203.962 42.017 L 204.562 42.017 204.598 38.595 C 204.618 36.714,204.679 35.471,204.734 35.834 C 204.803 36.289,205.015 36.539,205.418 36.640 C 205.990 36.784,206.002 36.840,206.002 39.266 C 206.002 42.011,206.212 42.859,206.949 43.093 C 207.408 43.238,207.443 43.436,207.443 45.858 C 207.443 48.380,207.461 48.469,207.983 48.543 C 208.492 48.615,208.527 48.743,208.583 50.780 C 208.664 53.687,208.758 54.022,209.488 54.022 L 210.084 54.022 210.084 56.663 L 210.084 59.304 210.676 59.304 C 211.265 59.304,211.269 59.320,211.336 61.885 L 211.405 64.466 212.065 64.542 L 212.725 64.618 212.725 67.238 C 212.725 69.833,212.731 69.860,213.325 70.009 C 213.912 70.157,213.926 70.212,213.926 72.385 C 213.926 75.294,214.097 76.090,214.792 76.406 C 215.319 76.646,215.354 76.806,215.418 79.207 C 215.483 81.640,215.510 81.756,216.026 81.829 C 216.528 81.901,216.568 82.030,216.580 83.630 C 216.602 86.286,216.833 87.261,217.462 87.351 C 217.965 87.422,217.995 87.555,218.059 89.992 L 218.127 92.557 218.788 92.633 L 219.448 92.709 219.448 95.334 L 219.448 97.959 220.048 97.959 L 220.648 97.959 220.648 100.606 L 220.648 103.253 221.369 103.397 L 222.089 103.541 222.089 106.375 C 222.089 109.186,222.301 109.964,223.066 109.964 C 223.189 109.964,223.289 110.982,223.289 112.225 C 223.289 114.890,223.391 115.246,224.155 115.246 C 224.716 115.246,224.730 115.294,224.730 117.287 C 224.730 119.273,224.745 119.328,225.299 119.328 C 225.785 119.328,225.887 119.474,226.003 120.340 C 226.159 121.506,226.658 121.969,227.758 121.969 C 228.424 121.969,228.556 122.070,228.691 122.689 L 228.850 123.409 238.659 123.409 C 248.698 123.409,249.538 123.338,249.816 122.463 C 249.927 122.112,250.177 121.969,250.676 121.969 C 251.262 121.969,251.381 121.871,251.381 121.385 C 251.381 120.963,251.530 120.781,251.921 120.725 C 252.390 120.658,252.470 120.485,252.533 119.404 C 252.600 118.244,252.653 118.150,253.313 118.005 L 254.022 117.849 254.022 115.964 C 254.022 114.192,254.054 114.074,254.562 114.002 C 255.065 113.931,255.107 113.792,255.172 111.945 C 255.234 110.174,255.291 109.964,255.704 109.964 C 256.428 109.964,256.663 109.207,256.663 106.874 L 256.663 104.714 257.323 104.638 C 257.977 104.563,257.984 104.544,258.053 102.581 C 258.121 100.656,258.139 100.600,258.713 100.600 C 259.291 100.600,259.304 100.560,259.304 98.679 C 259.304 96.930,259.346 96.759,259.775 96.759 C 260.462 96.759,260.744 96.035,260.744 94.270 C 260.744 92.835,260.788 92.704,261.285 92.634 C 261.788 92.562,261.829 92.423,261.894 90.589 C 261.954 88.911,262.030 88.601,262.414 88.479 C 263.055 88.275,263.385 87.119,263.385 85.078 C 263.385 83.356,263.400 83.313,263.986 83.313 C 264.575 83.313,264.586 83.279,264.586 81.423 L 264.586 79.532 265.306 79.388 L 266.026 79.244 266.026 77.334 C 266.026 75.536,266.058 75.419,266.567 75.347 C 267.070 75.275,267.112 75.136,267.177 73.289 C 267.237 71.585,267.305 71.309,267.669 71.309 C 268.493 71.309,268.667 70.799,268.667 68.395 L 268.667 66.058 269.328 65.982 C 269.982 65.907,269.989 65.888,270.058 63.926 C 270.126 62.000,270.144 61.945,270.718 61.945 C 271.296 61.945,271.309 61.904,271.309 60.024 C 271.309 58.334,271.361 58.103,271.741 58.103 C 272.523 58.103,272.749 57.584,272.749 55.791 C 272.749 54.174,272.786 54.050,273.289 53.978 C 273.793 53.907,273.834 53.767,273.899 51.936 C 273.963 50.128,274.010 49.965,274.489 49.895 C 275.157 49.799,275.336 49.134,275.366 46.639 C 275.390 44.692,275.401 44.658,275.990 44.658 C 276.584 44.658,276.591 44.634,276.591 42.617 L 276.591 40.576 277.311 40.576 L 278.031 40.576 278.031 38.672 C 278.031 36.880,278.063 36.764,278.571 36.691 C 279.075 36.620,279.116 36.481,279.181 34.634 C 279.248 32.734,279.274 32.653,279.816 32.653 C 280.545 32.653,280.672 32.276,280.672 30.112 C 280.672 28.730,280.749 28.331,281.015 28.331 C 281.639 28.331,282.113 26.916,282.113 25.053 C 282.113 23.332,282.127 23.289,282.713 23.289 C 283.303 23.289,283.313 23.257,283.313 21.369 C 283.313 19.619,283.355 19.448,283.785 19.448 C 284.472 19.448,284.754 18.724,284.754 16.959 C 284.754 15.525,284.797 15.393,285.294 15.323 C 285.808 15.250,285.840 15.119,285.954 12.605 C 286.068 10.116,286.105 9.960,286.599 9.889 C 287.693 9.734,287.641 6.374,286.540 6.097 C 286.125 5.993,285.954 5.784,285.954 5.381 C 285.954 4.979,285.784 4.768,285.375 4.666 C 285.030 4.579,284.737 4.286,284.650 3.941 L 284.505 3.361 275.266 3.361 L 266.026 3.361 266.026 3.962 C 266.026 4.478,265.917 4.562,265.246 4.565 C 263.904 4.571,263.385 4.807,263.385 5.414 C 263.385 5.843,263.234 5.988,262.725 6.046 C 262.110 6.117,262.060 6.209,261.993 7.368 C 261.931 8.441,261.848 8.624,261.393 8.688 C 260.896 8.759,260.860 8.901,260.796 11.057 C 260.729 13.317,260.717 13.358,260.016 13.772 C 259.316 14.186,259.304 14.227,259.304 16.220 C 259.304 18.049,259.259 18.247,258.849 18.247 C 258.218 18.247,258.103 18.691,258.103 21.132 C 258.103 23.126,258.070 23.267,257.563 23.426 C 256.746 23.681,256.670 23.937,256.666 26.471 C 256.663 28.768,256.652 28.812,256.097 28.812 C 255.504 28.812,255.229 30.151,255.224 33.057 C 255.222 33.914,255.143 34.071,254.682 34.137 C 254.165 34.210,254.139 34.325,254.074 36.795 C 254.007 39.324,253.994 39.376,253.441 39.376 C 252.721 39.376,252.589 39.865,252.584 42.540 C 252.581 44.518,252.553 44.628,252.041 44.701 C 251.524 44.775,251.498 44.889,251.432 47.359 C 251.372 49.640,251.315 49.940,250.940 49.940 C 250.105 49.940,249.940 50.444,249.940 52.989 L 249.940 55.462 249.340 55.462 C 248.747 55.462,248.739 55.487,248.739 57.487 C 248.739 59.245,248.681 59.530,248.296 59.652 C 247.599 59.873,247.299 60.851,247.299 62.900 C 247.299 64.680,247.267 64.797,246.759 64.869 C 246.242 64.943,246.216 65.057,246.150 67.527 C 246.083 70.060,246.072 70.108,245.516 70.108 C 244.760 70.108,244.658 70.469,244.658 73.129 C 244.658 75.381,244.655 75.390,244.058 75.390 C 243.487 75.390,243.457 75.459,243.455 76.771 C 243.451 79.453,243.208 80.639,242.645 80.720 C 242.169 80.788,242.133 80.953,242.069 83.349 C 242.004 85.807,241.979 85.912,241.437 86.048 C 240.723 86.227,240.584 86.769,240.580 89.376 C 240.576 91.456,240.570 91.477,239.976 91.477 C 239.558 91.477,239.376 91.345,239.376 91.044 C 239.376 90.491,238.920 90.036,238.367 90.036 C 237.977 90.036,237.935 89.778,237.935 87.395 L 237.935 84.754 237.343 84.754 C 236.755 84.754,236.751 84.738,236.683 82.173 L 236.615 79.592 235.954 79.516 L 235.294 79.440 235.294 76.472 C 235.294 73.522,235.091 72.749,234.317 72.749 C 234.194 72.749,234.094 71.898,234.094 70.858 C 234.094 68.133,233.923 67.467,233.223 67.467 C 232.658 67.467,232.653 67.445,232.653 64.852 C 232.653 62.263,232.647 62.235,232.053 62.086 C 231.466 61.939,231.453 61.886,231.453 59.679 C 231.453 57.019,231.350 56.663,230.587 56.663 C 230.016 56.663,230.012 56.646,230.012 54.037 C 230.012 51.105,229.785 50.180,229.065 50.180 C 228.620 50.180,228.582 49.994,228.519 47.479 C 228.454 44.897,228.428 44.775,227.919 44.702 C 227.412 44.630,227.384 44.503,227.319 42.061 L 227.251 39.496 226.591 39.420 L 225.930 39.344 225.930 36.719 L 225.930 34.094 225.330 34.094 C 224.730 34.094,224.730 34.092,224.730 31.723 C 224.730 28.666,224.566 27.875,223.863 27.555 C 223.337 27.316,223.301 27.155,223.237 24.755 C 223.172 22.321,223.145 22.206,222.629 22.132 C 222.113 22.059,222.089 21.956,222.089 19.811 C 222.089 17.168,221.986 16.807,221.231 16.807 C 220.673 16.807,220.663 16.765,220.596 14.106 C 220.531 11.526,220.504 11.401,219.998 11.329 C 219.510 11.260,219.462 11.104,219.398 9.408 C 219.329 7.593,219.317 7.562,218.667 7.487 C 218.065 7.418,218.007 7.323,218.004 6.407 C 217.999 5.073,217.846 4.898,216.522 4.703 C 215.608 4.568,215.382 4.438,215.321 4.009 L 215.246 3.481 205.812 3.419 C 196.386 3.356,195.438 3.425,195.438 4.180 C 195.438 4.357,195.114 4.567,194.718 4.646 C 194.146 4.760,193.998 4.915,193.998 5.396 C 193.998 5.877,193.878 6.002,193.416 6.002 C 192.966 6.002,192.800 6.164,192.677 6.723 C 192.572 7.200,192.372 7.443,192.083 7.443 C 191.467 7.443,191.357 7.901,191.357 10.464 C 191.357 12.686,191.347 12.725,190.784 12.725 C 190.055 12.725,189.923 13.206,189.919 15.890 C 189.916 17.867,189.888 17.978,189.376 18.051 C 188.857 18.124,188.833 18.234,188.768 20.813 C 188.703 23.363,188.674 23.502,188.177 23.574 C 187.477 23.675,187.328 24.331,187.299 27.431 L 187.275 30.012 186.675 30.012 L 186.074 30.012 186.074 32.623 L 186.074 35.234 185.354 35.378 L 184.634 35.522 184.634 38.169 L 184.634 40.816 184.034 40.816 L 183.433 40.816 183.433 43.431 C 183.433 45.985,183.420 46.050,182.862 46.190 C 182.112 46.378,182.000 46.888,181.996 50.120 L 181.993 52.821 181.393 52.821 C 180.847 52.821,180.792 52.914,180.791 53.842 C 180.786 56.763,180.511 58.103,179.917 58.103 C 179.358 58.103,179.352 58.131,179.352 60.728 C 179.352 63.252,179.331 63.355,178.821 63.429 C 178.136 63.528,177.965 64.180,177.935 66.807 C 177.914 68.699,177.866 68.908,177.457 68.908 C 176.800 68.908,176.711 69.341,176.711 72.513 L 176.711 75.358 176.050 75.434 L 175.390 75.510 175.322 78.076 C 175.257 80.518,175.229 80.645,174.722 80.717 C 174.215 80.789,174.186 80.916,174.122 83.353 L 174.054 85.913 173.341 86.161 L 172.629 86.410 172.629 89.515 L 172.629 92.621 172.029 92.736 L 171.429 92.851 171.425 90.663 C 171.421 87.882,171.294 87.395,170.568 87.395 C 170.015 87.395,170.003 87.344,169.936 84.814 L 169.868 82.233 169.208 82.157 L 168.547 82.081 168.547 79.456 L 168.547 76.831 167.947 76.831 L 167.347 76.831 167.347 74.358 C 167.347 71.813,167.182 71.309,166.347 71.309 C 165.972 71.309,165.915 71.009,165.854 68.727 C 165.789 66.257,165.763 66.143,165.246 66.070 C 164.730 65.996,164.706 65.893,164.706 63.748 C 164.706 61.106,164.603 60.744,163.848 60.744 C 163.292 60.744,163.280 60.696,163.213 58.163 C 163.148 55.693,163.122 55.579,162.605 55.506 C 162.098 55.433,162.065 55.315,162.065 53.555 C 162.065 50.846,161.893 50.180,161.194 50.180 C 160.630 50.180,160.624 50.153,160.624 47.653 C 160.624 45.179,160.612 45.121,160.024 44.898 C 159.464 44.685,159.424 44.559,159.424 43.013 C 159.424 40.671,159.219 39.862,158.549 39.557 C 158.025 39.318,157.983 39.160,157.983 37.432 C 157.983 35.367,157.705 34.334,157.149 34.334 C 156.854 34.334,156.783 33.990,156.783 32.569 C 156.783 30.558,156.457 29.391,155.797 29.038 C 155.406 28.829,155.342 28.511,155.342 26.762 C 155.342 25.220,155.264 24.730,155.019 24.730 C 154.203 24.730,153.902 23.899,153.902 21.650 C 153.902 19.461,153.898 19.448,153.301 19.448 L 152.701 19.448 152.701 16.801 L 152.701 14.154 151.989 14.011 L 151.276 13.869 151.208 11.316 C 151.144 8.893,151.114 8.760,150.612 8.688 C 150.157 8.624,150.074 8.441,150.012 7.368 C 149.945 6.209,149.894 6.117,149.280 6.046 C 148.768 5.988,148.619 5.843,148.619 5.405 C 148.619 4.974,148.451 4.803,147.910 4.684 C 147.520 4.599,147.138 4.332,147.062 4.091 C 146.985 3.850,146.683 3.589,146.391 3.511 C 145.654 3.313,126.408 3.323,126.210 3.521 M80.716 70.648 C 80.791 71.180,80.855 71.190,84.643 71.254 L 88.494 71.320 88.764 72.035 C 89.009 72.684,89.134 72.749,90.135 72.749 L 91.236 72.749 91.236 74.691 C 91.236 76.416,91.176 76.683,90.696 77.071 C 90.173 77.494,90.154 77.658,90.083 82.429 C 90.009 87.342,90.008 87.350,89.454 87.489 C 88.853 87.640,88.603 88.507,88.598 90.456 C 88.596 91.384,88.541 91.477,87.995 91.477 C 87.428 91.477,87.395 91.549,87.395 92.797 C 87.395 94.104,87.388 94.118,86.675 94.118 C 86.072 94.118,85.954 94.213,85.954 94.701 C 85.954 95.124,85.805 95.306,85.414 95.361 C 85.031 95.416,84.852 95.626,84.799 96.084 C 84.742 96.583,84.578 96.747,84.079 96.804 C 83.627 96.856,83.411 97.036,83.359 97.404 C 83.312 97.732,83.086 97.958,82.758 98.004 C 82.387 98.057,82.211 98.273,82.157 98.739 C 82.093 99.292,81.966 99.400,81.377 99.400 C 80.788 99.400,80.672 99.497,80.672 99.992 C 80.672 100.521,80.545 100.601,79.468 100.743 C 78.477 100.875,78.240 101.001,78.125 101.458 C 78.031 101.835,77.781 102.037,77.348 102.087 C 76.854 102.144,76.694 102.309,76.635 102.821 C 76.559 103.480,76.553 103.481,74.654 103.481 C 72.782 103.481,72.749 103.492,72.749 104.082 C 72.749 104.678,72.734 104.682,70.572 104.682 C 68.216 104.682,67.467 104.916,67.467 105.651 C 67.467 106.108,67.267 106.122,60.744 106.122 C 54.431 106.122,54.022 106.096,54.022 105.690 C 54.022 104.906,53.503 104.682,51.693 104.682 C 49.983 104.682,49.940 104.667,49.940 104.082 C 49.940 103.606,49.819 103.481,49.356 103.481 C 48.897 103.481,48.755 103.340,48.695 102.821 C 48.636 102.303,48.478 102.145,47.959 102.085 C 47.450 102.026,47.299 101.881,47.299 101.451 C 47.299 101.055,47.124 100.848,46.699 100.742 C 46.325 100.648,46.098 100.421,46.098 100.141 C 46.098 99.893,45.774 99.344,45.378 98.920 C 44.761 98.259,44.658 97.962,44.658 96.847 C 44.658 95.594,44.632 95.541,43.938 95.402 L 43.217 95.258 43.217 88.701 L 43.217 82.145 43.878 82.069 C 44.493 81.998,44.543 81.908,44.610 80.732 C 44.669 79.720,44.766 79.472,45.103 79.472 C 45.801 79.472,46.098 78.955,46.098 77.743 C 46.098 76.674,46.142 76.591,46.699 76.591 C 47.179 76.591,47.299 76.471,47.299 75.990 C 47.299 75.484,47.411 75.390,48.019 75.390 C 48.657 75.390,48.739 75.309,48.739 74.682 C 48.739 73.998,48.781 73.972,50.000 73.902 C 51.098 73.839,51.270 73.760,51.337 73.289 C 51.403 72.826,51.559 72.749,52.430 72.749 C 53.520 72.749,54.022 72.431,54.022 71.741 C 54.022 71.361,54.252 71.309,55.916 71.309 C 57.737 71.309,57.817 71.285,57.962 70.708 L 58.112 70.108 69.376 70.108 L 80.639 70.108 80.716 70.648 " stroke="none" fill="#253440" fill-rule="evenodd"></path></g></svg>