<svg id="svg" version="1.1" xmlns="http://www.w3.org/2000/svg" xmlns:xlink="http://www.w3.org/1999/xlink" width="400" height="400" viewBox="0, 0, 400,400"><g id="svgg"><path id="path0" d="M91.429 108.000 C 89.551 109.341,89.449 109.762,90.470 111.938 C 91.420 113.965,91.510 114.806,92.548 131.400 C 93.471 146.167,93.910 151.041,94.636 154.600 C 94.995 156.360,95.431 159.870,95.605 162.400 C 95.778 164.930,96.115 169.790,96.352 173.200 C 96.589 176.610,96.969 182.280,97.197 185.800 C 97.425 189.320,97.807 193.370,98.045 194.800 C 98.284 196.230,98.618 198.849,98.787 200.619 C 98.957 202.390,99.197 204.190,99.322 204.619 C 99.447 205.049,99.835 209.720,100.184 215.000 C 101.476 234.552,102.105 241.855,102.682 244.000 C 103.270 246.188,103.541 249.253,104.364 263.000 C 104.906 272.057,105.983 285.648,106.184 285.974 C 106.978 287.258,108.808 309.193,109.472 325.382 L 109.685 330.565 111.733 332.488 C 113.473 334.122,114.146 334.477,116.191 334.842 C 118.680 335.287,120.273 335.598,123.932 336.352 C 125.105 336.594,126.561 337.145,127.167 337.577 C 127.773 338.008,129.334 338.549,130.635 338.779 C 131.936 339.009,133.720 339.360,134.600 339.560 C 135.480 339.760,137.276 340.137,138.590 340.398 C 139.905 340.660,141.435 341.190,141.990 341.576 C 142.546 341.962,143.900 342.462,145.000 342.688 C 152.818 344.289,155.526 344.976,156.400 345.583 C 156.950 345.965,158.300 346.462,159.400 346.688 C 167.316 348.309,169.933 348.984,170.862 349.644 C 171.446 350.060,172.173 350.400,172.478 350.400 C 172.783 350.400,174.015 350.644,175.216 350.943 C 176.417 351.241,178.840 351.796,180.600 352.176 C 182.360 352.555,184.520 353.198,185.400 353.603 C 188.873 355.203,201.738 357.915,202.572 357.223 C 203.207 356.696,206.128 355.971,212.400 354.785 C 213.830 354.514,215.465 353.966,216.034 353.566 C 216.603 353.167,218.403 352.558,220.034 352.213 C 221.665 351.868,224.196 351.319,225.657 350.993 C 227.119 350.667,228.611 350.400,228.973 350.400 C 229.336 350.400,230.120 350.046,230.716 349.614 C 232.005 348.679,234.621 347.979,241.165 346.817 C 242.576 346.566,244.196 346.039,244.765 345.645 C 245.334 345.251,247.060 344.637,248.600 344.282 C 252.653 343.346,257.469 342.400,258.183 342.400 C 258.522 342.400,259.132 342.068,259.539 341.661 C 259.951 341.249,261.674 340.621,263.439 340.239 C 265.177 339.864,267.140 339.403,267.800 339.215 C 268.460 339.027,269.866 338.754,270.925 338.608 C 271.984 338.463,273.424 338.006,274.125 337.594 C 275.550 336.757,277.093 336.332,283.200 335.099 C 285.510 334.633,287.638 334.015,287.928 333.726 C 288.218 333.437,288.856 333.101,289.346 332.978 C 290.925 332.581,291.351 331.310,291.424 326.774 C 291.565 317.885,293.117 300.901,293.993 298.651 C 294.300 297.862,294.596 294.146,295.638 278.000 C 296.509 264.496,296.784 261.239,297.397 257.200 C 298.194 251.946,298.914 243.732,299.991 227.600 C 300.828 215.079,301.313 211.025,302.027 210.583 C 302.232 210.457,302.400 208.719,302.400 206.722 C 302.400 204.725,302.577 201.540,302.792 199.645 C 303.008 197.750,303.376 192.960,303.610 189.000 C 304.474 174.373,304.799 170.527,305.435 167.400 C 305.794 165.640,306.158 163.840,306.245 163.400 C 306.332 162.960,306.601 159.270,306.844 155.200 C 307.087 151.130,307.433 145.730,307.613 143.200 C 307.793 140.670,308.128 135.723,308.357 132.207 C 308.740 126.330,309.014 124.394,310.035 120.354 C 310.236 119.558,310.400 117.918,310.400 116.708 C 310.400 115.499,310.587 113.540,310.816 112.355 C 311.111 110.827,311.104 109.735,310.792 108.600 L 310.352 107.000 201.590 107.000 L 92.828 107.000 91.429 108.000 M271.708 151.252 C 272.394 151.937,273.011 153.785,272.892 154.800 C 272.853 155.130,272.632 158.640,272.400 162.600 C 271.601 176.226,270.552 180.804,268.071 181.500 C 266.952 181.814,214.409 181.891,182.441 181.627 C 159.825 181.439,162.026 180.265,163.740 191.600 C 164.089 193.910,164.380 198.145,164.387 201.011 C 164.405 208.278,161.123 207.519,190.820 207.120 C 204.559 206.935,226.870 206.832,240.400 206.892 C 267.700 207.012,267.012 206.945,267.760 209.557 C 268.346 211.605,267.490 221.880,266.587 223.626 C 266.023 224.717,265.813 226.551,265.562 232.598 C 265.389 236.779,265.059 242.720,264.829 245.800 C 264.599 248.880,264.217 254.190,263.980 257.600 C 263.743 261.010,263.191 265.330,262.753 267.200 C 262.240 269.392,261.825 273.230,261.586 278.000 C 260.683 296.043,260.538 296.458,254.624 297.789 C 253.978 297.934,252.988 298.376,252.424 298.770 C 251.336 299.531,250.732 299.704,246.000 300.610 C 240.207 301.719,239.371 301.949,237.368 302.989 C 236.257 303.565,233.830 304.298,231.974 304.618 C 226.606 305.543,225.486 305.820,224.023 306.582 C 222.270 307.496,220.924 307.898,217.200 308.618 C 211.492 309.723,210.941 309.869,209.374 310.693 C 204.681 313.162,198.846 313.354,194.186 311.195 C 191.361 309.886,190.558 309.655,185.200 308.618 C 181.597 307.921,180.138 307.498,178.577 306.695 C 177.265 306.021,173.546 305.028,170.800 304.617 C 168.545 304.280,164.060 302.907,163.000 302.229 C 162.560 301.947,161.660 301.626,161.000 301.515 C 156.016 300.675,151.105 299.420,149.546 298.589 C 148.526 298.045,147.362 297.600,146.959 297.600 C 145.591 297.600,142.823 296.303,142.584 295.550 C 142.453 295.137,142.207 294.800,142.037 294.800 C 141.295 294.800,140.679 292.257,140.344 287.800 C 139.698 279.217,139.261 272.743,138.803 265.000 C 138.557 260.820,138.174 257.069,137.952 256.664 C 136.686 254.355,138.043 250.675,140.682 249.263 C 141.859 248.633,162.713 248.622,164.810 249.250 C 168.621 250.392,169.465 253.050,169.736 264.772 L 169.870 270.545 173.435 272.397 C 175.619 273.532,178.007 274.432,179.600 274.720 C 181.030 274.979,182.920 275.355,183.800 275.557 C 184.680 275.758,186.476 276.137,187.790 276.398 C 189.105 276.660,190.635 277.190,191.190 277.576 C 194.487 279.868,206.093 279.868,208.603 277.576 C 209.140 277.086,211.699 276.381,216.333 275.448 C 220.143 274.680,223.652 273.811,224.130 273.516 C 224.609 273.222,226.080 272.637,227.400 272.217 C 230.852 271.119,230.663 271.564,230.944 263.896 C 231.330 253.334,231.879 246.416,232.514 244.086 C 233.086 241.987,233.082 241.959,231.908 240.186 C 230.358 237.846,230.337 237.838,228.112 238.758 C 226.311 239.502,225.470 239.537,213.600 239.365 C 206.670 239.265,187.320 239.052,170.600 238.891 C 142.127 238.618,140.091 238.552,138.485 237.850 C 135.744 236.653,135.855 237.194,134.619 219.000 C 134.336 214.820,133.815 210.165,133.463 208.655 C 133.111 207.145,132.639 203.095,132.413 199.655 C 132.188 196.215,131.813 190.880,131.579 187.800 C 131.345 184.720,130.911 178.690,130.613 174.400 C 130.316 170.110,129.873 165.790,129.628 164.800 C 127.354 155.593,128.219 151.063,132.318 150.723 C 139.081 150.161,271.117 150.662,271.708 151.252 " stroke="none" fill="#e85322" fill-rule="evenodd"></path><path id="path1" d="M112.400 44.479 C 111.410 44.694,110.426 45.038,110.214 45.241 C 109.652 45.781,109.611 82.756,110.172 83.117 C 111.538 83.998,113.875 84.388,117.800 84.391 C 122.942 84.396,123.727 83.838,123.137 80.600 C 122.381 76.445,122.705 73.758,124.147 72.228 L 125.494 70.800 130.072 70.800 L 134.650 70.800 135.825 72.030 C 136.988 73.247,137.000 73.309,137.000 77.930 C 137.000 84.510,136.908 84.402,142.514 84.394 C 146.546 84.389,149.433 83.900,150.248 83.085 C 150.563 82.770,150.532 45.737,150.216 45.226 C 149.821 44.587,146.685 44.238,142.400 44.357 C 136.736 44.514,136.601 44.654,136.979 49.981 C 137.462 56.788,136.702 57.607,129.926 57.587 C 123.413 57.568,122.508 56.613,122.928 50.208 C 123.297 44.598,123.155 44.400,118.769 44.400 C 116.842 44.400,115.026 44.330,114.733 44.244 C 114.440 44.158,113.390 44.264,112.400 44.479 M164.200 44.417 C 157.533 44.719,157.600 44.662,157.600 50.119 L 157.600 54.445 159.500 55.313 C 160.882 55.944,162.051 56.158,163.788 56.097 C 170.640 55.857,171.648 59.785,170.275 81.380 C 170.105 84.058,181.787 86.162,182.600 83.600 C 182.740 83.160,183.020 82.800,183.223 82.800 C 183.443 82.800,183.563 78.039,183.520 71.091 C 183.426 55.891,183.142 56.528,190.191 56.128 C 195.476 55.829,195.579 55.711,195.591 49.962 C 195.604 43.891,196.775 44.365,181.541 44.275 C 174.643 44.234,166.840 44.298,164.200 44.417 M209.084 44.358 C 206.440 44.521,205.060 44.776,204.835 45.141 C 204.460 45.750,204.099 56.276,203.920 71.800 L 203.800 82.200 204.766 83.300 C 205.708 84.372,205.842 84.400,210.037 84.400 C 216.112 84.400,216.121 84.387,215.755 76.189 C 215.472 69.841,215.829 68.058,217.515 67.411 C 218.121 67.179,220.400 68.362,220.400 68.909 C 220.400 69.094,221.273 70.090,222.341 71.123 C 223.408 72.155,224.397 73.450,224.539 74.000 C 224.681 74.550,225.113 75.398,225.499 75.885 L 226.200 76.770 228.137 75.285 C 229.619 74.149,230.389 73.125,231.411 70.928 C 232.905 67.717,233.614 67.140,235.576 67.542 C 237.557 67.947,238.707 69.623,238.011 71.088 C 237.720 71.700,237.433 73.661,237.374 75.446 C 237.314 77.231,237.146 79.484,237.001 80.453 C 236.538 83.544,237.774 84.402,242.681 84.394 C 248.494 84.385,251.080 83.287,250.621 81.022 C 250.333 79.602,250.303 46.881,250.589 46.418 C 251.553 44.858,246.138 44.018,237.491 44.387 C 236.528 44.428,232.874 48.884,232.462 50.519 C 231.002 56.318,225.772 58.456,223.626 54.130 C 223.062 52.991,222.221 51.642,221.758 51.130 C 220.952 50.240,220.592 49.611,219.022 46.345 C 218.303 44.850,218.107 44.766,214.200 44.269 C 213.540 44.185,211.238 44.225,209.084 44.358 M265.400 44.374 C 262.976 44.499,260.596 44.831,260.100 45.114 L 259.200 45.628 259.160 62.914 C 259.138 72.421,258.994 80.650,258.840 81.200 C 258.558 82.203,259.678 83.600,260.763 83.600 C 261.003 83.600,261.200 83.780,261.200 84.000 C 261.200 84.259,266.326 84.400,275.777 84.400 L 290.355 84.400 290.977 83.511 C 291.880 82.223,291.875 73.932,290.971 73.029 C 290.442 72.500,289.064 72.398,282.271 72.387 C 270.836 72.369,271.600 73.429,271.600 57.600 C 271.600 45.783,271.369 43.729,270.077 44.074 C 269.925 44.115,267.820 44.250,265.400 44.374 " stroke="none" fill="#0b0b0b" fill-rule="evenodd"></path><path id="path2" d="M154.000 0.976 L 154.000 1.952 146.432 2.076 C 138.031 2.214,138.417 2.108,138.114 4.367 L 137.895 6.000 132.576 6.000 C 126.600 6.000,126.000 6.238,126.000 8.614 L 126.000 9.971 122.100 10.086 L 118.200 10.200 118.078 12.100 L 117.956 14.000 113.478 14.047 C 107.109 14.115,106.696 14.241,106.300 16.243 L 105.976 17.883 102.740 18.133 C 99.081 18.415,98.497 18.732,98.323 20.530 C 98.206 21.740,98.105 21.810,96.200 22.000 L 94.200 22.200 94.078 24.100 L 93.956 26.000 90.458 26.000 C 86.483 26.000,86.000 26.267,86.000 28.458 L 86.000 29.956 84.100 30.078 L 82.200 30.200 82.078 32.100 L 81.956 34.000 78.607 34.000 C 74.773 34.000,74.000 34.438,74.000 36.607 C 74.000 37.933,73.967 37.958,72.100 38.078 L 70.200 38.200 70.079 40.079 L 69.958 41.958 68.079 42.079 L 66.200 42.200 66.079 44.079 L 65.958 45.958 64.079 46.079 L 62.200 46.200 62.079 48.079 L 61.958 49.958 60.079 50.079 L 58.200 50.200 58.079 52.079 L 57.958 53.958 56.079 54.079 L 54.200 54.200 54.079 56.079 L 53.958 57.958 52.079 58.079 L 50.200 58.200 50.079 60.079 L 49.958 61.958 48.079 62.079 L 46.200 62.200 46.079 64.079 L 45.958 65.958 44.079 66.079 L 42.200 66.200 42.079 68.079 L 41.958 69.958 40.079 70.079 L 38.200 70.200 38.078 72.100 C 37.958 73.967,37.933 74.000,36.607 74.000 C 34.438 74.000,34.000 74.773,34.000 78.607 L 34.000 81.956 32.100 82.078 L 30.200 82.200 30.078 84.100 L 29.956 86.000 28.458 86.000 C 26.267 86.000,26.000 86.483,26.000 90.458 L 26.000 93.956 24.100 94.078 L 22.200 94.200 22.000 96.200 C 21.810 98.105,21.740 98.206,20.530 98.323 C 18.732 98.497,18.415 99.081,18.133 102.740 L 17.883 105.976 16.243 106.300 C 14.241 106.696,14.115 107.109,14.047 113.478 L 14.000 117.956 12.100 118.078 L 10.200 118.200 10.086 122.100 L 9.971 126.000 8.614 126.000 C 6.238 126.000,6.000 126.600,6.000 132.576 L 6.000 137.895 4.367 138.114 C 2.108 138.417,2.214 138.031,2.076 146.432 L 1.952 154.000 0.976 154.000 L 0.000 154.000 0.000 198.000 L 0.000 242.000 0.976 242.000 L 1.952 242.000 2.076 249.568 C 2.214 257.969,2.108 257.583,4.367 257.886 L 6.000 258.105 6.000 263.424 C 6.000 269.400,6.238 270.000,8.614 270.000 L 9.971 270.000 10.086 273.900 L 10.200 277.800 12.100 277.922 L 14.000 278.044 14.047 282.522 C 14.115 288.891,14.241 289.304,16.243 289.700 L 17.883 290.024 18.133 293.260 C 18.415 296.919,18.732 297.503,20.530 297.677 C 21.740 297.794,21.810 297.895,22.000 299.800 L 22.200 301.800 24.100 301.922 L 26.000 302.044 26.000 305.542 C 26.000 309.517,26.267 310.000,28.458 310.000 L 29.956 310.000 30.078 311.900 L 30.200 313.800 32.100 313.922 L 34.000 314.044 34.000 317.393 C 34.000 321.227,34.438 322.000,36.607 322.000 C 37.933 322.000,37.958 322.033,38.078 323.900 L 38.200 325.800 40.079 325.921 L 41.958 326.042 42.079 327.921 L 42.200 329.800 44.079 329.921 L 45.958 330.042 46.079 331.921 L 46.200 333.800 48.079 333.921 L 49.958 334.042 50.079 335.921 L 50.200 337.800 52.079 337.921 L 53.958 338.042 54.079 339.921 L 54.200 341.800 56.079 341.921 L 57.958 342.042 58.079 343.921 L 58.200 345.800 60.079 345.921 L 61.958 346.042 62.079 347.921 L 62.200 349.800 64.079 349.921 L 65.958 350.042 66.079 351.921 L 66.200 353.800 68.079 353.921 L 69.958 354.042 70.079 355.921 L 70.200 357.800 72.100 357.922 C 73.967 358.042,74.000 358.067,74.000 359.393 C 74.000 361.115,74.892 362.000,76.629 362.000 C 77.383 362.000,78.015 362.135,78.034 362.300 C 78.052 362.465,78.097 363.320,78.134 364.200 C 78.173 365.146,78.404 365.820,78.700 365.850 C 78.975 365.878,80.730 365.923,82.600 365.950 L 86.000 366.000 86.000 367.520 C 86.000 369.735,86.476 370.000,90.458 370.000 L 93.956 370.000 94.078 371.900 L 94.200 373.800 96.200 374.000 C 98.105 374.190,98.206 374.260,98.323 375.470 C 98.497 377.268,99.081 377.585,102.740 377.867 L 105.976 378.117 106.300 379.757 C 106.696 381.759,107.109 381.885,113.478 381.953 L 117.956 382.000 118.078 383.900 L 118.200 385.800 122.100 385.914 L 126.000 386.029 126.000 387.386 C 126.000 389.762,126.600 390.000,132.576 390.000 L 137.895 390.000 138.114 391.633 C 138.417 393.892,138.036 393.786,146.381 393.924 L 153.896 394.047 154.248 395.706 C 154.745 398.047,152.246 397.920,198.000 397.920 C 243.754 397.920,241.255 398.047,241.752 395.706 L 242.104 394.047 249.619 393.924 C 257.964 393.786,257.583 393.892,257.886 391.633 L 258.105 390.000 263.424 390.000 C 269.400 390.000,270.000 389.762,270.000 387.386 L 270.000 386.029 273.900 385.914 L 277.800 385.800 277.922 383.900 L 278.044 382.000 282.522 381.953 C 288.891 381.885,289.304 381.759,289.700 379.757 L 290.024 378.117 293.260 377.867 C 296.919 377.585,297.503 377.268,297.677 375.470 C 297.794 374.260,297.895 374.190,299.800 374.000 L 301.800 373.800 301.922 371.900 L 302.044 370.000 305.542 370.000 C 309.520 370.000,310.000 369.734,310.000 367.531 L 310.000 366.021 315.900 365.911 L 321.800 365.800 321.914 361.921 L 322.028 358.043 323.914 357.921 L 325.800 357.800 325.921 355.921 L 326.042 354.042 327.921 353.921 L 329.800 353.800 329.921 351.921 L 330.042 350.042 331.921 349.921 L 333.800 349.800 333.921 347.921 L 334.042 346.042 335.921 345.921 L 337.800 345.800 337.921 343.921 L 338.042 342.042 339.921 341.921 L 341.800 341.800 341.921 339.921 L 342.042 338.042 343.921 337.921 L 345.800 337.800 345.921 335.921 L 346.042 334.042 347.921 333.921 L 349.800 333.800 349.921 331.921 L 350.042 330.042 351.921 329.921 L 353.800 329.800 353.921 327.921 L 354.042 326.042 355.921 325.921 L 357.800 325.800 357.922 323.900 C 358.042 322.033,358.067 322.000,359.393 322.000 C 361.562 322.000,362.000 321.227,362.000 317.393 L 362.000 314.044 363.900 313.922 L 365.800 313.800 365.922 311.900 L 366.044 310.000 367.542 310.000 C 369.733 310.000,370.000 309.517,370.000 305.542 L 370.000 302.044 371.900 301.922 L 373.800 301.800 374.000 299.800 C 374.190 297.895,374.260 297.794,375.470 297.677 C 377.268 297.503,377.585 296.919,377.867 293.260 L 378.117 290.024 379.757 289.700 C 381.759 289.304,381.885 288.891,381.953 282.522 L 382.000 278.044 383.900 277.922 L 385.800 277.800 385.914 273.900 L 386.029 270.000 387.386 270.000 C 389.762 270.000,390.000 269.400,390.000 263.424 L 390.000 258.105 391.633 257.886 C 393.892 257.583,393.786 257.964,393.924 249.619 L 394.047 242.104 395.706 241.752 C 398.047 241.255,397.920 243.754,397.920 198.000 C 397.920 152.246,398.047 154.745,395.706 154.248 L 394.047 153.896 393.924 146.381 C 393.786 138.036,393.892 138.417,391.633 138.114 L 390.000 137.895 390.000 132.576 C 390.000 126.600,389.762 126.000,387.386 126.000 L 386.029 126.000 385.914 122.100 L 385.800 118.200 383.900 118.078 L 382.000 117.956 381.953 113.478 C 381.885 107.109,381.759 106.696,379.757 106.300 L 378.117 105.976 377.867 102.740 C 377.585 99.081,377.268 98.497,375.470 98.323 C 374.260 98.206,374.190 98.105,374.000 96.200 L 373.800 94.200 371.900 94.078 L 370.000 93.956 370.000 90.458 C 370.000 86.483,369.733 86.000,367.542 86.000 L 366.044 86.000 365.922 84.100 L 365.800 82.200 363.900 82.078 L 362.000 81.956 362.000 78.607 C 362.000 74.773,361.562 74.000,359.393 74.000 C 358.067 74.000,358.042 73.967,357.922 72.100 L 357.800 70.200 355.921 70.079 L 354.042 69.958 353.921 68.079 L 353.800 66.200 351.921 66.079 L 350.042 65.958 349.921 64.079 L 349.800 62.200 347.921 62.079 L 346.042 61.958 345.921 60.079 L 345.800 58.200 343.921 58.079 L 342.042 57.958 341.921 56.079 L 341.800 54.200 339.921 54.079 L 338.042 53.958 337.921 52.079 L 337.800 50.200 335.921 50.079 L 334.042 49.958 333.921 48.079 L 333.800 46.200 331.921 46.079 L 330.042 45.958 329.921 44.079 L 329.800 42.200 327.921 42.079 L 326.042 41.958 325.921 40.079 L 325.800 38.200 323.900 38.078 C 321.967 37.954,321.731 37.609,322.034 35.345 C 322.053 35.204,321.828 34.937,321.534 34.751 C 321.135 34.498,321.126 34.411,321.500 34.406 C 321.775 34.403,322.000 34.119,322.000 33.776 C 322.000 33.433,321.832 33.256,321.628 33.383 C 321.423 33.509,321.142 33.430,321.004 33.207 C 320.866 32.983,320.943 32.800,321.176 32.800 C 321.752 32.800,321.713 31.473,321.120 30.880 C 320.424 30.184,319.061 30.260,319.337 30.980 C 319.482 31.358,319.367 31.485,319.005 31.347 C 318.700 31.230,318.548 30.879,318.668 30.567 C 318.848 30.099,318.112 30.000,314.443 30.000 L 310.000 30.000 310.000 28.480 C 310.000 26.265,309.524 26.000,305.542 26.000 L 302.044 26.000 301.922 24.100 L 301.800 22.200 299.800 22.000 C 297.895 21.810,297.794 21.740,297.677 20.530 C 297.503 18.732,296.919 18.415,293.260 18.133 L 290.024 17.883 289.700 16.243 C 289.304 14.241,288.891 14.115,282.522 14.047 L 278.044 14.000 277.922 12.100 L 277.800 10.200 273.900 10.086 L 270.000 9.971 270.000 8.614 C 270.000 6.238,269.400 6.000,263.424 6.000 L 258.105 6.000 257.886 4.367 C 257.583 2.108,257.969 2.214,249.568 2.076 L 242.000 1.952 242.000 0.976 L 242.000 0.000 198.000 0.000 L 154.000 0.000 154.000 0.976 M119.101 40.865 C 124.065 40.807,125.194 42.508,125.198 50.051 C 125.201 55.367,125.092 55.263,130.458 55.114 L 134.600 55.000 134.822 49.600 C 135.150 41.605,136.240 40.738,146.071 40.650 C 147.990 40.633,151.968 42.686,152.451 43.942 C 152.887 45.080,152.995 83.462,152.564 84.600 C 151.380 87.730,145.570 89.208,139.198 88.000 C 135.735 87.343,135.087 85.985,134.809 78.800 L 134.600 73.400 130.458 73.286 C 125.091 73.137,125.324 72.864,125.128 79.512 C 124.895 87.385,124.390 88.007,117.980 88.315 C 111.849 88.611,109.043 87.554,107.723 84.451 C 107.054 82.880,106.896 46.040,107.551 44.342 C 108.419 42.092,112.244 40.213,114.981 40.692 C 115.630 40.806,117.484 40.884,119.101 40.865 M176.200 40.780 C 177.960 40.705,180.120 40.656,181.000 40.669 C 181.880 40.683,184.040 40.689,185.800 40.682 C 194.260 40.652,194.210 40.646,195.383 41.820 C 197.126 43.562,197.557 45.391,197.423 50.469 C 197.217 58.222,196.154 59.600,190.374 59.600 C 185.099 59.600,185.475 58.637,185.568 71.921 C 185.677 87.518,185.273 88.402,178.025 88.398 C 167.615 88.392,167.365 88.035,167.499 73.341 C 167.586 63.726,167.518 62.305,166.899 60.941 L 166.200 59.400 163.613 59.521 C 161.462 59.622,160.675 59.465,158.948 58.591 C 155.412 56.802,155.400 56.773,155.400 49.964 L 155.400 44.013 156.800 42.631 C 158.326 41.125,165.302 40.163,170.800 40.700 C 172.010 40.818,174.440 40.854,176.200 40.780 M215.954 41.547 C 216.310 41.957,217.220 42.429,217.978 42.595 C 219.683 42.970,220.079 43.358,221.093 45.652 C 221.537 46.654,222.430 47.852,223.079 48.314 C 223.948 48.933,224.454 49.821,224.997 51.677 C 225.984 55.050,226.160 55.165,227.381 53.231 C 227.957 52.317,228.875 51.366,229.421 51.118 C 230.118 50.800,230.481 50.241,230.645 49.233 C 231.029 46.865,232.099 45.108,234.000 43.726 C 234.990 43.007,236.306 41.960,236.925 41.401 C 237.543 40.841,238.214 40.485,238.415 40.609 C 238.616 40.733,240.270 40.810,242.090 40.779 C 247.937 40.680,250.400 41.042,250.400 42.002 C 250.400 42.170,250.758 42.400,251.195 42.515 C 252.684 42.904,252.787 44.302,252.808 64.458 C 252.830 85.775,252.903 85.017,250.638 86.851 C 248.805 88.335,241.506 88.859,237.748 87.777 C 235.759 87.204,234.803 83.846,234.772 77.325 C 234.743 71.256,234.393 68.794,233.845 70.800 C 232.563 75.490,232.226 76.083,229.613 78.252 C 228.135 79.480,226.631 80.400,226.104 80.400 C 224.956 80.400,222.981 77.457,222.595 75.169 C 222.423 74.155,222.116 73.600,221.727 73.600 C 220.687 73.600,218.901 72.057,218.613 70.910 C 218.377 69.970,218.283 69.909,217.960 70.486 C 217.351 71.573,217.442 75.898,218.094 76.904 C 219.869 79.645,218.508 85.193,215.447 87.691 C 212.544 90.060,203.289 88.150,201.041 84.719 C 200.251 83.514,200.021 60.824,200.754 56.400 C 200.954 55.190,201.021 52.548,200.902 50.530 C 200.710 47.267,200.781 46.698,201.543 45.407 C 202.014 44.608,202.400 43.712,202.400 43.417 C 202.400 41.020,214.098 39.407,215.954 41.547 M271.953 42.047 C 272.996 43.090,273.614 44.080,273.639 44.747 C 273.660 45.326,273.655 50.476,273.627 56.192 C 273.577 66.643,273.721 68.800,274.470 68.800 C 274.694 68.800,275.399 69.172,276.039 69.627 C 277.248 70.488,282.823 70.587,285.740 69.799 C 286.860 69.497,290.621 70.143,292.134 70.898 C 293.548 71.604,293.916 73.477,293.758 79.170 C 293.488 88.909,294.465 88.402,276.011 88.394 C 259.423 88.387,257.640 88.041,256.033 84.513 C 255.222 82.733,255.509 45.255,256.344 43.831 C 257.547 41.783,259.631 41.028,264.800 40.770 C 267.330 40.644,269.604 40.509,269.853 40.470 C 270.102 40.432,271.047 41.141,271.953 42.047 M202.640 104.080 C 261.227 104.075,309.334 103.964,309.545 103.834 C 310.164 103.451,312.346 104.911,312.804 106.014 C 313.506 107.703,313.502 107.809,311.608 133.200 C 311.403 135.950,311.034 139.010,310.788 140.000 C 310.542 140.990,310.299 142.970,310.248 144.400 C 310.197 145.830,309.858 148.530,309.495 150.400 C 309.133 152.270,308.855 154.970,308.878 156.400 C 308.917 158.778,308.518 165.593,307.601 178.200 C 307.409 180.840,307.086 183.900,306.882 185.000 C 305.802 190.821,305.010 199.148,304.391 211.200 C 304.160 215.710,303.797 220.840,303.585 222.600 C 303.373 224.360,303.199 227.063,303.199 228.606 C 303.200 230.446,302.919 232.166,302.384 233.606 C 301.845 235.056,301.571 236.749,301.577 238.600 C 301.581 240.140,301.396 243.290,301.166 245.600 C 300.935 247.910,300.572 252.590,300.358 256.000 C 300.144 259.410,299.817 264.630,299.630 267.600 C 299.444 270.570,299.071 273.540,298.801 274.200 C 298.268 275.502,297.718 280.884,297.186 290.000 C 296.204 306.806,294.967 321.172,294.378 322.600 C 294.106 323.260,293.759 325.690,293.607 328.000 C 293.160 334.782,292.235 335.807,285.512 336.964 C 283.150 337.371,280.719 338.056,279.800 338.573 C 278.023 339.574,276.532 339.994,270.451 341.204 C 268.170 341.658,265.799 342.290,265.183 342.609 C 263.486 343.486,260.829 344.288,258.600 344.595 C 255.840 344.976,252.891 345.768,250.563 346.756 C 248.537 347.616,240.619 349.600,239.212 349.600 C 238.775 349.600,237.469 350.034,236.309 350.565 C 234.240 351.511,232.803 351.948,229.200 352.726 C 226.130 353.389,221.028 354.845,220.604 355.180 C 220.382 355.356,219.660 355.603,219.000 355.729 C 212.747 356.924,209.883 357.668,207.600 358.692 C 202.622 360.923,198.322 361.038,194.199 359.051 C 191.266 357.637,186.970 356.402,184.974 356.398 C 183.395 356.395,180.985 355.730,178.800 354.695 C 175.823 353.285,174.399 352.863,171.635 352.573 C 169.184 352.316,165.902 351.355,160.310 349.259 C 159.050 348.786,157.325 348.400,156.476 348.400 C 154.876 348.400,150.399 347.106,149.000 346.239 C 148.263 345.783,145.125 345.016,139.600 343.942 C 137.025 343.442,135.730 343.019,133.000 341.789 C 131.900 341.294,130.010 340.763,128.800 340.611 C 126.486 340.319,123.943 339.734,122.600 339.185 C 122.160 339.004,120.810 338.561,119.600 338.200 C 118.390 337.839,117.040 337.386,116.600 337.195 C 116.160 337.003,115.170 336.735,114.400 336.598 C 107.937 335.452,107.417 333.992,106.558 314.600 C 106.442 311.960,106.199 309.440,106.019 309.000 C 105.107 306.772,104.744 304.399,104.338 298.000 C 103.346 282.362,103.201 279.944,102.890 273.903 C 102.685 269.923,102.388 267.428,102.083 267.123 C 101.817 266.857,101.597 265.731,101.593 264.620 C 101.589 263.509,101.320 260.980,100.995 259.000 C 100.669 257.020,100.402 254.168,100.402 252.663 C 100.401 251.158,100.218 247.828,99.995 245.263 C 98.874 232.355,98.400 225.792,98.400 223.199 C 98.400 221.181,98.096 219.439,97.364 217.271 C 96.623 215.073,96.384 213.691,96.525 212.409 C 96.634 211.423,96.564 208.943,96.370 206.896 C 96.177 204.849,95.924 201.089,95.809 198.539 C 95.694 195.990,95.434 192.801,95.231 191.452 C 95.028 190.104,94.744 186.300,94.600 183.000 C 94.456 179.700,94.172 176.325,93.969 175.500 C 93.766 174.675,93.410 173.272,93.179 172.383 C 92.787 170.877,92.316 164.090,91.669 150.600 C 91.521 147.520,91.261 144.786,91.092 144.525 C 90.922 144.264,90.723 141.556,90.650 138.507 C 90.563 134.953,90.328 132.612,89.993 131.987 C 89.441 130.955,89.055 127.735,88.388 118.600 C 88.163 115.520,87.877 112.159,87.752 111.132 C 87.431 108.496,88.515 104.881,89.710 104.603 C 93.163 103.801,93.929 103.696,94.959 103.881 C 95.597 103.996,144.053 104.085,202.640 104.080 M265.167 152.564 C 265.075 152.654,235.390 152.845,199.200 152.989 C 148.281 153.191,133.231 153.360,132.651 153.740 C 131.864 154.255,132.113 162.996,133.214 173.468 C 133.426 175.486,133.604 178.186,133.610 179.468 C 133.615 180.751,133.796 182.563,134.011 183.495 C 135.038 187.945,135.550 193.120,136.597 209.600 C 137.380 221.921,137.851 227.531,138.415 231.230 C 139.138 235.979,136.162 235.573,171.400 235.731 C 187.900 235.805,207.250 235.921,214.400 235.990 C 221.550 236.058,227.980 235.985,228.690 235.827 C 229.867 235.566,231.229 235.832,233.906 236.845 C 235.867 237.588,236.564 241.100,235.608 245.425 C 235.173 247.391,234.813 250.221,234.809 251.713 C 234.804 253.205,234.530 255.072,234.200 255.862 C 233.803 256.812,233.598 258.668,233.593 261.349 C 233.580 268.064,232.724 271.928,230.903 273.485 C 228.526 275.518,226.676 276.260,223.200 276.574 C 220.496 276.819,218.128 277.440,215.400 278.621 C 213.451 279.464,211.855 279.904,208.200 280.606 C 206.660 280.902,204.680 281.350,203.800 281.601 C 199.494 282.831,198.342 282.949,197.048 282.293 C 195.500 281.508,193.545 280.938,191.200 280.586 C 188.504 280.182,185.278 279.303,183.438 278.470 C 181.500 277.594,179.009 276.958,175.991 276.570 C 172.208 276.084,168.234 273.590,167.828 271.447 C 167.495 269.689,166.796 260.080,166.792 257.200 C 166.785 252.354,166.992 252.423,152.362 252.410 C 138.540 252.397,140.086 250.096,141.599 268.437 C 141.819 271.097,142.073 273.395,142.165 273.543 C 142.539 274.148,143.303 280.525,143.586 285.400 C 144.128 294.752,144.217 294.876,151.200 296.007 C 152.850 296.274,155.100 296.907,156.200 297.414 C 158.135 298.305,159.813 298.756,166.600 300.210 C 168.360 300.587,170.343 301.203,171.006 301.579 C 171.670 301.955,173.650 302.580,175.406 302.969 C 177.163 303.357,179.770 303.937,181.200 304.256 C 182.630 304.576,184.520 305.172,185.400 305.581 C 186.280 305.990,188.350 306.617,190.000 306.973 C 192.974 307.616,193.773 307.818,197.973 308.993 C 200.449 309.685,202.494 309.771,203.505 309.225 C 203.887 309.019,205.550 308.574,207.200 308.235 C 215.015 306.630,216.254 306.297,217.000 305.598 C 217.444 305.183,218.958 304.644,220.400 304.388 C 221.830 304.135,223.720 303.773,224.600 303.585 C 225.480 303.397,227.190 303.040,228.400 302.792 C 229.610 302.545,231.143 302.026,231.806 301.640 C 232.470 301.254,234.450 300.622,236.206 300.236 C 243.708 298.589,245.034 298.236,246.186 297.580 C 246.854 297.199,248.840 296.593,250.600 296.233 C 256.256 295.077,258.400 292.694,258.400 287.564 C 258.400 286.400,258.577 284.447,258.793 283.224 C 259.009 282.001,259.389 277.040,259.638 272.200 C 260.499 255.486,260.733 252.574,261.760 245.800 C 262.328 242.060,262.971 235.940,263.190 232.200 C 263.409 228.460,263.771 223.976,263.994 222.236 C 264.854 215.532,264.261 209.632,262.720 209.584 C 259.349 209.478,211.810 209.637,191.600 209.821 C 163.017 210.082,164.021 210.152,162.812 207.794 C 162.475 207.137,162.090 206.510,161.956 206.400 C 161.620 206.125,161.101 201.165,159.720 185.039 C 159.175 178.675,159.072 178.703,182.200 178.981 C 236.724 179.637,266.088 179.644,266.799 179.001 C 267.673 178.210,268.311 174.149,268.563 167.769 C 268.748 163.079,269.348 159.396,270.054 158.620 C 270.507 158.122,270.489 156.935,270.001 155.180 C 269.589 153.696,265.994 151.750,265.167 152.564 " stroke="none" fill="#f8f8f8" fill-rule="evenodd"></path><path id="path3" d="M89.462 104.905 C 88.533 105.584,87.596 109.721,88.004 111.340 C 88.179 112.033,88.430 114.971,88.561 117.870 C 88.781 122.729,88.958 124.105,90.017 129.200 C 90.222 130.190,90.588 133.880,90.830 137.400 C 91.072 140.920,91.418 145.420,91.600 147.400 C 91.781 149.380,92.134 154.870,92.385 159.600 C 92.662 164.828,93.140 169.612,93.604 171.800 C 94.025 173.780,94.562 178.190,94.799 181.600 C 95.036 185.010,95.399 189.780,95.607 192.200 C 95.814 194.620,96.170 200.212,96.397 204.626 C 96.625 209.041,97.095 213.901,97.443 215.426 C 97.790 216.952,98.327 221.350,98.636 225.200 C 98.944 229.050,99.383 234.450,99.611 237.200 C 99.839 239.950,100.186 245.440,100.381 249.400 C 100.577 253.360,100.935 257.590,101.176 258.800 C 101.418 260.010,101.796 261.900,102.016 263.000 C 102.237 264.100,102.603 267.880,102.829 271.400 C 103.055 274.920,103.401 279.420,103.597 281.400 C 103.793 283.380,104.156 288.780,104.404 293.400 C 104.651 298.020,105.128 303.240,105.464 305.000 C 105.800 306.760,106.235 310.270,106.431 312.800 C 106.627 315.330,106.971 318.950,107.194 320.845 C 107.417 322.740,107.600 325.643,107.600 327.296 C 107.600 333.176,109.780 335.888,115.085 336.606 C 117.495 336.932,119.349 337.469,121.438 338.446 C 123.348 339.339,126.571 340.194,129.381 340.553 C 131.536 340.829,132.925 341.229,136.600 342.634 C 137.920 343.138,139.900 343.735,141.000 343.961 C 146.671 345.124,149.033 345.746,150.922 346.575 C 152.065 347.077,154.620 347.795,156.600 348.171 C 160.838 348.976,162.179 349.345,165.400 350.594 C 166.720 351.105,168.880 351.741,170.200 352.007 C 174.997 352.974,177.447 353.635,179.800 354.600 C 181.120 355.141,184.012 355.937,186.226 356.368 C 190.374 357.177,191.686 357.585,195.800 359.351 C 197.334 360.009,198.951 360.384,200.281 360.391 C 202.340 360.400,202.894 360.246,206.400 358.686 C 208.762 357.635,210.649 357.142,216.800 355.969 C 218.230 355.696,220.300 355.089,221.400 354.619 C 224.031 353.495,225.878 352.985,230.063 352.229 C 231.967 351.885,234.397 351.223,235.463 350.758 C 238.098 349.609,242.347 348.400,243.752 348.400 C 245.223 348.400,247.700 347.723,250.000 346.692 C 252.334 345.646,254.406 345.104,260.400 343.972 C 261.610 343.743,263.050 343.361,263.600 343.122 C 267.595 341.387,269.116 340.924,272.000 340.563 C 273.210 340.411,275.460 339.845,277.000 339.303 C 278.540 338.762,280.704 338.000,281.809 337.610 C 282.914 337.220,284.624 336.780,285.609 336.631 C 288.165 336.245,290.808 335.475,291.188 335.003 C 292.600 333.258,293.184 331.388,293.404 327.916 C 293.630 324.361,293.978 321.610,294.814 316.800 C 295.024 315.590,295.387 311.720,295.620 308.200 C 295.853 304.680,296.199 299.640,296.389 297.000 C 296.580 294.360,296.940 289.230,297.191 285.600 C 297.441 281.970,297.912 277.560,298.237 275.800 C 298.562 274.040,299.089 269.450,299.408 265.600 C 299.952 259.040,300.153 256.271,301.191 241.000 C 301.415 237.700,301.952 232.840,302.384 230.200 C 303.179 225.343,303.724 218.969,304.402 206.600 C 304.859 198.269,305.534 190.470,306.029 187.800 C 306.841 183.425,307.419 177.005,308.571 159.600 C 309.181 150.390,309.846 143.139,310.183 142.025 C 310.532 140.873,311.543 131.065,311.980 124.600 C 312.218 121.080,312.560 116.335,312.740 114.056 C 313.137 109.013,312.765 106.210,311.557 105.163 C 310.436 104.190,90.788 103.935,89.462 104.905 M310.792 108.600 C 311.104 109.735,311.111 110.827,310.816 112.355 C 310.587 113.540,310.400 115.499,310.400 116.708 C 310.400 117.918,310.236 119.558,310.035 120.354 C 309.014 124.394,308.740 126.330,308.357 132.207 C 308.128 135.723,307.793 140.670,307.613 143.200 C 307.433 145.730,307.087 151.130,306.844 155.200 C 306.601 159.270,306.332 162.960,306.245 163.400 C 306.158 163.840,305.794 165.640,305.435 167.400 C 304.799 170.527,304.474 174.373,303.610 189.000 C 303.376 192.960,303.008 197.750,302.792 199.645 C 302.577 201.540,302.400 204.725,302.400 206.722 C 302.400 208.719,302.232 210.457,302.027 210.583 C 301.313 211.025,300.828 215.079,299.991 227.600 C 298.914 243.732,298.194 251.946,297.397 257.200 C 296.784 261.239,296.509 264.496,295.638 278.000 C 294.596 294.146,294.300 297.862,293.993 298.651 C 293.117 300.901,291.565 317.885,291.424 326.774 C 291.351 331.310,290.925 332.581,289.346 332.978 C 288.856 333.101,288.218 333.437,287.928 333.726 C 287.638 334.015,285.510 334.633,283.200 335.099 C 277.093 336.332,275.550 336.757,274.125 337.594 C 273.424 338.006,271.984 338.463,270.925 338.608 C 269.866 338.754,268.460 339.027,267.800 339.215 C 267.140 339.403,265.177 339.864,263.439 340.239 C 261.674 340.621,259.951 341.249,259.539 341.661 C 259.132 342.068,258.522 342.400,258.183 342.400 C 257.469 342.400,252.653 343.346,248.600 344.282 C 247.060 344.637,245.334 345.251,244.765 345.645 C 244.196 346.039,242.576 346.566,241.165 346.817 C 234.621 347.979,232.005 348.679,230.716 349.614 C 230.120 350.046,229.336 350.400,228.973 350.400 C 228.611 350.400,227.119 350.667,225.657 350.993 C 224.196 351.319,221.665 351.868,220.034 352.213 C 218.403 352.558,216.603 353.167,216.034 353.566 C 215.465 353.966,213.830 354.514,212.400 354.785 C 206.128 355.971,203.207 356.696,202.572 357.223 C 201.738 357.915,188.873 355.203,185.400 353.603 C 184.520 353.198,182.360 352.555,180.600 352.176 C 178.840 351.796,176.417 351.241,175.216 350.943 C 174.015 350.644,172.783 350.400,172.478 350.400 C 172.173 350.400,171.446 350.060,170.862 349.644 C 169.933 348.984,167.316 348.309,159.400 346.688 C 158.300 346.462,156.950 345.965,156.400 345.583 C 155.526 344.976,152.818 344.289,145.000 342.688 C 143.900 342.462,142.546 341.962,141.990 341.576 C 141.435 341.190,139.905 340.660,138.590 340.398 C 137.276 340.137,135.480 339.760,134.600 339.560 C 133.720 339.360,131.936 339.009,130.635 338.779 C 129.334 338.549,127.773 338.008,127.167 337.577 C 126.561 337.145,125.105 336.594,123.932 336.352 C 120.273 335.598,118.680 335.287,116.191 334.842 C 114.146 334.477,113.473 334.122,111.733 332.488 L 109.685 330.565 109.472 325.382 C 108.808 309.193,106.978 287.258,106.184 285.974 C 105.983 285.648,104.906 272.057,104.364 263.000 C 103.541 249.253,103.270 246.188,102.682 244.000 C 102.105 241.855,101.476 234.552,100.184 215.000 C 99.835 209.720,99.447 205.049,99.322 204.619 C 99.197 204.190,98.957 202.390,98.787 200.619 C 98.618 198.849,98.284 196.230,98.045 194.800 C 97.807 193.370,97.425 189.320,97.197 185.800 C 96.969 182.280,96.589 176.610,96.352 173.200 C 96.115 169.790,95.778 164.930,95.605 162.400 C 95.431 159.870,94.995 156.360,94.636 154.600 C 93.910 151.041,93.471 146.167,92.548 131.400 C 91.510 114.806,91.420 113.965,90.470 111.938 C 89.449 109.762,89.551 109.341,91.429 108.000 L 92.828 107.000 201.590 107.000 L 310.352 107.000 310.792 108.600 M132.318 150.723 C 128.219 151.063,127.354 155.593,129.628 164.800 C 129.873 165.790,130.316 170.110,130.613 174.400 C 130.911 178.690,131.345 184.720,131.579 187.800 C 131.813 190.880,132.188 196.215,132.413 199.655 C 132.639 203.095,133.111 207.145,133.463 208.655 C 133.815 210.165,134.336 214.820,134.619 219.000 C 135.855 237.194,135.744 236.653,138.485 237.850 C 140.091 238.552,142.127 238.618,170.600 238.891 C 187.320 239.052,206.670 239.265,213.600 239.365 C 225.470 239.537,226.311 239.502,228.112 238.758 C 230.337 237.838,230.358 237.846,231.908 240.186 C 233.082 241.959,233.086 241.987,232.514 244.086 C 231.879 246.416,231.330 253.334,230.944 263.896 C 230.663 271.564,230.852 271.119,227.400 272.217 C 226.080 272.637,224.609 273.222,224.130 273.516 C 223.652 273.811,220.143 274.680,216.333 275.448 C 211.699 276.381,209.140 277.086,208.603 277.576 C 206.093 279.868,194.487 279.868,191.190 277.576 C 190.635 277.190,189.105 276.660,187.790 276.398 C 186.476 276.137,184.680 275.758,183.800 275.557 C 182.920 275.355,181.030 274.979,179.600 274.720 C 178.007 274.432,175.619 273.532,173.435 272.397 L 169.870 270.545 169.736 264.772 C 169.465 253.050,168.621 250.392,164.810 249.250 C 162.713 248.622,141.859 248.633,140.682 249.263 C 138.043 250.675,136.686 254.355,137.952 256.664 C 138.174 257.069,138.557 260.820,138.803 265.000 C 139.261 272.743,139.698 279.217,140.344 287.800 C 140.679 292.257,141.295 294.800,142.037 294.800 C 142.207 294.800,142.453 295.137,142.584 295.550 C 142.823 296.303,145.591 297.600,146.959 297.600 C 147.362 297.600,148.526 298.045,149.546 298.589 C 151.105 299.420,156.016 300.675,161.000 301.515 C 161.660 301.626,162.560 301.947,163.000 302.229 C 164.060 302.907,168.545 304.280,170.800 304.617 C 173.546 305.028,177.265 306.021,178.577 306.695 C 180.138 307.498,181.597 307.921,185.200 308.618 C 190.558 309.655,191.361 309.886,194.186 311.195 C 198.846 313.354,204.681 313.162,209.374 310.693 C 210.941 309.869,211.492 309.723,217.200 308.618 C 220.924 307.898,222.270 307.496,224.023 306.582 C 225.486 305.820,226.606 305.543,231.974 304.618 C 233.830 304.298,236.257 303.565,237.368 302.989 C 239.371 301.949,240.207 301.719,246.000 300.610 C 250.732 299.704,251.336 299.531,252.424 298.770 C 252.988 298.376,253.978 297.934,254.624 297.789 C 260.538 296.458,260.683 296.043,261.586 278.000 C 261.825 273.230,262.240 269.392,262.753 267.200 C 263.191 265.330,263.743 261.010,263.980 257.600 C 264.217 254.190,264.599 248.880,264.829 245.800 C 265.059 242.720,265.389 236.779,265.562 232.598 C 265.813 226.551,266.023 224.717,266.587 223.626 C 267.490 221.880,268.346 211.605,267.760 209.557 C 267.012 206.945,267.700 207.012,240.400 206.892 C 226.870 206.832,204.559 206.935,190.820 207.120 C 161.123 207.519,164.405 208.278,164.387 201.011 C 164.380 198.145,164.089 193.910,163.740 191.600 C 162.026 180.265,159.825 181.439,182.441 181.627 C 214.409 181.891,266.952 181.814,268.071 181.500 C 270.552 180.804,271.601 176.226,272.400 162.600 C 272.632 158.640,272.853 155.130,272.892 154.800 C 273.011 153.785,272.394 151.937,271.708 151.252 C 271.117 150.662,139.081 150.161,132.318 150.723 M268.867 153.478 C 270.438 154.171,271.176 157.459,270.022 158.620 C 269.484 159.162,268.866 163.479,268.594 168.600 C 268.465 171.020,268.166 174.170,267.929 175.600 C 267.184 180.091,273.385 179.614,216.033 179.600 C 188.405 179.593,165.027 179.591,164.082 179.594 C 159.937 179.609,159.592 182.011,161.610 196.800 C 161.835 198.450,162.163 201.438,162.339 203.441 C 162.673 207.242,163.096 208.117,165.105 209.163 C 165.787 209.518,177.937 209.617,214.404 209.567 C 251.373 209.515,262.933 209.612,263.372 209.977 C 264.320 210.763,264.689 213.616,264.363 217.624 C 264.194 219.701,263.858 224.550,263.617 228.400 C 263.377 232.250,263.003 236.750,262.787 238.400 C 262.571 240.050,262.396 242.048,262.397 242.840 C 262.399 243.632,262.225 244.802,262.011 245.440 C 261.797 246.078,261.415 248.760,261.161 251.400 C 260.708 256.117,260.593 257.765,259.650 273.000 C 259.391 277.180,259.004 281.818,258.790 283.307 C 258.575 284.797,258.400 287.056,258.400 288.327 C 258.400 289.599,258.242 290.811,258.048 291.020 C 257.855 291.229,257.486 292.060,257.228 292.867 C 256.591 294.861,255.468 295.485,251.182 296.224 C 249.171 296.571,246.957 297.174,246.263 297.564 C 245.006 298.269,238.221 300.078,234.809 300.618 C 233.824 300.774,232.602 301.174,232.093 301.507 C 230.974 302.240,227.592 303.135,221.015 304.437 C 219.704 304.696,218.056 305.232,217.354 305.626 C 216.178 306.286,213.776 306.960,208.600 308.080 C 204.451 308.978,203.620 309.237,203.047 309.811 C 202.181 310.676,198.588 310.584,197.262 309.663 C 196.678 309.257,195.120 308.699,193.800 308.423 C 188.238 307.260,185.339 306.470,183.324 305.568 C 182.403 305.156,180.693 304.644,179.524 304.430 C 178.356 304.216,176.680 303.864,175.800 303.647 C 174.920 303.430,173.390 303.054,172.400 302.812 C 171.410 302.569,169.837 302.017,168.904 301.585 C 167.972 301.153,166.999 300.800,166.743 300.800 C 165.556 300.800,156.024 298.282,154.600 297.592 C 153.720 297.166,151.920 296.635,150.600 296.413 C 143.607 295.235,143.745 295.484,142.386 281.600 C 142.138 279.070,141.776 275.560,141.580 273.800 C 141.385 272.040,141.043 267.990,140.820 264.800 C 140.598 261.610,140.307 257.811,140.173 256.358 C 139.950 253.933,140.011 253.629,140.911 252.658 L 141.892 251.600 151.915 251.600 C 167.829 251.600,166.945 250.992,167.614 262.400 C 168.275 273.648,169.042 274.758,177.183 276.246 C 179.062 276.590,182.490 277.470,184.800 278.202 C 187.110 278.934,189.990 279.747,191.200 280.008 C 192.410 280.270,194.480 280.807,195.800 281.202 C 199.752 282.384,201.176 282.459,203.599 281.616 C 205.583 280.925,206.958 280.605,212.200 279.613 C 213.080 279.447,214.625 278.945,215.634 278.498 C 217.346 277.739,219.494 277.181,225.400 275.963 C 228.212 275.383,228.897 275.079,230.870 273.532 C 232.575 272.196,232.595 272.120,233.193 264.400 C 233.640 258.630,234.432 252.161,235.298 247.200 C 235.872 243.913,235.832 239.181,235.220 238.037 C 234.310 236.337,234.337 236.338,187.139 236.385 L 141.677 236.430 140.139 235.577 C 139.292 235.108,138.434 234.566,138.230 234.372 C 137.843 234.004,137.585 231.314,136.601 217.400 C 135.504 201.901,134.593 191.438,134.188 189.683 C 133.817 188.075,133.184 181.259,132.584 172.400 C 132.263 167.670,131.837 162.107,131.636 160.037 C 131.185 155.393,131.397 153.908,132.618 153.168 C 134.173 152.224,266.710 152.526,268.867 153.478 " stroke="none" fill="#e98065" fill-rule="evenodd"></path><path id="path4" d="M113.000 40.665 C 107.104 41.990,107.191 41.638,107.168 64.194 C 107.143 88.848,107.138 88.837,117.980 88.315 C 124.390 88.007,124.895 87.385,125.128 79.512 C 125.324 72.864,125.091 73.137,130.458 73.286 L 134.600 73.400 134.809 78.800 C 135.087 85.985,135.735 87.343,139.198 88.000 C 145.570 89.208,151.380 87.730,152.564 84.600 C 152.995 83.462,152.887 45.080,152.451 43.942 C 151.968 42.686,147.990 40.633,146.071 40.650 C 136.240 40.738,135.150 41.605,134.822 49.600 L 134.600 55.000 130.458 55.114 C 125.092 55.263,125.201 55.367,125.198 50.051 C 125.194 42.508,124.065 40.807,119.101 40.865 C 117.484 40.884,115.630 40.806,114.981 40.692 C 114.331 40.578,113.440 40.566,113.000 40.665 M163.400 40.867 C 158.211 41.249,158.197 41.253,156.800 42.631 L 155.400 44.013 155.400 49.964 C 155.400 56.773,155.412 56.802,158.948 58.591 C 160.675 59.465,161.462 59.622,163.613 59.521 L 166.200 59.400 166.899 60.941 C 167.518 62.305,167.586 63.726,167.499 73.341 C 167.365 88.035,167.615 88.392,178.025 88.398 C 185.273 88.402,185.677 87.518,185.568 71.921 C 185.475 58.637,185.099 59.600,190.374 59.600 C 196.154 59.600,197.217 58.222,197.423 50.469 C 197.557 45.391,197.126 43.562,195.383 41.820 C 194.210 40.646,194.260 40.652,185.800 40.682 C 184.040 40.689,181.880 40.683,181.000 40.669 C 180.120 40.656,177.960 40.705,176.200 40.780 C 174.440 40.854,172.010 40.818,170.800 40.700 C 169.590 40.581,166.260 40.657,163.400 40.867 M209.200 40.764 C 205.278 41.019,202.400 42.142,202.400 43.417 C 202.400 43.712,202.014 44.608,201.543 45.407 C 200.781 46.698,200.710 47.267,200.902 50.530 C 201.021 52.548,200.954 55.190,200.754 56.400 C 200.021 60.824,200.251 83.514,201.041 84.719 C 203.289 88.150,212.544 90.060,215.447 87.691 C 218.508 85.193,219.869 79.645,218.094 76.904 C 217.442 75.898,217.351 71.573,217.960 70.486 C 218.283 69.909,218.377 69.970,218.613 70.910 C 218.901 72.057,220.687 73.600,221.727 73.600 C 222.116 73.600,222.423 74.155,222.595 75.169 C 222.981 77.457,224.956 80.400,226.104 80.400 C 226.631 80.400,228.135 79.480,229.613 78.252 C 232.226 76.083,232.563 75.490,233.845 70.800 C 234.393 68.794,234.743 71.256,234.772 77.325 C 234.803 83.846,235.759 87.204,237.748 87.777 C 241.506 88.859,248.805 88.335,250.638 86.851 C 252.903 85.017,252.830 85.775,252.808 64.458 C 252.787 44.302,252.684 42.904,251.195 42.515 C 250.758 42.400,250.400 42.170,250.400 42.002 C 250.400 41.042,247.937 40.680,242.090 40.779 C 240.270 40.810,238.616 40.733,238.415 40.609 C 238.214 40.485,237.543 40.841,236.925 41.401 C 236.306 41.960,234.990 43.007,234.000 43.726 C 232.099 45.108,231.029 46.865,230.645 49.233 C 230.481 50.241,230.118 50.800,229.421 51.118 C 228.875 51.366,227.957 52.317,227.381 53.231 C 226.160 55.165,225.984 55.050,224.997 51.677 C 224.454 49.821,223.948 48.933,223.079 48.314 C 222.430 47.852,221.537 46.654,221.093 45.652 C 220.079 43.358,219.683 42.970,217.978 42.595 C 217.220 42.429,216.310 41.957,215.954 41.547 C 215.132 40.599,213.908 40.457,209.200 40.764 M264.800 40.770 C 259.631 41.028,257.547 41.783,256.344 43.831 C 255.509 45.255,255.222 82.733,256.033 84.513 C 257.640 88.041,259.423 88.387,276.011 88.394 C 294.465 88.402,293.488 88.909,293.758 79.170 C 293.916 73.477,293.548 71.604,292.134 70.898 C 290.621 70.143,286.860 69.497,285.740 69.799 C 282.823 70.587,277.248 70.488,276.039 69.627 C 275.399 69.172,274.694 68.800,274.470 68.800 C 273.721 68.800,273.577 66.643,273.627 56.192 C 273.655 50.476,273.660 45.326,273.639 44.747 C 273.598 43.633,270.684 40.341,269.853 40.470 C 269.604 40.509,267.330 40.644,264.800 40.770 M118.769 44.400 C 123.155 44.400,123.297 44.598,122.928 50.208 C 122.508 56.613,123.413 57.568,129.926 57.587 C 136.702 57.607,137.462 56.788,136.979 49.981 C 136.601 44.654,136.736 44.514,142.400 44.357 C 146.685 44.238,149.821 44.587,150.216 45.226 C 150.532 45.737,150.563 82.770,150.248 83.085 C 149.433 83.900,146.546 84.389,142.514 84.394 C 136.908 84.402,137.000 84.510,137.000 77.930 C 137.000 73.309,136.988 73.247,135.825 72.030 L 134.650 70.800 130.072 70.800 L 125.494 70.800 124.147 72.228 C 122.705 73.758,122.381 76.445,123.137 80.600 C 123.727 83.838,122.942 84.396,117.800 84.391 C 113.875 84.388,111.538 83.998,110.172 83.117 C 109.611 82.756,109.652 45.781,110.214 45.241 C 110.704 44.770,114.027 44.037,114.733 44.244 C 115.026 44.330,116.842 44.400,118.769 44.400 M194.841 45.037 C 195.497 45.630,195.599 46.300,195.591 49.962 C 195.579 55.711,195.476 55.829,190.191 56.128 C 183.142 56.528,183.426 55.891,183.520 71.091 C 183.563 78.039,183.443 82.800,183.223 82.800 C 183.020 82.800,182.740 83.160,182.600 83.600 C 181.787 86.162,170.105 84.058,170.275 81.380 C 171.648 59.785,170.640 55.857,163.788 56.097 C 162.051 56.158,160.882 55.944,159.500 55.313 L 157.600 54.445 157.600 50.119 C 157.600 46.070,157.658 45.755,158.500 45.214 C 160.473 43.945,193.457 43.784,194.841 45.037 M216.861 44.656 C 218.045 44.845,218.455 45.166,219.022 46.345 C 220.592 49.611,220.952 50.240,221.758 51.130 C 222.221 51.642,223.062 52.991,223.626 54.130 C 225.772 58.456,231.002 56.318,232.462 50.519 C 232.874 48.884,236.528 44.428,237.491 44.387 C 246.138 44.018,251.553 44.858,250.589 46.418 C 250.303 46.881,250.333 79.602,250.621 81.022 C 251.080 83.287,248.494 84.385,242.681 84.394 C 237.774 84.402,236.538 83.544,237.001 80.453 C 237.146 79.484,237.314 77.231,237.374 75.446 C 237.433 73.661,237.720 71.700,238.011 71.088 C 238.707 69.623,237.557 67.947,235.576 67.542 C 233.614 67.140,232.905 67.717,231.411 70.928 C 230.389 73.125,229.619 74.149,228.137 75.285 L 226.200 76.770 225.499 75.885 C 225.113 75.398,224.681 74.550,224.539 74.000 C 224.397 73.450,223.408 72.155,222.341 71.123 C 221.273 70.090,220.400 69.094,220.400 68.909 C 220.400 68.362,218.121 67.179,217.515 67.411 C 215.829 68.058,215.472 69.841,215.755 76.189 C 216.121 84.387,216.112 84.400,210.037 84.400 C 205.842 84.400,205.708 84.372,204.766 83.300 L 203.800 82.200 203.920 71.800 C 204.099 56.276,204.460 45.750,204.835 45.141 C 205.060 44.776,206.440 44.521,209.084 44.358 C 212.877 44.124,213.752 44.157,216.861 44.656 M270.977 44.889 C 271.507 45.645,271.600 47.548,271.600 57.600 C 271.600 73.429,270.836 72.369,282.271 72.387 C 289.064 72.398,290.442 72.500,290.971 73.029 C 291.875 73.932,291.880 82.223,290.977 83.511 L 290.355 84.400 275.777 84.400 C 266.326 84.400,261.200 84.259,261.200 84.000 C 261.200 83.780,261.003 83.600,260.763 83.600 C 259.678 83.600,258.558 82.203,258.840 81.200 C 258.994 80.650,259.138 72.421,259.160 62.914 L 259.200 45.628 260.100 45.114 C 260.596 44.831,262.976 44.499,265.400 44.374 C 267.820 44.250,269.925 44.115,270.077 44.074 C 270.230 44.033,270.635 44.400,270.977 44.889 M92.600 104.037 C 91.940 104.184,93.650 104.306,96.400 104.306 C 99.150 104.307,101.130 104.249,100.800 104.178 C 99.445 103.885,93.716 103.787,92.600 104.037 M306.600 104.004 L 303.400 104.253 307.039 104.327 C 311.489 104.416,312.277 104.918,312.760 107.971 C 312.938 109.096,313.220 110.148,313.387 110.308 C 313.773 110.678,313.284 107.346,312.749 105.952 C 312.421 105.100,310.977 103.964,310.000 103.790 C 309.890 103.770,308.360 103.867,306.600 104.004 M105.116 104.297 C 106.499 104.375,108.659 104.374,109.916 104.295 C 111.172 104.216,110.040 104.152,107.400 104.153 C 104.760 104.153,103.732 104.218,105.116 104.297 M116.512 104.295 C 117.564 104.377,119.184 104.376,120.112 104.292 C 121.040 104.208,120.180 104.141,118.200 104.142 C 116.220 104.143,115.460 104.212,116.512 104.295 M126.900 104.296 C 128.165 104.375,130.235 104.375,131.500 104.296 C 132.765 104.216,131.730 104.151,129.200 104.151 C 126.670 104.151,125.635 104.216,126.900 104.296 M138.117 104.297 C 139.611 104.374,141.951 104.374,143.317 104.296 C 144.682 104.218,143.460 104.155,140.600 104.155 C 137.740 104.156,136.622 104.220,138.117 104.297 M149.300 104.297 C 150.785 104.374,153.215 104.374,154.700 104.297 C 156.185 104.220,154.970 104.157,152.000 104.157 C 149.030 104.157,147.815 104.220,149.300 104.297 M161.317 104.297 C 162.811 104.374,165.151 104.374,166.517 104.296 C 167.882 104.218,166.660 104.155,163.800 104.155 C 160.940 104.156,159.822 104.220,161.317 104.297 M172.500 104.294 C 173.545 104.376,175.255 104.376,176.300 104.294 C 177.345 104.212,176.490 104.144,174.400 104.144 C 172.310 104.144,171.455 104.212,172.500 104.294 M184.100 104.294 C 185.145 104.376,186.855 104.376,187.900 104.294 C 188.945 104.212,188.090 104.144,186.000 104.144 C 183.910 104.144,183.055 104.212,184.100 104.294 M194.117 104.297 C 195.611 104.374,197.951 104.374,199.317 104.296 C 200.682 104.218,199.460 104.155,196.600 104.155 C 193.740 104.156,192.622 104.220,194.117 104.297 M205.282 104.296 C 206.758 104.373,209.278 104.373,210.882 104.297 C 212.487 104.221,211.280 104.158,208.200 104.158 C 205.120 104.157,203.807 104.219,205.282 104.296 M216.882 104.296 C 218.358 104.373,220.878 104.373,222.482 104.297 C 224.087 104.221,222.880 104.158,219.800 104.158 C 216.720 104.157,215.407 104.219,216.882 104.296 M229.116 104.297 C 230.499 104.375,232.659 104.374,233.916 104.295 C 235.172 104.216,234.040 104.152,231.400 104.153 C 228.760 104.153,227.732 104.218,229.116 104.297 M240.100 104.294 C 241.145 104.376,242.855 104.376,243.900 104.294 C 244.945 104.212,244.090 104.144,242.000 104.144 C 239.910 104.144,239.055 104.212,240.100 104.294 M250.900 104.296 C 252.165 104.375,254.235 104.375,255.500 104.296 C 256.765 104.216,255.730 104.151,253.200 104.151 C 250.670 104.151,249.635 104.216,250.900 104.296 M261.700 104.297 C 263.185 104.374,265.615 104.374,267.100 104.297 C 268.585 104.220,267.370 104.157,264.400 104.157 C 261.430 104.157,260.215 104.220,261.700 104.297 M273.717 104.297 C 275.211 104.374,277.551 104.374,278.917 104.296 C 280.282 104.218,279.060 104.155,276.200 104.155 C 273.340 104.156,272.222 104.220,273.717 104.297 M285.317 104.297 C 286.811 104.374,289.151 104.374,290.517 104.296 C 291.882 104.218,290.660 104.155,287.800 104.155 C 284.940 104.156,283.822 104.220,285.317 104.297 M296.500 104.294 C 297.545 104.376,299.255 104.376,300.300 104.294 C 301.345 104.212,300.490 104.144,298.400 104.144 C 296.310 104.144,295.455 104.212,296.500 104.294 M87.680 111.200 C 87.680 111.750,87.824 112.650,88.000 113.200 L 88.320 114.200 88.320 113.200 C 88.320 112.650,88.176 111.750,88.000 111.200 L 87.680 110.200 87.680 111.200 M312.531 117.000 C 312.533 118.540,312.605 119.121,312.692 118.291 C 312.779 117.461,312.777 116.201,312.689 115.491 C 312.600 114.781,312.529 115.460,312.531 117.000 M88.493 120.800 C 88.493 121.570,88.575 121.885,88.676 121.500 C 88.776 121.115,88.776 120.485,88.676 120.100 C 88.575 119.715,88.493 120.030,88.493 120.800 M312.114 124.600 C 312.117 125.700,312.195 126.103,312.287 125.495 C 312.379 124.886,312.377 123.986,312.282 123.495 C 312.187 123.003,312.111 123.500,312.114 124.600 M89.081 127.061 C 89.205 128.788,89.551 130.740,89.850 131.400 L 90.394 132.600 90.235 131.200 C 89.959 128.762,89.188 124.255,89.019 124.085 C 88.929 123.996,88.957 125.335,89.081 127.061 M311.693 128.000 C 311.693 128.770,311.775 129.085,311.876 128.700 C 311.976 128.315,311.976 127.685,311.876 127.300 C 311.775 126.915,311.693 127.230,311.693 128.000 M311.058 135.539 C 310.885 137.155,310.832 138.565,310.939 138.672 C 311.219 138.953,311.703 134.727,311.523 133.571 C 311.439 133.037,311.230 133.922,311.058 135.539 M90.626 142.600 C 91.089 145.174,91.580 146.016,91.326 143.800 C 91.200 142.700,90.926 141.620,90.717 141.400 C 90.477 141.147,90.443 141.587,90.626 142.600 M309.904 143.800 C 309.443 146.299,309.532 148.497,310.043 147.216 C 310.259 146.676,310.383 145.326,310.318 144.216 L 310.200 142.200 309.904 143.800 M91.693 153.000 C 91.686 154.540,91.824 156.250,92.000 156.800 C 92.438 158.167,92.450 154.974,92.018 152.200 C 91.707 150.201,91.707 150.201,91.693 153.000 M132.618 153.168 C 131.397 153.908,131.185 155.393,131.636 160.037 C 131.837 162.107,132.263 167.670,132.584 172.400 C 133.184 181.259,133.817 188.075,134.188 189.683 C 134.593 191.438,135.504 201.901,136.601 217.400 C 136.927 222.020,137.345 227.650,137.528 229.910 C 138.099 236.970,135.104 236.409,171.912 236.360 C 188.570 236.338,201.750 236.176,201.200 236.000 C 200.650 235.824,186.940 235.662,170.732 235.640 C 136.171 235.593,139.142 236.000,138.412 231.213 C 137.851 227.531,137.379 221.909,136.597 209.600 C 135.550 193.120,135.038 187.945,134.011 183.495 C 133.796 182.563,133.615 180.751,133.610 179.468 C 133.604 178.186,133.426 175.486,133.214 173.468 C 132.053 162.427,131.856 154.260,132.736 153.676 C 133.430 153.215,139.229 153.116,167.086 153.086 C 185.519 153.067,198.890 152.997,196.800 152.930 C 182.151 152.461,133.485 152.641,132.618 153.168 M269.902 155.000 C 270.007 155.550,270.162 156.000,270.247 156.000 C 270.331 156.000,270.400 155.550,270.400 155.000 C 270.400 154.450,270.245 154.000,270.055 154.000 C 269.866 154.000,269.797 154.450,269.902 155.000 M308.901 157.400 C 308.905 158.280,308.987 158.593,309.083 158.095 C 309.179 157.598,309.175 156.878,309.075 156.495 C 308.975 156.113,308.896 156.520,308.901 157.400 M92.531 165.000 C 92.533 166.540,92.605 167.121,92.692 166.291 C 92.779 165.461,92.777 164.201,92.689 163.491 C 92.600 162.781,92.529 163.460,92.531 165.000 M307.903 168.800 C 307.740 170.010,307.622 171.630,307.640 172.400 L 307.672 173.800 308.055 172.470 C 308.266 171.739,308.385 170.119,308.319 168.870 L 308.200 166.600 307.903 168.800 M92.842 169.894 C 92.802 170.756,93.375 173.523,94.024 175.600 C 94.275 176.403,94.340 176.442,94.352 175.800 C 94.374 174.634,92.891 168.835,92.842 169.894 M307.100 178.956 C 306.646 181.915,306.727 184.110,307.242 182.819 C 307.458 182.280,307.581 180.750,307.517 179.419 L 307.400 177.000 307.100 178.956 M162.138 179.288 C 160.173 179.920,159.433 181.681,159.720 185.039 C 161.101 201.165,161.620 206.125,161.956 206.400 C 162.090 206.510,162.475 207.137,162.812 207.794 C 163.943 210.000,163.899 209.996,183.000 209.902 L 200.600 209.816 182.800 209.598 C 173.010 209.478,164.964 209.339,164.921 209.290 C 164.877 209.240,164.352 208.747,163.754 208.192 C 162.785 207.294,162.632 206.784,162.343 203.492 C 162.165 201.462,161.835 198.450,161.610 196.800 C 159.592 182.014,159.936 179.622,164.082 179.585 C 165.027 179.576,173.990 179.557,184.000 179.542 C 194.750 179.526,201.463 179.381,200.400 179.187 C 197.757 178.706,163.668 178.796,162.138 179.288 M94.514 181.000 C 94.517 182.100,94.595 182.503,94.687 181.895 C 94.779 181.286,94.777 180.386,94.682 179.895 C 94.587 179.403,94.511 179.900,94.514 181.000 M306.040 187.440 C 305.752 189.316,305.596 190.930,305.694 191.027 C 305.791 191.124,306.109 189.672,306.400 187.800 C 306.691 185.928,306.847 184.314,306.746 184.213 C 306.646 184.112,306.328 185.564,306.040 187.440 M94.886 187.400 C 94.871 188.500,95.003 190.210,95.180 191.200 L 95.500 193.000 95.510 191.400 C 95.516 190.520,95.384 188.810,95.217 187.600 L 94.913 185.400 94.886 187.400 M305.033 196.336 C 304.871 198.171,304.826 199.759,304.932 199.866 C 305.196 200.129,305.734 194.200,305.507 193.532 C 305.408 193.239,305.194 194.501,305.033 196.336 M95.693 196.400 C 95.693 197.170,95.775 197.485,95.876 197.100 C 95.976 196.715,95.976 196.085,95.876 195.700 C 95.775 195.315,95.693 195.630,95.693 196.400 M95.942 200.700 C 95.864 201.525,95.911 202.830,96.047 203.600 C 96.227 204.617,96.309 204.207,96.347 202.100 C 96.404 199.005,96.177 198.221,95.942 200.700 M304.528 206.000 C 304.528 207.430,304.601 208.015,304.689 207.300 C 304.778 206.585,304.778 205.415,304.689 204.700 C 304.601 203.985,304.528 204.570,304.528 206.000 M259.700 209.476 C 260.085 209.576,260.715 209.576,261.100 209.476 C 261.485 209.375,261.170 209.293,260.400 209.293 C 259.630 209.293,259.315 209.375,259.700 209.476 M96.436 212.800 C 96.400 214.399,97.269 217.713,97.483 216.792 C 97.560 216.458,97.363 215.108,97.045 213.792 C 96.553 211.758,96.462 211.610,96.436 212.800 M303.674 217.800 C 303.629 219.120,303.511 221.190,303.410 222.400 L 303.226 224.600 303.627 222.400 C 303.847 221.190,303.966 219.120,303.891 217.800 L 303.754 215.400 303.674 217.800 M98.514 226.200 C 98.517 227.300,98.595 227.703,98.687 227.095 C 98.779 226.486,98.777 225.586,98.682 225.095 C 98.587 224.603,98.511 225.100,98.514 226.200 M302.300 230.766 C 301.914 233.058,301.669 235.003,301.755 235.089 C 302.193 235.526,303.234 230.739,303.124 228.797 C 303.004 226.664,302.980 226.721,302.300 230.766 M98.893 232.000 C 98.893 232.770,98.975 233.085,99.076 232.700 C 99.176 232.315,99.176 231.685,99.076 231.300 C 98.975 230.915,98.893 231.230,98.893 232.000 M99.320 235.600 C 99.320 236.810,99.395 237.305,99.487 236.700 C 99.578 236.095,99.578 235.105,99.487 234.500 C 99.395 233.895,99.320 234.390,99.320 235.600 M205.516 236.297 C 206.899 236.375,209.059 236.374,210.316 236.295 C 211.572 236.216,210.440 236.152,207.800 236.153 C 205.160 236.153,204.132 236.218,205.516 236.297 M217.700 236.296 C 218.965 236.375,221.035 236.375,222.300 236.296 C 223.565 236.216,222.530 236.151,220.000 236.151 C 217.470 236.151,216.435 236.216,217.700 236.296 M301.328 240.800 C 301.328 242.230,301.401 242.815,301.489 242.100 C 301.578 241.385,301.578 240.215,301.489 239.500 C 301.401 238.785,301.328 239.370,301.328 240.800 M99.709 242.000 C 99.709 242.990,99.787 243.395,99.882 242.900 C 99.978 242.405,99.978 241.595,99.882 241.100 C 99.787 240.605,99.709 241.010,99.709 242.000 M235.844 241.400 C 236.173 242.871,236.402 243.190,236.394 242.167 C 236.391 241.745,236.205 241.130,235.982 240.800 C 235.685 240.362,235.648 240.524,235.844 241.400 M100.120 246.000 C 100.120 247.210,100.195 247.705,100.287 247.100 C 100.378 246.495,100.378 245.505,100.287 244.900 C 100.195 244.295,100.120 244.790,100.120 246.000 M300.901 246.200 C 300.905 247.080,300.987 247.393,301.083 246.895 C 301.179 246.398,301.175 245.678,301.075 245.295 C 300.975 244.913,300.896 245.320,300.901 246.200 M300.509 250.400 C 300.509 251.390,300.587 251.795,300.682 251.300 C 300.778 250.805,300.778 249.995,300.682 249.500 C 300.587 249.005,300.509 249.410,300.509 250.400 M140.867 252.679 C 140.025 253.639,139.957 254.001,140.175 256.371 C 140.307 257.817,140.598 261.610,140.820 264.800 C 141.043 267.990,141.385 272.040,141.580 273.800 C 141.776 275.560,142.138 279.070,142.386 281.600 C 143.745 295.484,143.607 295.235,150.600 296.413 C 151.920 296.635,153.720 297.166,154.600 297.592 C 156.024 298.282,165.556 300.800,166.743 300.800 C 166.999 300.800,167.972 301.153,168.904 301.585 C 169.837 302.017,171.410 302.569,172.400 302.812 C 173.390 303.054,174.920 303.430,175.800 303.647 C 176.680 303.864,178.356 304.216,179.524 304.430 C 180.693 304.644,182.403 305.156,183.324 305.568 C 185.339 306.470,188.238 307.260,193.800 308.423 C 195.120 308.699,196.678 309.257,197.262 309.663 C 198.414 310.463,202.800 310.730,202.800 310.000 C 202.800 309.780,202.203 309.600,201.473 309.600 C 200.743 309.600,199.168 309.327,197.973 308.993 C 193.773 307.818,192.974 307.616,190.000 306.973 C 188.350 306.617,186.280 305.990,185.400 305.581 C 184.520 305.172,182.630 304.576,181.200 304.256 C 179.770 303.937,177.163 303.357,175.406 302.969 C 173.650 302.580,171.670 301.955,171.006 301.579 C 170.343 301.203,168.360 300.587,166.600 300.210 C 159.813 298.756,158.135 298.305,156.200 297.414 C 155.100 296.907,152.850 296.274,151.200 296.007 C 144.217 294.876,144.128 294.752,143.586 285.400 C 143.303 280.525,142.539 274.148,142.165 273.543 C 142.073 273.395,141.819 271.097,141.599 268.437 C 140.086 250.096,138.540 252.397,152.362 252.410 C 166.992 252.423,166.785 252.354,166.792 257.200 C 166.796 260.080,167.495 269.689,167.828 271.447 C 168.234 273.590,172.208 276.084,175.991 276.570 C 179.009 276.958,181.500 277.594,183.438 278.470 C 185.267 279.298,188.478 280.175,191.200 280.592 C 193.730 280.979,196.063 281.657,196.989 282.274 C 197.920 282.895,199.848 282.970,200.200 282.400 C 200.342 282.171,199.980 282.000,199.352 282.000 C 198.749 282.000,197.164 281.659,195.828 281.242 C 194.493 280.825,192.410 280.270,191.200 280.008 C 189.990 279.747,187.110 278.934,184.800 278.202 C 182.490 277.470,179.062 276.590,177.183 276.246 C 169.042 274.758,168.275 273.648,167.614 262.400 C 166.944 250.986,167.835 251.596,151.869 251.607 L 141.800 251.614 140.867 252.679 M234.464 252.650 C 234.429 253.118,234.305 254.107,234.189 254.850 C 233.996 256.086,234.015 256.117,234.408 255.214 C 234.645 254.672,234.768 253.682,234.683 253.014 C 234.591 252.297,234.502 252.148,234.464 252.650 M260.696 252.533 C 260.533 252.936,260.420 254.106,260.444 255.133 L 260.488 257.000 260.849 255.200 C 261.282 253.048,261.183 251.329,260.696 252.533 M300.124 258.200 C 300.126 259.520,300.201 260.012,300.290 259.293 C 300.379 258.574,300.377 257.494,300.286 256.893 C 300.195 256.292,300.122 256.880,300.124 258.200 M299.693 262.000 C 299.693 262.770,299.775 263.085,299.876 262.700 C 299.976 262.315,299.976 261.685,299.876 261.300 C 299.775 260.915,299.693 261.230,299.693 262.000 M101.628 264.476 C 101.613 265.728,101.780 266.864,102.000 267.000 C 102.492 267.304,102.492 264.144,102.000 263.000 C 101.752 262.423,101.648 262.835,101.628 264.476 M233.263 264.000 C 233.223 264.770,233.106 266.120,233.002 267.000 L 232.812 268.600 233.223 267.000 C 233.448 266.120,233.566 264.770,233.484 264.000 L 233.334 262.600 233.263 264.000 M259.701 267.000 C 259.705 267.880,259.787 268.193,259.883 267.695 C 259.979 267.198,259.975 266.478,259.875 266.095 C 259.775 265.713,259.696 266.120,259.701 267.000 M299.334 268.800 C 299.334 270.450,299.405 271.125,299.491 270.300 C 299.578 269.475,299.578 268.125,299.491 267.300 C 299.405 266.475,299.334 267.150,299.334 268.800 M298.600 273.200 C 298.448 273.891,298.414 274.547,298.524 274.657 C 298.634 274.767,298.848 274.291,299.000 273.600 C 299.152 272.909,299.186 272.253,299.076 272.143 C 298.966 272.033,298.752 272.509,298.600 273.200 M102.806 277.433 C 102.809 278.515,102.991 279.670,103.209 280.000 C 103.480 280.411,103.524 279.843,103.347 278.200 C 103.023 275.191,102.798 274.872,102.806 277.433 M225.400 276.000 C 224.629 276.331,224.631 276.345,225.476 276.372 C 225.958 276.387,226.464 276.220,226.600 276.000 C 226.892 275.527,226.501 275.527,225.400 276.000 M297.670 279.800 C 297.626 280.900,297.506 282.520,297.402 283.400 L 297.212 285.000 297.622 283.400 C 297.848 282.520,297.968 280.900,297.890 279.800 L 297.748 277.800 297.670 279.800 M103.694 286.800 C 103.681 288.450,103.810 290.700,103.982 291.800 L 104.293 293.800 104.303 291.200 C 104.309 289.770,104.179 287.520,104.015 286.200 L 103.718 283.800 103.694 286.800 M296.880 290.441 C 296.836 291.234,296.705 293.034,296.590 294.441 C 296.424 296.465,296.469 296.796,296.805 296.023 C 297.039 295.486,297.170 293.686,297.096 292.023 C 297.022 290.361,296.925 289.649,296.880 290.441 M256.630 293.506 C 256.507 293.894,255.910 294.519,255.303 294.895 C 254.696 295.271,254.399 295.584,254.642 295.589 C 255.215 295.603,257.200 293.764,257.200 293.219 C 257.200 292.564,256.877 292.727,256.630 293.506 M104.528 299.200 C 104.528 300.630,104.601 301.215,104.689 300.500 C 104.778 299.785,104.778 298.615,104.689 297.900 C 104.601 297.185,104.528 297.770,104.528 299.200 M295.827 304.035 C 295.656 305.924,295.594 307.814,295.689 308.235 C 295.784 308.656,296.002 307.454,296.173 305.565 C 296.344 303.676,296.406 301.786,296.311 301.365 C 296.216 300.944,295.998 302.146,295.827 304.035 M104.853 304.200 C 104.831 305.080,104.987 306.070,105.200 306.400 C 105.675 307.136,105.675 305.668,105.200 303.800 C 104.906 302.644,104.893 302.659,104.853 304.200 M295.309 313.200 C 295.309 314.190,295.387 314.595,295.482 314.100 C 295.578 313.605,295.578 312.795,295.482 312.300 C 295.387 311.805,295.309 312.210,295.309 313.200 M106.520 315.600 C 106.520 316.810,106.595 317.305,106.687 316.700 C 106.778 316.095,106.778 315.105,106.687 314.500 C 106.595 313.895,106.520 314.390,106.520 315.600 M294.589 317.900 C 294.441 319.165,294.163 320.920,293.970 321.800 C 293.442 324.211,293.582 324.800,294.255 323.000 C 294.860 321.383,295.510 315.600,295.087 315.600 C 294.961 315.600,294.737 316.635,294.589 317.900 M107.334 325.600 C 107.334 327.250,107.405 327.925,107.491 327.100 C 107.578 326.275,107.578 324.925,107.491 324.100 C 107.405 323.275,107.334 323.950,107.334 325.600 M293.293 330.000 C 293.293 330.770,293.375 331.085,293.476 330.700 C 293.576 330.315,293.576 329.685,293.476 329.300 C 293.375 328.915,293.293 329.230,293.293 330.000 M292.544 332.643 C 292.393 333.059,291.901 333.940,291.451 334.600 C 290.777 335.587,290.757 335.699,291.342 335.229 C 292.192 334.546,293.349 332.416,293.039 332.106 C 292.918 331.985,292.695 332.226,292.544 332.643 M288.800 336.000 C 288.267 336.345,288.267 336.388,288.800 336.388 C 289.130 336.388,289.670 336.213,290.000 336.000 C 290.533 335.655,290.533 335.612,290.000 335.612 C 289.670 335.612,289.130 335.787,288.800 336.000 M116.620 337.133 C 116.829 337.315,117.784 337.688,118.742 337.961 C 119.700 338.234,120.780 338.556,121.142 338.678 C 121.589 338.828,121.543 338.714,121.000 338.323 C 119.789 337.452,115.722 336.347,116.620 337.133 M278.200 338.986 C 277.540 339.288,277.281 339.550,277.624 339.568 C 277.966 339.585,278.596 339.336,279.024 339.013 C 279.988 338.283,279.751 338.276,278.200 338.986 M275.000 340.000 C 274.496 340.217,274.422 340.344,274.800 340.344 C 275.130 340.344,275.760 340.189,276.200 340.000 C 276.704 339.783,276.778 339.656,276.400 339.656 C 276.070 339.656,275.440 339.811,275.000 340.000 M268.800 341.200 C 268.036 341.694,268.858 341.694,270.400 341.200 L 271.400 340.880 270.400 340.846 C 269.850 340.827,269.130 340.987,268.800 341.200 M133.800 342.104 C 134.897 342.763,137.271 343.592,138.000 343.571 C 138.330 343.562,137.632 343.114,136.449 342.577 C 134.162 341.539,132.304 341.207,133.800 342.104 M139.800 344.000 C 140.240 344.189,140.870 344.344,141.200 344.344 C 141.578 344.344,141.504 344.217,141.000 344.000 C 140.560 343.811,139.930 343.656,139.600 343.656 C 139.222 343.656,139.296 343.783,139.800 344.000 M260.400 344.000 C 259.576 344.264,259.541 344.326,260.200 344.354 C 260.640 344.373,261.270 344.213,261.600 344.000 C 262.301 343.547,261.814 343.547,260.400 344.000 M145.800 345.200 C 146.240 345.389,146.870 345.544,147.200 345.544 C 147.578 345.544,147.504 345.417,147.000 345.200 C 146.560 345.011,145.930 344.856,145.600 344.856 C 145.222 344.856,145.296 344.983,145.800 345.200 M148.400 345.814 C 148.400 346.098,151.936 347.606,152.533 347.577 C 152.790 347.564,152.032 347.114,150.849 346.577 C 148.543 345.530,148.400 345.485,148.400 345.814 M153.800 348.000 C 154.240 348.189,155.050 348.338,155.600 348.332 L 156.600 348.320 155.600 348.000 C 155.050 347.824,154.240 347.674,153.800 347.668 L 153.000 347.656 153.800 348.000 M240.600 348.989 C 238.474 349.689,239.633 349.708,242.400 349.017 C 243.966 348.626,244.254 348.467,243.400 348.465 C 242.740 348.463,241.480 348.699,240.600 348.989 M160.042 348.976 C 160.402 349.335,166.353 351.599,166.867 351.572 C 167.541 351.536,164.379 350.103,162.000 349.366 C 160.050 348.762,159.774 348.707,160.042 348.976 M168.200 352.000 C 168.640 352.189,169.450 352.344,170.000 352.344 C 170.912 352.344,170.929 352.313,170.200 352.000 C 169.760 351.811,168.950 351.656,168.400 351.656 C 167.488 351.656,167.471 351.687,168.200 352.000 M224.078 353.495 C 223.131 353.822,222.430 354.164,222.521 354.255 C 222.710 354.443,227.214 353.320,227.527 353.006 C 227.929 352.604,225.775 352.910,224.078 353.495 M177.200 353.791 C 177.200 354.508,183.825 356.667,184.889 356.296 C 185.170 356.198,184.590 355.979,183.600 355.808 C 182.610 355.638,180.833 355.071,179.650 354.549 C 177.371 353.543,177.200 353.490,177.200 353.791 M210.800 357.200 C 210.267 357.545,210.267 357.588,210.800 357.588 C 211.130 357.588,211.670 357.413,212.000 357.200 C 212.533 356.855,212.533 356.812,212.000 356.812 C 211.670 356.812,211.130 356.987,210.800 357.200 M192.400 358.200 C 192.950 358.514,193.580 358.772,193.800 358.772 C 194.020 358.772,193.750 358.514,193.200 358.200 C 192.650 357.886,192.020 357.628,191.800 357.628 C 191.580 357.628,191.850 357.886,192.400 358.200 M206.800 358.497 C 205.810 358.953,205.187 359.390,205.415 359.468 C 205.643 359.546,206.723 359.167,207.815 358.626 C 210.214 357.437,209.342 357.326,206.800 358.497 M196.200 360.000 C 196.336 360.220,196.842 360.387,197.324 360.372 C 198.169 360.345,198.171 360.331,197.400 360.000 C 196.299 359.527,195.908 359.527,196.200 360.000 " stroke="none" fill="#a4a4a4" fill-rule="evenodd"></path></g></svg>