<svg id="svg" version="1.1" xmlns="http://www.w3.org/2000/svg" xmlns:xlink="http://www.w3.org/1999/xlink" width="400" height="400" viewBox="0, 0, 400,400"><g id="svgg"><path id="path0" d="M35.699 146.167 C 34.609 147.024,34.831 146.033,26.992 185.180 C 19.812 221.038,19.514 222.712,20.190 223.390 C 20.646 223.847,31.153 224.206,33.011 223.828 C 35.438 223.335,34.902 225.117,39.468 202.348 C 41.475 192.340,43.386 182.832,43.715 181.218 C 45.713 171.420,47.714 171.934,48.850 182.539 C 49.064 184.529,50.015 191.133,50.796 196.038 C 51.117 198.056,51.513 200.631,51.677 201.761 C 51.841 202.891,52.169 204.938,52.406 206.310 C 52.643 207.682,52.954 209.729,53.097 210.858 C 54.308 220.408,54.805 222.663,55.871 223.458 C 56.886 224.214,66.003 224.251,67.447 223.504 C 68.845 222.781,69.834 221.162,76.519 208.659 C 78.201 205.513,79.683 202.806,79.812 202.643 C 79.941 202.481,80.570 201.357,81.209 200.147 C 83.367 196.060,91.630 180.945,93.242 178.136 C 97.347 170.982,98.444 172.042,96.580 181.365 C 96.209 183.221,94.222 193.133,92.166 203.391 C 89.596 216.205,88.501 222.245,88.666 222.691 C 89.058 223.750,90.123 223.918,96.447 223.918 L 102.466 223.918 103.309 223.075 C 103.773 222.611,104.225 221.918,104.315 221.534 C 104.711 219.840,118.013 153.427,118.567 150.377 C 119.135 147.251,119.147 146.923,118.720 146.270 L 118.255 145.561 107.477 145.563 C 97.485 145.565,96.638 145.605,95.875 146.108 C 94.777 146.832,94.788 146.814,90.910 154.219 C 89.050 157.770,84.645 166.156,81.122 172.854 C 77.599 179.552,73.456 187.463,71.914 190.432 C 67.763 198.432,66.758 198.802,65.867 192.661 C 65.610 190.887,65.017 186.992,64.550 184.006 C 64.083 181.020,63.427 176.464,63.091 173.881 C 60.373 152.973,59.383 146.963,58.536 146.222 C 57.399 145.227,36.956 145.178,35.699 146.167 M273.221 165.809 C 250.542 168.138,233.782 195.051,243.135 214.120 C 250.369 228.869,276.320 229.333,288.905 214.938 C 295.310 207.612,295.109 206.603,287.249 206.603 C 282.195 206.603,281.979 206.673,279.195 209.220 C 273.139 214.762,262.843 215.616,258.342 210.951 C 256.210 208.741,255.011 203.247,256.183 201.058 C 257.087 199.368,256.418 199.426,276.876 199.266 C 299.639 199.089,297.700 199.671,298.466 192.779 C 300.411 175.279,289.940 164.093,273.221 165.809 M366.064 165.957 C 365.768 166.728,366.181 167.306,366.905 167.136 C 368.310 166.805,368.410 167.235,367.722 170.635 C 367.043 173.990,367.081 174.615,367.967 174.615 C 368.822 174.615,369.045 174.134,369.737 170.800 C 370.365 167.772,370.857 166.856,371.686 167.174 C 372.292 167.407,373.294 166.733,373.294 166.094 C 373.294 165.320,366.359 165.189,366.064 165.957 M374.621 166.162 C 373.935 169.069,373.035 174.139,373.167 174.352 C 373.877 175.502,374.929 174.339,375.377 171.906 C 376.010 168.473,376.405 168.465,376.998 171.872 C 377.624 175.475,378.233 175.505,380.194 172.028 C 382.167 168.531,382.560 168.439,381.904 171.626 C 381.339 174.371,381.644 175.173,382.939 174.352 C 383.245 174.158,384.946 167.104,385.020 165.721 C 385.027 165.591,384.406 165.525,383.639 165.575 L 382.245 165.664 380.755 168.142 C 378.669 171.611,378.690 171.615,377.915 167.572 L 377.550 165.664 376.165 165.575 C 374.927 165.495,374.764 165.557,374.621 166.162 M148.056 166.255 C 137.213 167.924,129.610 173.050,126.198 180.991 C 124.797 184.251,125.680 184.687,133.397 184.544 C 139.591 184.429,139.644 184.410,141.474 181.513 C 145.947 174.430,159.345 173.782,161.158 180.561 C 162.811 186.739,157.515 189.856,143.067 191.212 C 136.960 191.784,129.558 193.966,126.330 196.144 C 118.536 201.405,115.323 213.824,120.117 220.164 C 124.935 226.534,139.391 227.251,150.324 221.663 C 153.351 220.115,153.795 220.163,154.800 222.146 C 155.759 224.038,156.369 224.213,161.966 224.204 C 169.736 224.192,169.593 224.295,170.102 218.356 C 170.393 214.970,171.248 210.159,173.771 197.726 C 178.013 176.825,178.068 175.345,174.739 171.409 C 170.992 166.977,158.740 164.610,148.056 166.255 M341.453 166.241 C 338.042 166.867,333.360 169.052,330.743 171.238 C 328.281 173.295,327.219 172.933,327.219 170.037 C 327.219 167.253,327.135 167.220,320.206 167.333 C 313.036 167.451,313.492 167.098,312.083 173.614 C 310.043 183.051,302.568 221.081,302.568 222.023 C 302.568 223.972,304.686 224.453,311.779 224.114 C 317.789 223.827,317.124 225.084,320.739 207.185 C 324.719 187.482,325.583 184.758,328.821 181.696 C 334.163 176.644,343.367 176.455,345.846 181.347 C 347.448 184.509,347.222 186.696,343.201 206.905 C 339.482 225.595,339.192 223.981,346.304 224.162 C 353.024 224.333,355.031 223.814,355.465 221.793 C 356.233 218.224,360.646 196.420,361.695 191.019 C 364.460 176.778,363.040 170.764,356.153 167.541 C 352.581 165.870,346.435 165.326,341.453 166.241 M277.580 178.022 C 281.884 179.233,285.184 186.283,282.522 188.578 L 281.699 189.288 271.131 189.288 C 264.407 189.288,260.357 189.178,259.995 188.985 C 259.019 188.462,259.248 186.721,260.556 184.712 C 264.412 178.792,271.048 176.184,277.580 178.022 M157.241 198.151 C 158.256 199.165,156.708 205.451,154.667 208.609 C 148.824 217.649,132.502 217.603,133.980 208.551 C 134.946 202.634,138.252 200.743,151.431 198.567 C 156.554 197.721,156.794 197.704,157.241 198.151 M196.071 233.955 C 194.477 237.292,194.432 237.417,194.820 237.417 C 195.178 237.417,197.867 231.595,197.705 231.170 C 197.631 230.974,196.895 232.228,196.071 233.955 M203.668 231.290 C 203.668 232.006,205.677 237.608,205.700 236.959 C 205.722 236.373,204.121 231.316,203.818 231.013 C 203.736 230.931,203.668 231.055,203.668 231.290 " stroke="none" fill="#040404" fill-rule="evenodd"></path><path id="path1" d="M187.968 0.178 C 187.322 0.239,185.077 0.425,182.979 0.592 C 66.001 9.862,-17.468 119.078,3.105 235.950 C 22.135 344.056,126.462 416.168,235.950 396.895 C 299.985 385.623,355.716 341.988,382.585 282.085 C 401.788 239.271,405.348 189.934,392.474 145.013 C 369.705 65.568,302.049 9.309,218.929 0.703 C 214.663 0.261,191.275 -0.135,187.968 0.178 M57.919 145.672 C 58.503 145.916,59.017 146.411,59.217 146.919 C 59.590 147.873,61.526 160.956,63.096 173.147 C 63.439 175.811,64.096 180.367,64.556 183.272 C 65.016 186.178,65.608 190.126,65.872 192.047 C 66.749 198.438,67.675 198.410,71.091 191.891 C 73.502 187.290,89.540 156.603,92.084 151.724 C 95.702 144.786,94.550 145.268,107.508 145.268 C 118.726 145.268,119.149 145.340,119.149 147.260 C 119.149 148.351,104.506 221.475,104.117 222.329 C 103.149 224.454,90.808 225.217,88.863 223.273 C 88.113 222.523,87.826 224.299,92.244 202.348 C 97.831 174.585,97.918 174.070,97.115 173.573 C 96.288 173.062,94.449 175.919,88.414 187.087 C 87.281 189.186,85.520 192.421,84.503 194.277 C 83.485 196.134,82.040 198.775,81.291 200.147 C 80.543 201.519,79.099 204.160,78.082 206.016 C 77.066 207.872,74.975 211.702,73.436 214.527 C 68.037 224.436,68.548 223.987,62.453 224.160 C 55.066 224.370,54.780 224.168,54.021 218.195 C 53.857 216.904,53.380 213.668,52.962 211.005 C 52.543 208.342,51.959 204.446,51.663 202.348 C 51.367 200.249,50.982 197.740,50.807 196.772 C 50.633 195.803,50.090 192.106,49.602 188.555 C 47.919 176.312,47.158 173.301,45.992 174.268 C 45.069 175.034,45.038 175.172,39.337 203.515 C 34.681 226.665,36.172 224.343,26.075 224.159 C 19.794 224.044,19.481 223.905,19.779 221.358 C 20.075 218.838,34.059 149.350,34.585 147.790 C 35.433 145.271,35.451 145.268,47.033 145.268 C 54.792 145.268,57.163 145.356,57.919 145.672 M193.380 163.161 C 196.784 164.898,199.277 171.340,199.373 178.650 C 199.411 181.512,199.575 182.218,199.967 181.199 C 200.499 179.811,201.783 184.497,201.545 186.965 C 201.402 188.455,201.638 188.787,202.204 187.894 C 202.452 187.503,202.497 187.962,202.392 189.823 C 202.283 191.737,202.335 192.234,202.632 192.121 C 203.431 191.814,204.917 198.448,204.923 202.348 C 204.927 205.327,204.610 206.758,203.308 209.615 C 202.811 210.706,202.502 211.697,202.621 211.816 C 203.060 212.253,204.163 210.449,205.104 207.756 C 209.713 194.564,225.600 173.750,236.970 166.006 C 241.783 162.728,245.311 167.766,242.999 174.615 C 241.453 179.194,235.565 186.962,232.923 187.909 C 232.128 188.194,232.987 188.375,233.896 188.114 C 234.439 187.959,234.939 187.885,235.005 187.952 C 235.323 188.269,233.000 191.954,231.627 193.311 C 229.941 194.977,229.763 195.309,230.688 195.067 C 231.674 194.810,230.198 196.553,228.376 197.799 C 226.705 198.941,226.454 199.377,227.638 199.080 L 228.423 198.883 227.314 200.909 C 223.213 208.397,218.726 212.516,213.101 213.958 C 210.626 214.592,211.357 215.005,214.674 214.846 C 215.319 214.815,216.596 214.428,217.510 213.987 L 219.173 213.184 218.288 214.302 C 217.187 215.691,215.230 217.057,213.416 217.703 L 212.032 218.195 213.010 218.289 C 213.548 218.340,214.406 218.244,214.918 218.075 C 215.836 217.772,215.832 217.782,214.558 218.940 C 212.850 220.491,210.836 221.073,207.648 220.939 L 205.227 220.836 205.621 221.781 C 206.255 223.297,206.106 223.923,205.391 222.744 C 204.197 220.775,203.417 220.775,202.496 222.742 L 201.809 224.207 203.956 230.671 C 205.137 234.226,206.010 237.228,205.897 237.341 C 205.560 237.678,205.295 237.031,203.337 231.084 C 202.309 227.960,201.359 225.399,201.226 225.394 C 201.093 225.389,199.677 228.092,198.078 231.401 C 196.256 235.173,195.011 237.417,194.741 237.417 C 194.241 237.417,194.916 235.847,198.589 228.467 C 200.879 223.866,200.919 223.747,200.583 222.597 C 200.395 221.952,200.186 221.448,200.120 221.478 C 200.054 221.508,199.770 221.620,199.490 221.728 C 199.209 221.836,198.582 222.465,198.096 223.125 C 197.086 224.498,196.932 224.149,197.799 222.450 C 198.558 220.963,198.587 221.018,197.139 221.171 L 195.891 221.303 197.316 220.535 L 198.741 219.766 198.059 219.040 C 197.684 218.641,196.334 217.792,195.060 217.154 L 192.742 215.994 194.343 215.994 L 195.944 215.994 194.273 212.660 C 189.533 203.200,186.842 187.998,187.330 173.441 C 187.678 163.079,188.958 160.905,193.380 163.161 M159.825 165.823 C 169.237 166.583,174.749 169.404,176.626 174.421 C 177.762 177.457,177.598 178.835,173.855 197.611 C 171.125 211.310,170.405 215.450,170.202 218.614 C 169.839 224.281,170.175 224.038,162.551 224.155 C 155.951 224.257,155.663 224.187,154.731 222.252 C 153.793 220.306,153.285 220.209,150.807 221.503 C 140.417 226.930,127.023 226.947,121.262 221.541 C 114.975 215.642,117.615 201.831,126.092 196.269 C 130.709 193.240,136.586 191.668,147.322 190.593 C 157.242 189.599,161.115 187.140,161.115 181.835 C 161.115 173.611,145.904 174.018,141.008 182.372 C 139.788 184.455,139.265 184.593,132.577 184.593 C 124.846 184.593,124.402 184.208,126.804 179.591 C 131.398 170.761,140.563 166.176,154.836 165.569 C 155.499 165.540,157.744 165.655,159.825 165.823 M281.219 165.953 C 293.742 168.137,300.195 178.398,298.479 193.397 C 297.748 199.783,299.251 199.369,277.053 199.293 C 256.903 199.224,257.400 199.179,256.324 201.177 C 255.712 202.314,255.871 205.930,256.627 208.087 C 259.169 215.333,271.938 215.913,279.099 209.108 C 281.809 206.532,282.053 206.455,287.454 206.468 C 294.268 206.484,294.881 207.143,291.956 211.308 C 285.308 220.775,276.260 225.433,264.563 225.409 C 249.786 225.380,241.246 217.796,240.742 204.255 C 240.027 185.018,253.345 168.925,272.634 165.719 C 274.385 165.428,278.917 165.552,281.219 165.953 M353.032 166.289 C 360.379 168.162,363.886 173.770,363.187 182.525 C 362.931 185.722,355.851 221.279,355.231 222.478 C 354.453 223.983,353.418 224.212,347.405 224.207 C 338.912 224.200,339.332 225.712,342.883 207.924 C 347.440 185.102,347.588 182.892,344.761 179.975 C 341.972 177.097,335.222 177.278,330.586 180.356 C 326.020 183.386,324.892 186.558,320.498 208.716 C 317.184 225.425,318.143 224.028,309.905 224.148 C 303.691 224.238,302.967 224.099,302.511 222.723 C 302.205 221.802,312.605 169.587,313.307 168.515 C 314.074 167.345,315.037 167.156,320.323 167.143 C 327.003 167.127,327.722 167.456,327.489 170.424 C 327.359 172.065,327.463 172.267,328.436 172.267 C 329.047 172.267,329.768 171.935,330.564 171.289 C 336.506 166.462,345.691 164.418,353.032 166.289 M373.290 166.031 C 373.282 166.913,372.887 167.231,371.676 167.330 L 370.506 167.425 369.773 170.946 C 369.052 174.407,369.024 174.470,368.196 174.564 C 366.914 174.711,366.834 174.391,367.434 171.533 C 368.262 167.591,368.230 167.278,367.002 167.278 C 365.824 167.278,365.641 167.080,365.982 166.178 C 366.326 165.268,373.298 165.128,373.290 166.031 M377.809 166.324 C 377.896 166.768,378.122 167.957,378.310 168.966 C 378.752 171.327,378.834 171.299,380.631 168.158 L 382.142 165.517 383.588 165.517 C 385.305 165.517,385.257 165.214,384.294 169.952 C 383.315 174.772,383.379 174.615,382.389 174.615 C 381.267 174.615,381.230 174.487,381.701 172.267 C 382.392 169.013,382.098 168.931,380.389 171.900 C 378.110 175.859,377.506 175.784,376.811 171.460 C 376.370 168.712,376.167 168.779,375.476 171.900 C 374.913 174.448,374.901 174.469,373.955 174.560 C 372.769 174.674,372.769 174.668,373.736 169.886 C 374.688 165.184,374.500 165.517,376.196 165.517 C 377.548 165.517,377.661 165.574,377.809 166.324 " stroke="none" fill="#fbfbfb" fill-rule="evenodd"></path><path id="path2" d="M223.742 178.650 C 214.685 188.827,208.225 198.996,205.146 207.924 C 204.256 210.504,203.150 212.144,202.550 211.773 C 202.364 211.658,202.571 210.945,203.091 209.902 C 205.268 205.543,205.420 201.006,203.617 194.196 C 203.126 192.341,202.938 191.976,202.614 192.246 C 202.280 192.522,202.245 192.173,202.398 190.126 C 202.578 187.722,202.570 187.684,202.016 188.174 C 201.465 188.662,201.452 188.622,201.452 186.413 C 201.453 183.759,200.573 180.321,200.106 181.155 C 199.550 182.149,199.266 181.623,199.266 179.598 C 199.266 177.612,199.243 177.544,198.606 177.693 C 198.243 177.778,196.631 178.113,195.025 178.438 C 193.418 178.762,192.001 179.191,191.875 179.389 C 191.714 179.642,191.644 179.597,191.641 179.237 C 191.635 178.638,191.707 178.642,189.435 179.119 L 187.674 179.489 187.723 183.141 C 187.857 193.272,190.540 205.147,194.400 212.693 C 196.375 216.554,196.365 216.229,194.497 216.072 L 192.957 215.942 195.011 216.966 C 198.445 218.678,199.129 219.543,197.726 220.399 L 196.772 220.981 197.579 220.982 C 198.511 220.983,198.566 221.241,197.912 222.538 L 197.439 223.478 198.585 222.377 C 200.957 220.100,201.761 222.471,199.883 226.206 C 199.226 227.514,198.796 228.651,198.929 228.733 C 199.062 228.815,199.546 228.095,200.006 227.134 C 201.033 224.985,201.424 224.946,202.067 226.926 C 202.541 228.388,203.086 229.369,203.078 228.745 C 203.075 228.592,202.760 227.483,202.376 226.280 L 201.678 224.093 202.441 222.538 C 203.322 220.742,203.672 220.648,204.903 221.879 C 205.766 222.742,205.863 222.599,205.312 221.277 C 205.157 220.903,205.562 220.836,207.994 220.836 C 211.281 220.836,213.060 220.307,214.371 218.939 L 215.195 218.079 214.167 218.394 C 212.960 218.765,211.467 218.279,212.619 217.890 C 214.494 217.257,216.319 216.132,217.608 214.814 L 219.076 213.314 217.539 214.080 C 215.895 214.901,213.586 215.310,212.350 214.999 C 211.233 214.719,211.426 214.299,212.839 213.933 C 218.802 212.391,222.890 208.757,226.947 201.393 C 228.225 199.074,228.251 198.979,227.567 199.151 C 226.410 199.441,226.745 198.848,228.311 197.833 C 229.112 197.314,230.046 196.499,230.385 196.023 L 231.001 195.158 230.355 195.158 C 229.807 195.158,229.949 194.922,231.289 193.613 C 232.689 192.245,234.402 189.771,234.934 188.351 C 235.099 187.910,235.000 187.888,234.040 188.153 C 232.825 188.488,232.277 188.219,233.146 187.713 C 233.951 187.245,236.537 184.853,236.537 184.577 C 236.537 184.451,235.020 183.379,233.165 182.196 C 231.061 180.853,229.846 179.900,229.934 179.662 C 230.011 179.452,229.955 179.354,229.809 179.444 C 229.663 179.534,229.500 179.498,229.445 179.365 C 229.354 179.140,225.837 176.669,225.608 176.669 C 225.551 176.669,224.711 177.561,223.742 178.650 M226.560 183.786 C 220.829 191.472,212.385 205.290,206.385 216.803 C 205.185 219.104,204.083 220.911,203.935 220.820 C 203.786 220.728,203.980 220.100,204.365 219.424 C 204.749 218.748,206.008 216.442,207.163 214.300 C 211.323 206.579,218.414 194.857,222.117 189.582 C 224.702 185.899,227.194 182.539,227.342 182.539 C 227.423 182.539,227.072 183.100,226.560 183.786 M197.016 205.136 C 197.913 208.606,199.037 212.747,199.513 214.339 C 199.989 215.930,200.214 217.053,200.013 216.833 C 199.102 215.840,193.015 191.017,193.128 188.755 C 193.142 188.484,193.655 190.638,194.269 193.544 C 194.883 196.449,196.119 201.665,197.016 205.136 M201.818 221.797 C 201.523 222.443,201.476 222.458,201.281 221.965 C 200.847 220.862,200.972 220.357,201.584 220.739 C 202.050 221.030,202.088 221.203,201.818 221.797 M197.853 230.226 C 197.674 230.619,197.635 231.007,197.767 231.088 C 197.899 231.170,198.153 230.915,198.332 230.522 C 198.511 230.129,198.549 229.742,198.418 229.660 C 198.286 229.579,198.032 229.833,197.853 230.226 M203.111 229.934 C 203.136 230.580,203.576 231.348,203.755 231.058 C 203.858 230.891,203.753 230.504,203.522 230.197 C 203.290 229.891,203.105 229.773,203.111 229.934 " stroke="none" fill="#c13242" fill-rule="evenodd"></path><path id="path3" d="M189.253 162.878 C 188.054 163.579,187.533 166.769,187.360 174.468 C 187.265 178.671,187.314 180.421,187.512 179.971 C 187.671 179.607,187.998 179.310,188.237 179.310 C 189.519 179.310,191.613 178.639,191.731 178.189 C 191.823 177.843,191.872 177.893,191.896 178.357 C 191.914 178.720,191.981 179.017,192.044 179.017 C 192.193 179.017,197.735 177.897,198.642 177.684 C 200.390 177.273,198.082 168.044,195.433 164.848 C 193.852 162.941,190.807 161.970,189.253 162.878 M238.368 165.137 C 235.778 166.563,226.832 174.475,225.953 176.118 C 225.707 176.577,225.946 176.841,227.575 177.910 C 228.626 178.599,229.556 179.362,229.642 179.604 C 229.728 179.846,231.378 181.060,233.309 182.301 L 236.820 184.557 237.813 183.328 C 243.798 175.916,245.349 168.947,241.760 165.595 C 240.767 164.668,239.525 164.500,238.368 165.137 M199.340 179.164 C 199.344 179.809,199.404 180.039,199.474 179.674 C 199.544 179.309,199.541 178.780,199.468 178.500 C 199.395 178.219,199.337 178.518,199.340 179.164 M230.461 178.843 C 230.171 179.232,229.887 179.421,229.830 179.265 C 229.773 179.108,229.971 178.794,230.270 178.567 C 231.033 177.990,231.064 178.035,230.461 178.843 M235.491 185.840 L 234.629 186.794 235.583 185.932 C 236.472 185.128,236.672 184.886,236.445 184.886 C 236.395 184.886,235.966 185.315,235.491 185.840 " stroke="none" fill="#f29125" fill-rule="evenodd"></path><path id="path4" d="M41.874 145.487 C 44.648 145.536,49.270 145.536,52.145 145.488 C 55.021 145.439,52.751 145.400,47.102 145.400 C 41.453 145.400,39.100 145.439,41.874 145.487 M102.201 145.487 C 105.066 145.535,109.754 145.535,112.619 145.487 C 115.484 145.439,113.140 145.400,107.410 145.400 C 101.680 145.400,99.336 145.439,102.201 145.487 M154.439 165.731 C 155.044 165.794,156.034 165.794,156.640 165.731 C 157.245 165.668,156.750 165.616,155.539 165.616 C 154.329 165.616,153.833 165.668,154.439 165.731 M273.738 165.725 C 274.103 165.795,274.631 165.792,274.912 165.719 C 275.192 165.645,274.894 165.588,274.248 165.591 C 273.602 165.595,273.373 165.655,273.738 165.725 M277.990 165.720 C 278.272 165.793,278.734 165.793,279.017 165.720 C 279.299 165.646,279.068 165.585,278.503 165.585 C 277.938 165.585,277.707 165.646,277.990 165.720 M346.368 165.727 C 346.812 165.795,347.539 165.795,347.982 165.727 C 348.426 165.660,348.063 165.605,347.175 165.605 C 346.288 165.605,345.924 165.660,346.368 165.727 M318.489 167.202 C 319.578 167.259,321.361 167.259,322.450 167.202 C 323.540 167.146,322.649 167.100,320.470 167.100 C 318.291 167.100,317.399 167.146,318.489 167.202 M327.287 169.919 C 327.287 170.484,327.348 170.715,327.422 170.433 C 327.495 170.150,327.495 169.688,327.422 169.406 C 327.348 169.123,327.287 169.354,327.287 169.919 M363.103 181.658 C 363.103 182.384,363.160 182.682,363.230 182.318 C 363.300 181.955,363.300 181.361,363.230 180.998 C 363.160 180.635,363.103 180.932,363.103 181.658 M161.195 181.952 C 161.195 182.678,161.252 182.975,161.322 182.612 C 161.392 182.249,161.392 181.654,161.322 181.291 C 161.252 180.928,161.195 181.225,161.195 181.952 M346.679 185.620 C 346.681 186.588,346.736 186.949,346.801 186.422 C 346.866 185.894,346.865 185.102,346.798 184.661 C 346.731 184.220,346.678 184.652,346.679 185.620 M298.533 185.913 C 298.537 186.559,298.597 186.789,298.667 186.424 C 298.737 186.059,298.734 185.530,298.661 185.250 C 298.587 184.969,298.530 185.268,298.533 185.913 M144.754 190.958 C 145.037 191.032,145.499 191.032,145.781 190.958 C 146.064 190.884,145.833 190.824,145.268 190.824 C 144.703 190.824,144.472 190.884,144.754 190.958 M123.535 198.313 L 122.524 199.413 123.624 198.402 C 124.649 197.460,124.860 197.212,124.636 197.212 C 124.587 197.212,124.091 197.707,123.535 198.313 M290.467 199.479 C 290.995 199.544,291.787 199.543,292.228 199.476 C 292.669 199.409,292.238 199.356,291.269 199.357 C 290.301 199.359,289.940 199.414,290.467 199.479 M204.910 202.494 C 204.910 203.059,204.971 203.291,205.045 203.008 C 205.118 202.726,205.118 202.263,205.045 201.981 C 204.971 201.698,204.910 201.930,204.910 202.494 M285.326 206.526 C 286.255 206.585,287.773 206.585,288.701 206.526 C 289.629 206.468,288.870 206.421,287.014 206.421 C 285.158 206.421,284.398 206.468,285.326 206.526 M279.223 209.024 L 278.063 210.271 279.310 209.111 C 280.470 208.033,280.692 207.777,280.470 207.777 C 280.422 207.777,279.861 208.338,279.223 209.024 M268.599 213.849 C 268.881 213.922,269.343 213.922,269.626 213.849 C 269.908 213.775,269.677 213.714,269.112 213.714 C 268.547 213.714,268.316 213.775,268.599 213.849 M217.296 215.187 L 216.434 216.141 217.388 215.279 C 217.913 214.805,218.342 214.376,218.342 214.325 C 218.342 214.098,218.100 214.298,217.296 215.187 M215.257 218.053 C 215.156 218.217,214.917 218.262,214.727 218.153 C 214.536 218.044,214.479 218.064,214.601 218.198 C 214.722 218.331,214.592 218.716,214.312 219.052 C 214.032 219.388,214.229 219.275,214.751 218.801 C 215.274 218.326,215.701 217.897,215.701 217.847 C 215.701 217.646,215.431 217.772,215.257 218.053 M169.993 219.956 C 169.997 220.602,170.057 220.831,170.127 220.466 C 170.197 220.101,170.194 219.573,170.121 219.292 C 170.047 219.012,169.990 219.310,169.993 219.956 M196.291 221.015 C 196.019 221.187,196.197 221.269,196.845 221.272 C 197.370 221.275,197.799 221.226,197.799 221.164 C 197.799 220.897,196.655 220.784,196.291 221.015 M340.200 221.864 C 340.200 222.428,340.261 222.660,340.334 222.377 C 340.408 222.095,340.408 221.632,340.334 221.350 C 340.261 221.067,340.200 221.299,340.200 221.864 M197.667 223.061 C 197.742 223.182,197.650 223.332,197.463 223.394 C 197.277 223.456,197.177 223.653,197.241 223.832 C 197.307 224.013,197.577 223.865,197.849 223.499 C 198.234 222.983,198.253 222.842,197.935 222.842 C 197.713 222.842,197.592 222.941,197.667 223.061 M23.859 224.137 C 25.279 224.190,27.524 224.190,28.848 224.136 C 30.172 224.082,29.010 224.038,26.266 224.038 C 23.522 224.038,22.439 224.083,23.859 224.137 M62.289 224.132 C 62.894 224.195,63.885 224.195,64.490 224.132 C 65.095 224.068,64.600 224.016,63.390 224.016 C 62.179 224.016,61.684 224.068,62.289 224.132 M93.544 224.136 C 95.037 224.190,97.480 224.190,98.973 224.136 C 100.466 224.083,99.244 224.040,96.258 224.040 C 93.272 224.040,92.051 224.083,93.544 224.136 M129.787 225.294 C 130.070 225.368,130.532 225.368,130.814 225.294 C 131.097 225.220,130.866 225.160,130.301 225.160 C 129.736 225.160,129.505 225.220,129.787 225.294 M133.309 225.599 C 133.914 225.662,134.905 225.662,135.510 225.599 C 136.115 225.536,135.620 225.484,134.409 225.484 C 133.199 225.484,132.704 225.536,133.309 225.599 M198.283 229.044 C 198.067 229.608,198.674 229.978,198.986 229.472 C 199.245 229.054,199.094 228.613,198.693 228.613 C 198.559 228.613,198.374 228.807,198.283 229.044 M202.629 229.126 C 202.716 229.355,202.788 229.641,202.788 229.762 C 202.788 229.884,202.992 229.983,203.241 229.983 C 203.511 229.983,203.629 229.815,203.534 229.568 C 203.447 229.339,203.375 229.053,203.375 228.932 C 203.375 228.810,203.171 228.711,202.922 228.711 C 202.652 228.711,202.534 228.879,202.629 229.126 " stroke="none" fill="#9a9a9a" fill-rule="evenodd"></path></g></svg>